M48
INCH,TZ
T1C0.012
T2C0.030
%
G90
G05
T1
X40669Y-44055
X40669Y-44449
X40669Y-44843
X41339Y-44055
X41339Y-44449
X41339Y-44843
X43583Y-45197
X44626Y-45177
X45020Y-44272
X45157Y-44843
X45197Y-43228
X45413Y-45020
X47244Y-44449
X47283Y-43780
X47717Y-44449
X48858Y-44409
X49213Y-44409
X49449Y-43268
X49764Y-43268
X49882Y-44685
X50079Y-43228
X50118Y-44921
X51555Y-45276
X52146Y-45039
X52559Y-44173
X52795Y-45039
X53386Y-43071
X53740Y-44907
X53858Y-44055
X53898Y-43071
X54882Y-44055
X55000Y-43110
X55906Y-43091
X55945Y-45276
X56929Y-45276
X57244Y-45276
X57559Y-45276
T2
X38780Y-43346
X38780Y-44843
T0
M30
