G04 #@! TF.FileFunction,Legend,Bot*
%FSLAX46Y46*%
G04 Gerber Fmt 4.6, Leading zero omitted, Abs format (unit mm)*
G04 Created by KiCad (PCBNEW (2016-02-18 BZR 6566)-product) date Sunday, 27 March 2016 20:39:01*
%MOMM*%
G01*
G04 APERTURE LIST*
%ADD10C,0.100000*%
%ADD11C,0.125000*%
%ADD12C,0.150000*%
%ADD13C,0.300000*%
G04 APERTURE END LIST*
D10*
D11*
X100345238Y-114126190D02*
X100511905Y-113888095D01*
X100630952Y-114126190D02*
X100630952Y-113626190D01*
X100440476Y-113626190D01*
X100392857Y-113650000D01*
X100369048Y-113673810D01*
X100345238Y-113721429D01*
X100345238Y-113792857D01*
X100369048Y-113840476D01*
X100392857Y-113864286D01*
X100440476Y-113888095D01*
X100630952Y-113888095D01*
X100642857Y-109926190D02*
X100357143Y-109926190D01*
X100500000Y-110426190D02*
X100500000Y-109926190D01*
D10*
X101800000Y-112304762D02*
X101819048Y-112342857D01*
X101819048Y-112400000D01*
X101800000Y-112457143D01*
X101761905Y-112495238D01*
X101723810Y-112514286D01*
X101647619Y-112533334D01*
X101590476Y-112533334D01*
X101514286Y-112514286D01*
X101476190Y-112495238D01*
X101438095Y-112457143D01*
X101419048Y-112400000D01*
X101419048Y-112361905D01*
X101438095Y-112304762D01*
X101457143Y-112285714D01*
X101590476Y-112285714D01*
X101590476Y-112361905D01*
X101419048Y-112114286D02*
X101819048Y-112114286D01*
X101419048Y-111885714D01*
X101819048Y-111885714D01*
X101419048Y-111695238D02*
X101819048Y-111695238D01*
X101819048Y-111600000D01*
X101800000Y-111542857D01*
X101761905Y-111504762D01*
X101723810Y-111485714D01*
X101647619Y-111466666D01*
X101590476Y-111466666D01*
X101514286Y-111485714D01*
X101476190Y-111504762D01*
X101438095Y-111542857D01*
X101419048Y-111600000D01*
X101419048Y-111695238D01*
X146204762Y-111800000D02*
X146242857Y-111780952D01*
X146300000Y-111780952D01*
X146357143Y-111800000D01*
X146395238Y-111838095D01*
X146414286Y-111876190D01*
X146433334Y-111952381D01*
X146433334Y-112009524D01*
X146414286Y-112085714D01*
X146395238Y-112123810D01*
X146357143Y-112161905D01*
X146300000Y-112180952D01*
X146261905Y-112180952D01*
X146204762Y-112161905D01*
X146185714Y-112142857D01*
X146185714Y-112009524D01*
X146261905Y-112009524D01*
X146014286Y-112180952D02*
X146014286Y-111780952D01*
X145785714Y-112180952D01*
X145785714Y-111780952D01*
X145595238Y-112180952D02*
X145595238Y-111780952D01*
X145500000Y-111780952D01*
X145442857Y-111800000D01*
X145404762Y-111838095D01*
X145385714Y-111876190D01*
X145366666Y-111952381D01*
X145366666Y-112009524D01*
X145385714Y-112085714D01*
X145404762Y-112123810D01*
X145442857Y-112161905D01*
X145500000Y-112180952D01*
X145595238Y-112180952D01*
X146519048Y-109180952D02*
X146519048Y-108780952D01*
X146519048Y-108971429D02*
X146290476Y-108971429D01*
X146290476Y-109180952D02*
X146290476Y-108780952D01*
X146100000Y-108971429D02*
X145966667Y-108971429D01*
X145909524Y-109180952D02*
X146100000Y-109180952D01*
X146100000Y-108780952D01*
X145909524Y-108780952D01*
X145757143Y-109066667D02*
X145566666Y-109066667D01*
X145795238Y-109180952D02*
X145661904Y-108780952D01*
X145528571Y-109180952D01*
X145452381Y-108780952D02*
X145223809Y-108780952D01*
X145338095Y-109180952D02*
X145338095Y-108780952D01*
D11*
X143488092Y-113326190D02*
X143488092Y-112992857D01*
X143488092Y-113088095D02*
X143464283Y-113040476D01*
X143440473Y-113016667D01*
X143392854Y-112992857D01*
X143345235Y-112992857D01*
X142988092Y-113302381D02*
X143035711Y-113326190D01*
X143130949Y-113326190D01*
X143178568Y-113302381D01*
X143202378Y-113254762D01*
X143202378Y-113064286D01*
X143178568Y-113016667D01*
X143130949Y-112992857D01*
X143035711Y-112992857D01*
X142988092Y-113016667D01*
X142964283Y-113064286D01*
X142964283Y-113111905D01*
X143202378Y-113159524D01*
X142797616Y-112992857D02*
X142678569Y-113326190D01*
X142559521Y-112992857D01*
X141726189Y-113326190D02*
X142011903Y-113326190D01*
X141869046Y-113326190D02*
X141869046Y-112826190D01*
X141916665Y-112897619D01*
X141964284Y-112945238D01*
X142011903Y-112969048D01*
X141130951Y-113135714D02*
X140749999Y-113135714D01*
X140154761Y-112873810D02*
X140130951Y-112850000D01*
X140083332Y-112826190D01*
X139964285Y-112826190D01*
X139916666Y-112850000D01*
X139892856Y-112873810D01*
X139869047Y-112921429D01*
X139869047Y-112969048D01*
X139892856Y-113040476D01*
X140178570Y-113326190D01*
X139869047Y-113326190D01*
X139440476Y-112826190D02*
X139535714Y-112826190D01*
X139583333Y-112850000D01*
X139607142Y-112873810D01*
X139654761Y-112945238D01*
X139678571Y-113040476D01*
X139678571Y-113230952D01*
X139654761Y-113278571D01*
X139630952Y-113302381D01*
X139583333Y-113326190D01*
X139488095Y-113326190D01*
X139440476Y-113302381D01*
X139416666Y-113278571D01*
X139392857Y-113230952D01*
X139392857Y-113111905D01*
X139416666Y-113064286D01*
X139440476Y-113040476D01*
X139488095Y-113016667D01*
X139583333Y-113016667D01*
X139630952Y-113040476D01*
X139654761Y-113064286D01*
X139678571Y-113111905D01*
X138821429Y-112802381D02*
X139250000Y-113445238D01*
X138559523Y-112826190D02*
X138511904Y-112826190D01*
X138464285Y-112850000D01*
X138440476Y-112873810D01*
X138416666Y-112921429D01*
X138392857Y-113016667D01*
X138392857Y-113135714D01*
X138416666Y-113230952D01*
X138440476Y-113278571D01*
X138464285Y-113302381D01*
X138511904Y-113326190D01*
X138559523Y-113326190D01*
X138607142Y-113302381D01*
X138630952Y-113278571D01*
X138654761Y-113230952D01*
X138678571Y-113135714D01*
X138678571Y-113016667D01*
X138654761Y-112921429D01*
X138630952Y-112873810D01*
X138607142Y-112850000D01*
X138559523Y-112826190D01*
X137916667Y-113326190D02*
X138202381Y-113326190D01*
X138059524Y-113326190D02*
X138059524Y-112826190D01*
X138107143Y-112897619D01*
X138154762Y-112945238D01*
X138202381Y-112969048D01*
X137345239Y-112802381D02*
X137773810Y-113445238D01*
X137202381Y-112873810D02*
X137178571Y-112850000D01*
X137130952Y-112826190D01*
X137011905Y-112826190D01*
X136964286Y-112850000D01*
X136940476Y-112873810D01*
X136916667Y-112921429D01*
X136916667Y-112969048D01*
X136940476Y-113040476D01*
X137226190Y-113326190D01*
X136916667Y-113326190D01*
X136607143Y-112826190D02*
X136559524Y-112826190D01*
X136511905Y-112850000D01*
X136488096Y-112873810D01*
X136464286Y-112921429D01*
X136440477Y-113016667D01*
X136440477Y-113135714D01*
X136464286Y-113230952D01*
X136488096Y-113278571D01*
X136511905Y-113302381D01*
X136559524Y-113326190D01*
X136607143Y-113326190D01*
X136654762Y-113302381D01*
X136678572Y-113278571D01*
X136702381Y-113230952D01*
X136726191Y-113135714D01*
X136726191Y-113016667D01*
X136702381Y-112921429D01*
X136678572Y-112873810D01*
X136654762Y-112850000D01*
X136607143Y-112826190D01*
X135964287Y-113326190D02*
X136250001Y-113326190D01*
X136107144Y-113326190D02*
X136107144Y-112826190D01*
X136154763Y-112897619D01*
X136202382Y-112945238D01*
X136250001Y-112969048D01*
X135535716Y-112826190D02*
X135630954Y-112826190D01*
X135678573Y-112850000D01*
X135702382Y-112873810D01*
X135750001Y-112945238D01*
X135773811Y-113040476D01*
X135773811Y-113230952D01*
X135750001Y-113278571D01*
X135726192Y-113302381D01*
X135678573Y-113326190D01*
X135583335Y-113326190D01*
X135535716Y-113302381D01*
X135511906Y-113278571D01*
X135488097Y-113230952D01*
X135488097Y-113111905D01*
X135511906Y-113064286D01*
X135535716Y-113040476D01*
X135583335Y-113016667D01*
X135678573Y-113016667D01*
X135726192Y-113040476D01*
X135750001Y-113064286D01*
X135773811Y-113111905D01*
D12*
X143110711Y-114739286D02*
X143360711Y-114382143D01*
X143539283Y-114739286D02*
X143539283Y-113989286D01*
X143253568Y-113989286D01*
X143182140Y-114025000D01*
X143146425Y-114060714D01*
X143110711Y-114132143D01*
X143110711Y-114239286D01*
X143146425Y-114310714D01*
X143182140Y-114346429D01*
X143253568Y-114382143D01*
X143539283Y-114382143D01*
X142503568Y-114703571D02*
X142574997Y-114739286D01*
X142717854Y-114739286D01*
X142789283Y-114703571D01*
X142824997Y-114632143D01*
X142824997Y-114346429D01*
X142789283Y-114275000D01*
X142717854Y-114239286D01*
X142574997Y-114239286D01*
X142503568Y-114275000D01*
X142467854Y-114346429D01*
X142467854Y-114417857D01*
X142824997Y-114489286D01*
X141824997Y-114739286D02*
X141824997Y-114346429D01*
X141860711Y-114275000D01*
X141932140Y-114239286D01*
X142074997Y-114239286D01*
X142146426Y-114275000D01*
X141824997Y-114703571D02*
X141896426Y-114739286D01*
X142074997Y-114739286D01*
X142146426Y-114703571D01*
X142182140Y-114632143D01*
X142182140Y-114560714D01*
X142146426Y-114489286D01*
X142074997Y-114453571D01*
X141896426Y-114453571D01*
X141824997Y-114417857D01*
X141146426Y-114739286D02*
X141146426Y-113989286D01*
X141146426Y-114703571D02*
X141217855Y-114739286D01*
X141360712Y-114739286D01*
X141432140Y-114703571D01*
X141467855Y-114667857D01*
X141503569Y-114596429D01*
X141503569Y-114382143D01*
X141467855Y-114310714D01*
X141432140Y-114275000D01*
X141360712Y-114239286D01*
X141217855Y-114239286D01*
X141146426Y-114275000D01*
X140789284Y-114739286D02*
X140789284Y-114239286D01*
X140789284Y-113989286D02*
X140824998Y-114025000D01*
X140789284Y-114060714D01*
X140753569Y-114025000D01*
X140789284Y-113989286D01*
X140789284Y-114060714D01*
X140432141Y-114239286D02*
X140432141Y-114739286D01*
X140432141Y-114310714D02*
X140396426Y-114275000D01*
X140324998Y-114239286D01*
X140217855Y-114239286D01*
X140146426Y-114275000D01*
X140110712Y-114346429D01*
X140110712Y-114739286D01*
X139432141Y-114239286D02*
X139432141Y-114846429D01*
X139467855Y-114917857D01*
X139503570Y-114953571D01*
X139574998Y-114989286D01*
X139682141Y-114989286D01*
X139753570Y-114953571D01*
X139432141Y-114703571D02*
X139503570Y-114739286D01*
X139646427Y-114739286D01*
X139717855Y-114703571D01*
X139753570Y-114667857D01*
X139789284Y-114596429D01*
X139789284Y-114382143D01*
X139753570Y-114310714D01*
X139717855Y-114275000D01*
X139646427Y-114239286D01*
X139503570Y-114239286D01*
X139432141Y-114275000D01*
X138503570Y-114739286D02*
X138503570Y-113989286D01*
X138503570Y-114346429D02*
X138074998Y-114346429D01*
X138074998Y-114739286D02*
X138074998Y-113989286D01*
X137396427Y-114739286D02*
X137396427Y-114346429D01*
X137432141Y-114275000D01*
X137503570Y-114239286D01*
X137646427Y-114239286D01*
X137717856Y-114275000D01*
X137396427Y-114703571D02*
X137467856Y-114739286D01*
X137646427Y-114739286D01*
X137717856Y-114703571D01*
X137753570Y-114632143D01*
X137753570Y-114560714D01*
X137717856Y-114489286D01*
X137646427Y-114453571D01*
X137467856Y-114453571D01*
X137396427Y-114417857D01*
X136717856Y-114703571D02*
X136789285Y-114739286D01*
X136932142Y-114739286D01*
X137003570Y-114703571D01*
X137039285Y-114667857D01*
X137074999Y-114596429D01*
X137074999Y-114382143D01*
X137039285Y-114310714D01*
X137003570Y-114275000D01*
X136932142Y-114239286D01*
X136789285Y-114239286D01*
X136717856Y-114275000D01*
X136396428Y-114739286D02*
X136396428Y-113989286D01*
X136324999Y-114453571D02*
X136110713Y-114739286D01*
X136110713Y-114239286D02*
X136396428Y-114525000D01*
X135824999Y-114703571D02*
X135753570Y-114739286D01*
X135610713Y-114739286D01*
X135539285Y-114703571D01*
X135503570Y-114632143D01*
X135503570Y-114596429D01*
X135539285Y-114525000D01*
X135610713Y-114489286D01*
X135717856Y-114489286D01*
X135789285Y-114453571D01*
X135824999Y-114382143D01*
X135824999Y-114346429D01*
X135789285Y-114275000D01*
X135717856Y-114239286D01*
X135610713Y-114239286D01*
X135539285Y-114275000D01*
X135182142Y-114239286D02*
X135182142Y-114989286D01*
X135182142Y-114275000D02*
X135110713Y-114239286D01*
X134967856Y-114239286D01*
X134896427Y-114275000D01*
X134860713Y-114310714D01*
X134824999Y-114382143D01*
X134824999Y-114596429D01*
X134860713Y-114667857D01*
X134896427Y-114703571D01*
X134967856Y-114739286D01*
X135110713Y-114739286D01*
X135182142Y-114703571D01*
X134182142Y-114739286D02*
X134182142Y-114346429D01*
X134217856Y-114275000D01*
X134289285Y-114239286D01*
X134432142Y-114239286D01*
X134503571Y-114275000D01*
X134182142Y-114703571D02*
X134253571Y-114739286D01*
X134432142Y-114739286D01*
X134503571Y-114703571D01*
X134539285Y-114632143D01*
X134539285Y-114560714D01*
X134503571Y-114489286D01*
X134432142Y-114453571D01*
X134253571Y-114453571D01*
X134182142Y-114417857D01*
X133503571Y-114703571D02*
X133575000Y-114739286D01*
X133717857Y-114739286D01*
X133789285Y-114703571D01*
X133825000Y-114667857D01*
X133860714Y-114596429D01*
X133860714Y-114382143D01*
X133825000Y-114310714D01*
X133789285Y-114275000D01*
X133717857Y-114239286D01*
X133575000Y-114239286D01*
X133503571Y-114275000D01*
X132896428Y-114703571D02*
X132967857Y-114739286D01*
X133110714Y-114739286D01*
X133182143Y-114703571D01*
X133217857Y-114632143D01*
X133217857Y-114346429D01*
X133182143Y-114275000D01*
X133110714Y-114239286D01*
X132967857Y-114239286D01*
X132896428Y-114275000D01*
X132860714Y-114346429D01*
X132860714Y-114417857D01*
X133217857Y-114489286D01*
X131967857Y-114453571D02*
X131396428Y-114453571D01*
X130467857Y-114739286D02*
X130467857Y-113989286D01*
X130146428Y-114739286D02*
X130146428Y-114346429D01*
X130182142Y-114275000D01*
X130253571Y-114239286D01*
X130360714Y-114239286D01*
X130432142Y-114275000D01*
X130467857Y-114310714D01*
X129896428Y-114239286D02*
X129610714Y-114239286D01*
X129789286Y-113989286D02*
X129789286Y-114632143D01*
X129753571Y-114703571D01*
X129682143Y-114739286D01*
X129610714Y-114739286D01*
X129467857Y-114239286D02*
X129182143Y-114239286D01*
X129360715Y-113989286D02*
X129360715Y-114632143D01*
X129325000Y-114703571D01*
X129253572Y-114739286D01*
X129182143Y-114739286D01*
X128932144Y-114239286D02*
X128932144Y-114989286D01*
X128932144Y-114275000D02*
X128860715Y-114239286D01*
X128717858Y-114239286D01*
X128646429Y-114275000D01*
X128610715Y-114310714D01*
X128575001Y-114382143D01*
X128575001Y-114596429D01*
X128610715Y-114667857D01*
X128646429Y-114703571D01*
X128717858Y-114739286D01*
X128860715Y-114739286D01*
X128932144Y-114703571D01*
X128253573Y-114667857D02*
X128217858Y-114703571D01*
X128253573Y-114739286D01*
X128289287Y-114703571D01*
X128253573Y-114667857D01*
X128253573Y-114739286D01*
X128253573Y-114275000D02*
X128217858Y-114310714D01*
X128253573Y-114346429D01*
X128289287Y-114310714D01*
X128253573Y-114275000D01*
X128253573Y-114346429D01*
X127360715Y-113953571D02*
X128003572Y-114917857D01*
X126575001Y-113953571D02*
X127217858Y-114917857D01*
X126325002Y-114739286D02*
X126325002Y-114239286D01*
X126325002Y-114382143D02*
X126289287Y-114310714D01*
X126253573Y-114275000D01*
X126182144Y-114239286D01*
X126110716Y-114239286D01*
X125753573Y-114739286D02*
X125825001Y-114703571D01*
X125860716Y-114632143D01*
X125860716Y-113989286D01*
X125146430Y-114739286D02*
X125146430Y-114346429D01*
X125182144Y-114275000D01*
X125253573Y-114239286D01*
X125396430Y-114239286D01*
X125467859Y-114275000D01*
X125146430Y-114703571D02*
X125217859Y-114739286D01*
X125396430Y-114739286D01*
X125467859Y-114703571D01*
X125503573Y-114632143D01*
X125503573Y-114560714D01*
X125467859Y-114489286D01*
X125396430Y-114453571D01*
X125217859Y-114453571D01*
X125146430Y-114417857D01*
X124789288Y-114739286D02*
X124789288Y-113989286D01*
X124789288Y-114275000D02*
X124717859Y-114239286D01*
X124575002Y-114239286D01*
X124503573Y-114275000D01*
X124467859Y-114310714D01*
X124432145Y-114382143D01*
X124432145Y-114596429D01*
X124467859Y-114667857D01*
X124503573Y-114703571D01*
X124575002Y-114739286D01*
X124717859Y-114739286D01*
X124789288Y-114703571D01*
X124110717Y-114667857D02*
X124075002Y-114703571D01*
X124110717Y-114739286D01*
X124146431Y-114703571D01*
X124110717Y-114667857D01*
X124110717Y-114739286D01*
X123646431Y-114739286D02*
X123717859Y-114703571D01*
X123753574Y-114667857D01*
X123789288Y-114596429D01*
X123789288Y-114382143D01*
X123753574Y-114310714D01*
X123717859Y-114275000D01*
X123646431Y-114239286D01*
X123539288Y-114239286D01*
X123467859Y-114275000D01*
X123432145Y-114310714D01*
X123396431Y-114382143D01*
X123396431Y-114596429D01*
X123432145Y-114667857D01*
X123467859Y-114703571D01*
X123539288Y-114739286D01*
X123646431Y-114739286D01*
X123075003Y-114739286D02*
X123075003Y-114239286D01*
X123075003Y-114382143D02*
X123039288Y-114310714D01*
X123003574Y-114275000D01*
X122932145Y-114239286D01*
X122860717Y-114239286D01*
X122289288Y-114239286D02*
X122289288Y-114846429D01*
X122325002Y-114917857D01*
X122360717Y-114953571D01*
X122432145Y-114989286D01*
X122539288Y-114989286D01*
X122610717Y-114953571D01*
X122289288Y-114703571D02*
X122360717Y-114739286D01*
X122503574Y-114739286D01*
X122575002Y-114703571D01*
X122610717Y-114667857D01*
X122646431Y-114596429D01*
X122646431Y-114382143D01*
X122610717Y-114310714D01*
X122575002Y-114275000D01*
X122503574Y-114239286D01*
X122360717Y-114239286D01*
X122289288Y-114275000D01*
X121932146Y-114667857D02*
X121896431Y-114703571D01*
X121932146Y-114739286D01*
X121967860Y-114703571D01*
X121932146Y-114667857D01*
X121932146Y-114739286D01*
X121253574Y-114239286D02*
X121253574Y-114739286D01*
X121575003Y-114239286D02*
X121575003Y-114632143D01*
X121539288Y-114703571D01*
X121467860Y-114739286D01*
X121360717Y-114739286D01*
X121289288Y-114703571D01*
X121253574Y-114667857D01*
X120896432Y-114739286D02*
X120896432Y-113989286D01*
X120825003Y-114453571D02*
X120610717Y-114739286D01*
X120610717Y-114239286D02*
X120896432Y-114525000D01*
X119753574Y-113953571D02*
X120396431Y-114917857D01*
D13*
X143442858Y-111278571D02*
X143442858Y-109778571D01*
X143442858Y-110492857D02*
X142585715Y-110492857D01*
X142585715Y-111278571D02*
X142585715Y-109778571D01*
X141657143Y-111278571D02*
X141800001Y-111207143D01*
X141871429Y-111135714D01*
X141942858Y-110992857D01*
X141942858Y-110564286D01*
X141871429Y-110421429D01*
X141800001Y-110350000D01*
X141657143Y-110278571D01*
X141442858Y-110278571D01*
X141300001Y-110350000D01*
X141228572Y-110421429D01*
X141157143Y-110564286D01*
X141157143Y-110992857D01*
X141228572Y-111135714D01*
X141300001Y-111207143D01*
X141442858Y-111278571D01*
X141657143Y-111278571D01*
X140728572Y-110278571D02*
X140157143Y-110278571D01*
X140514286Y-109778571D02*
X140514286Y-111064286D01*
X140442858Y-111207143D01*
X140300000Y-111278571D01*
X140157143Y-111278571D01*
X139728572Y-111207143D02*
X139585715Y-111278571D01*
X139300000Y-111278571D01*
X139157143Y-111207143D01*
X139085715Y-111064286D01*
X139085715Y-110992857D01*
X139157143Y-110850000D01*
X139300000Y-110778571D01*
X139514286Y-110778571D01*
X139657143Y-110707143D01*
X139728572Y-110564286D01*
X139728572Y-110492857D01*
X139657143Y-110350000D01*
X139514286Y-110278571D01*
X139300000Y-110278571D01*
X139157143Y-110350000D01*
X138657143Y-110278571D02*
X138085714Y-110278571D01*
X138442857Y-109778571D02*
X138442857Y-111064286D01*
X138371429Y-111207143D01*
X138228571Y-111278571D01*
X138085714Y-111278571D01*
X137585714Y-111278571D02*
X137585714Y-110278571D01*
X137585714Y-109778571D02*
X137657143Y-109850000D01*
X137585714Y-109921429D01*
X137514286Y-109850000D01*
X137585714Y-109778571D01*
X137585714Y-109921429D01*
X136228571Y-111207143D02*
X136371428Y-111278571D01*
X136657142Y-111278571D01*
X136800000Y-111207143D01*
X136871428Y-111135714D01*
X136942857Y-110992857D01*
X136942857Y-110564286D01*
X136871428Y-110421429D01*
X136800000Y-110350000D01*
X136657142Y-110278571D01*
X136371428Y-110278571D01*
X136228571Y-110350000D01*
X135585714Y-111278571D02*
X135585714Y-109778571D01*
X135442857Y-110707143D02*
X135014286Y-111278571D01*
X135014286Y-110278571D02*
X135585714Y-110850000D01*
X133228571Y-110707143D02*
X132085714Y-110707143D01*
X130371428Y-109778571D02*
X130014285Y-111278571D01*
X129728571Y-110207143D01*
X129442857Y-111278571D01*
X129085714Y-109778571D01*
X127871428Y-111278571D02*
X127871428Y-110492857D01*
X127942857Y-110350000D01*
X128085714Y-110278571D01*
X128371428Y-110278571D01*
X128514285Y-110350000D01*
X127871428Y-111207143D02*
X128014285Y-111278571D01*
X128371428Y-111278571D01*
X128514285Y-111207143D01*
X128585714Y-111064286D01*
X128585714Y-110921429D01*
X128514285Y-110778571D01*
X128371428Y-110707143D01*
X128014285Y-110707143D01*
X127871428Y-110635714D01*
X127157142Y-110278571D02*
X127157142Y-111278571D01*
X127157142Y-110421429D02*
X127085714Y-110350000D01*
X126942856Y-110278571D01*
X126728571Y-110278571D01*
X126585714Y-110350000D01*
X126514285Y-110492857D01*
X126514285Y-111278571D01*
X125157142Y-111278571D02*
X125157142Y-109778571D01*
X125157142Y-111207143D02*
X125299999Y-111278571D01*
X125585713Y-111278571D01*
X125728571Y-111207143D01*
X125799999Y-111135714D01*
X125871428Y-110992857D01*
X125871428Y-110564286D01*
X125799999Y-110421429D01*
X125728571Y-110350000D01*
X125585713Y-110278571D01*
X125299999Y-110278571D01*
X125157142Y-110350000D01*
M02*
