G04 #@! TF.FileFunction,Copper,L1,Top,Signal*
%FSLAX46Y46*%
G04 Gerber Fmt 4.6, Leading zero omitted, Abs format (unit mm)*
G04 Created by KiCad (PCBNEW (2016-02-18 BZR 6566)-product) date Sunday, 27 March 2016 20:39:01*
%MOMM*%
G01*
G04 APERTURE LIST*
%ADD10C,0.100000*%
%ADD11R,2.000000X1.000000*%
%ADD12R,0.350000X0.800000*%
%ADD13R,0.800000X0.350000*%
%ADD14R,1.550000X0.600000*%
%ADD15R,0.400000X0.600000*%
%ADD16R,0.600000X0.400000*%
%ADD17R,3.000000X1.200000*%
%ADD18R,0.600000X0.500000*%
%ADD19R,1.100000X1.500000*%
%ADD20R,1.524000X1.524000*%
%ADD21C,1.524000*%
%ADD22R,0.600000X0.700000*%
%ADD23C,0.600000*%
%ADD24C,0.500000*%
%ADD25C,0.250000*%
G04 APERTURE END LIST*
D10*
D11*
X145900000Y-113500000D03*
X145900000Y-110500000D03*
X145900000Y-112000000D03*
D12*
X121950000Y-110000000D03*
X121450000Y-110000000D03*
X120950000Y-110000000D03*
X120450000Y-110000000D03*
X119950000Y-110000000D03*
X119450000Y-110000000D03*
D13*
X118700000Y-110750000D03*
X118700000Y-111250000D03*
X118700000Y-111750000D03*
X118700000Y-112250000D03*
X118700000Y-112750000D03*
X118700000Y-113250000D03*
D12*
X119450000Y-114000000D03*
X119950000Y-114000000D03*
X120450000Y-114000000D03*
X120950000Y-114000000D03*
X121450000Y-114000000D03*
X121950000Y-114000000D03*
D13*
X122700000Y-113250000D03*
X122700000Y-112750000D03*
X122700000Y-112250000D03*
X122700000Y-111750000D03*
X122700000Y-111250000D03*
X122700000Y-110750000D03*
D14*
X101600000Y-110095000D03*
X101600000Y-111365000D03*
X101600000Y-112635000D03*
X101600000Y-113905000D03*
X107000000Y-113905000D03*
X107000000Y-112635000D03*
X107000000Y-111365000D03*
X107000000Y-110095000D03*
D10*
G36*
X127008454Y-112837921D02*
X126852891Y-112682358D01*
X127418576Y-112116673D01*
X127574139Y-112272236D01*
X127008454Y-112837921D01*
X127008454Y-112837921D01*
G37*
G36*
X127326652Y-113156119D02*
X127171089Y-113000556D01*
X127736774Y-112434871D01*
X127892337Y-112590434D01*
X127326652Y-113156119D01*
X127326652Y-113156119D01*
G37*
G36*
X127644850Y-113474317D02*
X127489287Y-113318754D01*
X128054972Y-112753069D01*
X128210535Y-112908632D01*
X127644850Y-113474317D01*
X127644850Y-113474317D01*
G37*
G36*
X127963048Y-113792515D02*
X127807485Y-113636952D01*
X128373170Y-113071267D01*
X128528733Y-113226830D01*
X127963048Y-113792515D01*
X127963048Y-113792515D01*
G37*
G36*
X128281246Y-114110713D02*
X128125683Y-113955150D01*
X128691368Y-113389465D01*
X128846931Y-113545028D01*
X128281246Y-114110713D01*
X128281246Y-114110713D01*
G37*
G36*
X128599444Y-114428911D02*
X128443881Y-114273348D01*
X129009566Y-113707663D01*
X129165129Y-113863226D01*
X128599444Y-114428911D01*
X128599444Y-114428911D01*
G37*
G36*
X128917642Y-114747109D02*
X128762079Y-114591546D01*
X129327764Y-114025861D01*
X129483327Y-114181424D01*
X128917642Y-114747109D01*
X128917642Y-114747109D01*
G37*
G36*
X130437921Y-114591546D02*
X130282358Y-114747109D01*
X129716673Y-114181424D01*
X129872236Y-114025861D01*
X130437921Y-114591546D01*
X130437921Y-114591546D01*
G37*
G36*
X130756119Y-114273348D02*
X130600556Y-114428911D01*
X130034871Y-113863226D01*
X130190434Y-113707663D01*
X130756119Y-114273348D01*
X130756119Y-114273348D01*
G37*
G36*
X131074317Y-113955150D02*
X130918754Y-114110713D01*
X130353069Y-113545028D01*
X130508632Y-113389465D01*
X131074317Y-113955150D01*
X131074317Y-113955150D01*
G37*
G36*
X131392515Y-113636952D02*
X131236952Y-113792515D01*
X130671267Y-113226830D01*
X130826830Y-113071267D01*
X131392515Y-113636952D01*
X131392515Y-113636952D01*
G37*
G36*
X131710713Y-113318754D02*
X131555150Y-113474317D01*
X130989465Y-112908632D01*
X131145028Y-112753069D01*
X131710713Y-113318754D01*
X131710713Y-113318754D01*
G37*
G36*
X132028911Y-113000556D02*
X131873348Y-113156119D01*
X131307663Y-112590434D01*
X131463226Y-112434871D01*
X132028911Y-113000556D01*
X132028911Y-113000556D01*
G37*
G36*
X132347109Y-112682358D02*
X132191546Y-112837921D01*
X131625861Y-112272236D01*
X131781424Y-112116673D01*
X132347109Y-112682358D01*
X132347109Y-112682358D01*
G37*
G36*
X131781424Y-111883327D02*
X131625861Y-111727764D01*
X132191546Y-111162079D01*
X132347109Y-111317642D01*
X131781424Y-111883327D01*
X131781424Y-111883327D01*
G37*
G36*
X131463226Y-111565129D02*
X131307663Y-111409566D01*
X131873348Y-110843881D01*
X132028911Y-110999444D01*
X131463226Y-111565129D01*
X131463226Y-111565129D01*
G37*
G36*
X131145028Y-111246931D02*
X130989465Y-111091368D01*
X131555150Y-110525683D01*
X131710713Y-110681246D01*
X131145028Y-111246931D01*
X131145028Y-111246931D01*
G37*
G36*
X130826830Y-110928733D02*
X130671267Y-110773170D01*
X131236952Y-110207485D01*
X131392515Y-110363048D01*
X130826830Y-110928733D01*
X130826830Y-110928733D01*
G37*
G36*
X130508632Y-110610535D02*
X130353069Y-110454972D01*
X130918754Y-109889287D01*
X131074317Y-110044850D01*
X130508632Y-110610535D01*
X130508632Y-110610535D01*
G37*
G36*
X130190434Y-110292337D02*
X130034871Y-110136774D01*
X130600556Y-109571089D01*
X130756119Y-109726652D01*
X130190434Y-110292337D01*
X130190434Y-110292337D01*
G37*
G36*
X129872236Y-109974139D02*
X129716673Y-109818576D01*
X130282358Y-109252891D01*
X130437921Y-109408454D01*
X129872236Y-109974139D01*
X129872236Y-109974139D01*
G37*
G36*
X129483327Y-109818576D02*
X129327764Y-109974139D01*
X128762079Y-109408454D01*
X128917642Y-109252891D01*
X129483327Y-109818576D01*
X129483327Y-109818576D01*
G37*
G36*
X129165129Y-110136774D02*
X129009566Y-110292337D01*
X128443881Y-109726652D01*
X128599444Y-109571089D01*
X129165129Y-110136774D01*
X129165129Y-110136774D01*
G37*
G36*
X128846931Y-110454972D02*
X128691368Y-110610535D01*
X128125683Y-110044850D01*
X128281246Y-109889287D01*
X128846931Y-110454972D01*
X128846931Y-110454972D01*
G37*
G36*
X128528733Y-110773170D02*
X128373170Y-110928733D01*
X127807485Y-110363048D01*
X127963048Y-110207485D01*
X128528733Y-110773170D01*
X128528733Y-110773170D01*
G37*
G36*
X128210535Y-111091368D02*
X128054972Y-111246931D01*
X127489287Y-110681246D01*
X127644850Y-110525683D01*
X128210535Y-111091368D01*
X128210535Y-111091368D01*
G37*
G36*
X127892337Y-111409566D02*
X127736774Y-111565129D01*
X127171089Y-110999444D01*
X127326652Y-110843881D01*
X127892337Y-111409566D01*
X127892337Y-111409566D01*
G37*
G36*
X127574139Y-111727764D02*
X127418576Y-111883327D01*
X126852891Y-111317642D01*
X127008454Y-111162079D01*
X127574139Y-111727764D01*
X127574139Y-111727764D01*
G37*
G36*
X130448528Y-112848528D02*
X129600000Y-112000000D01*
X130448528Y-111151472D01*
X131297056Y-112000000D01*
X130448528Y-112848528D01*
X130448528Y-112848528D01*
G37*
G36*
X129600000Y-112000000D02*
X128751472Y-111151472D01*
X129600000Y-110302944D01*
X130448528Y-111151472D01*
X129600000Y-112000000D01*
X129600000Y-112000000D01*
G37*
G36*
X129600000Y-113697056D02*
X128751472Y-112848528D01*
X129600000Y-112000000D01*
X130448528Y-112848528D01*
X129600000Y-113697056D01*
X129600000Y-113697056D01*
G37*
G36*
X128751472Y-112848528D02*
X127902944Y-112000000D01*
X128751472Y-111151472D01*
X129600000Y-112000000D01*
X128751472Y-112848528D01*
X128751472Y-112848528D01*
G37*
D15*
X113350000Y-112000000D03*
X112450000Y-112000000D03*
X113350000Y-110500000D03*
X112450000Y-110500000D03*
X113350000Y-113500000D03*
X112450000Y-113500000D03*
D16*
X124100000Y-111850000D03*
X124100000Y-110950000D03*
X124100000Y-109050000D03*
X124100000Y-109950000D03*
D17*
X98500000Y-110100000D03*
X98500000Y-113900000D03*
D18*
X125150000Y-113700000D03*
X124050000Y-113700000D03*
X116050000Y-111250000D03*
X117150000Y-111250000D03*
X116050000Y-112700000D03*
X117150000Y-112700000D03*
X116050000Y-109850000D03*
X117150000Y-109850000D03*
X133450000Y-109900000D03*
X134550000Y-109900000D03*
X133450000Y-111100000D03*
X134550000Y-111100000D03*
D19*
X109650000Y-113400000D03*
X109650000Y-110400000D03*
X111150000Y-110400000D03*
X111150000Y-113400000D03*
D20*
X143340000Y-110730000D03*
D21*
X143340000Y-113270000D03*
X140800000Y-110730000D03*
X140800000Y-113270000D03*
X138260000Y-110730000D03*
X138260000Y-113270000D03*
D16*
X136100000Y-110250000D03*
X136100000Y-111150000D03*
D22*
X134500000Y-112650000D03*
X135900000Y-112650000D03*
D23*
X142100000Y-115000000D03*
X133500000Y-112200000D03*
X120100000Y-111200000D03*
X114700000Y-113900000D03*
X124100000Y-112800000D03*
X110700000Y-114800000D03*
X126700000Y-113500000D03*
X136498857Y-114064952D03*
X103300000Y-111900000D03*
X135600000Y-109400000D03*
X121200000Y-112900000D03*
X103300000Y-113900000D03*
X144600000Y-115000000D03*
X145400000Y-115000000D03*
X146200000Y-115000000D03*
X103300000Y-112900000D03*
X127300000Y-114100000D03*
X114800000Y-109800000D03*
X134100000Y-114400000D03*
X105000000Y-111900000D03*
X105000000Y-113900000D03*
X139400000Y-111900000D03*
X136800000Y-111900000D03*
X127200000Y-109800000D03*
X136900000Y-109400000D03*
X139700000Y-109500000D03*
X126400000Y-109900000D03*
X142000000Y-109450000D03*
X125600000Y-109900000D03*
X113350000Y-114750000D03*
X115350000Y-114350000D03*
X130950000Y-115000000D03*
X114350000Y-112450000D03*
X132450000Y-114400000D03*
X105000000Y-112900000D03*
X120000000Y-112900000D03*
X125000000Y-112800000D03*
D24*
X143200000Y-115000000D02*
X143340000Y-114860000D01*
X143340000Y-113270000D02*
X143340000Y-114860000D01*
X142900000Y-115000000D02*
X143200000Y-115000000D01*
X142900000Y-115000000D02*
X142100000Y-115000000D01*
D25*
X133500000Y-112200000D02*
X133500000Y-111150000D01*
X133450000Y-111100000D02*
X133500000Y-111150000D01*
X131668287Y-111204505D02*
X132172792Y-110700000D01*
X133050000Y-110700000D02*
X133450000Y-111100000D01*
X132172792Y-110700000D02*
X133050000Y-110700000D01*
X120050000Y-111250000D02*
X120100000Y-111200000D01*
X118200000Y-111250000D02*
X120050000Y-111250000D01*
D24*
X109400000Y-114800000D02*
X102495000Y-114800000D01*
X109650000Y-114550000D02*
X109400000Y-114800000D01*
X102495000Y-114800000D02*
X101600000Y-113905000D01*
X109650000Y-113400000D02*
X109650000Y-114550000D01*
D25*
X116250000Y-113500000D02*
X116350000Y-113500000D01*
X116350000Y-113500000D02*
X117150000Y-112700000D01*
X114700000Y-113900000D02*
X115100000Y-113500000D01*
X115100000Y-113500000D02*
X116250000Y-113500000D01*
X117850000Y-113000000D02*
X117850000Y-112850000D01*
X117850000Y-112850000D02*
X117700000Y-112700000D01*
X117700000Y-112700000D02*
X117150000Y-112700000D01*
X117850000Y-113000000D02*
X117850000Y-113650000D01*
X119450000Y-114000000D02*
X118200000Y-114000000D01*
X117850000Y-113650000D02*
X118200000Y-114000000D01*
X124100000Y-112800000D02*
X124100000Y-111850000D01*
D24*
X109650000Y-114550000D02*
X109900000Y-114800000D01*
X109900000Y-114800000D02*
X110700000Y-114800000D01*
X145900000Y-113500000D02*
X143570000Y-113500000D01*
D25*
X124100000Y-109050000D02*
X117950000Y-109050000D01*
X117950000Y-109050000D02*
X117150000Y-109850000D01*
X109650000Y-113750000D02*
X109650000Y-113400000D01*
X118700000Y-111250000D02*
X118200000Y-111250000D01*
X118200000Y-111250000D02*
X117950000Y-111000000D01*
X117950000Y-111000000D02*
X117950000Y-110650000D01*
X117950000Y-110650000D02*
X117150000Y-109850000D01*
X127200000Y-113500000D02*
X127463604Y-113500000D01*
X126700000Y-113500000D02*
X127200000Y-113500000D01*
X142900000Y-113710000D02*
X143340000Y-113270000D01*
X143570000Y-113500000D02*
X143340000Y-113270000D01*
X127463604Y-113500000D02*
X127849911Y-113113693D01*
X127463604Y-113500000D02*
X127849911Y-113113693D01*
X127849911Y-113113693D02*
X127849911Y-113150089D01*
X134500000Y-112650000D02*
X134500000Y-111150000D01*
X134500000Y-111150000D02*
X134550000Y-111100000D01*
X136923121Y-114064952D02*
X136498857Y-114064952D01*
X137465048Y-114064952D02*
X136923121Y-114064952D01*
X138260000Y-113270000D02*
X137465048Y-114064952D01*
X102765000Y-111365000D02*
X102750000Y-111350000D01*
X102450000Y-110100000D02*
X101605000Y-110100000D01*
X102750000Y-110400000D02*
X102450000Y-110100000D01*
X102750000Y-111350000D02*
X102750000Y-110400000D01*
X101605000Y-110100000D02*
X101600000Y-110095000D01*
X103300000Y-111900000D02*
X102765000Y-111365000D01*
X102765000Y-111365000D02*
X101600000Y-111365000D01*
X135200000Y-109900000D02*
X135200000Y-109800000D01*
X135200000Y-109800000D02*
X135600000Y-109400000D01*
X135200000Y-109900000D02*
X134550000Y-109900000D01*
X134550000Y-109900000D02*
X134550000Y-109350002D01*
X134550000Y-109350002D02*
X134499998Y-109300000D01*
X134499998Y-109300000D02*
X132300000Y-109300000D01*
X132300000Y-109300000D02*
X131031891Y-110568109D01*
X134550000Y-109900000D02*
X134550000Y-111100000D01*
X121200000Y-112900000D02*
X121200000Y-112800000D01*
X120650000Y-112250000D02*
X119800000Y-112250000D01*
X119775000Y-112275000D02*
X119800000Y-112250000D01*
X121200000Y-112800000D02*
X120650000Y-112250000D01*
X121200000Y-112900000D02*
X121600000Y-112900000D01*
X121600000Y-112900000D02*
X121950000Y-112550000D01*
X121950000Y-112550000D02*
X121950000Y-110000000D01*
X121950000Y-113250000D02*
X121950000Y-114000000D01*
X121600000Y-112900000D02*
X121950000Y-113250000D01*
X101600000Y-110095000D02*
X102195000Y-110095000D01*
X119775000Y-112275000D02*
X119775000Y-111975000D01*
X119550000Y-111750000D02*
X118700000Y-111750000D01*
X119775000Y-111975000D02*
X119550000Y-111750000D01*
X119300000Y-112750000D02*
X119775000Y-112275000D01*
X119300000Y-112750000D02*
X118700000Y-112750000D01*
X125150000Y-113700000D02*
X125150000Y-113850000D01*
X125150000Y-113850000D02*
X124700002Y-114299998D01*
X122249998Y-114299998D02*
X121950000Y-114000000D01*
X124700002Y-114299998D02*
X122249998Y-114299998D01*
X114850000Y-109850000D02*
X116050000Y-109850000D01*
X114800000Y-109800000D02*
X114850000Y-109850000D01*
X116050000Y-109850000D02*
X116050000Y-111250000D01*
X116050000Y-111250000D02*
X116050000Y-112600000D01*
X128168109Y-113431891D02*
X127500000Y-114100000D01*
X127500000Y-114100000D02*
X127300000Y-114100000D01*
X133450000Y-109900000D02*
X132336396Y-109900000D01*
X132336396Y-109900000D02*
X131350089Y-110886307D01*
X117150000Y-111250000D02*
X117250000Y-111250000D01*
X117250000Y-111250000D02*
X117850000Y-111850000D01*
X117850000Y-111850000D02*
X117850000Y-112100000D01*
X117850000Y-112100000D02*
X118000000Y-112250000D01*
X118000000Y-112250000D02*
X118700000Y-112250000D01*
X124050000Y-113700000D02*
X123750000Y-113700000D01*
X123750000Y-113700000D02*
X123500000Y-113450000D01*
X122700000Y-112750000D02*
X123250000Y-112750000D01*
X123500000Y-113000000D02*
X123500000Y-113450000D01*
X123250000Y-112750000D02*
X123500000Y-113000000D01*
X110700000Y-112000000D02*
X110100000Y-112000000D01*
X112450000Y-112000000D02*
X110700000Y-112000000D01*
X109650000Y-111550000D02*
X109650000Y-110400000D01*
X110100000Y-112000000D02*
X109650000Y-111550000D01*
X109650000Y-110950000D02*
X109650000Y-110500000D01*
X112450000Y-110500000D02*
X110750000Y-110500000D01*
X112450000Y-113500000D02*
X110750000Y-113500000D01*
X131986485Y-112477297D02*
X131986485Y-112486485D01*
X131986485Y-112486485D02*
X133900000Y-114400000D01*
X133900000Y-114400000D02*
X134100000Y-114400000D01*
X105535000Y-111365000D02*
X105000000Y-111900000D01*
X105535000Y-111365000D02*
X107000000Y-111365000D01*
X139550000Y-112600000D02*
X140100000Y-112050000D01*
X140100000Y-112050000D02*
X141550000Y-112050000D01*
X141550000Y-112050000D02*
X142870000Y-110730000D01*
X143340000Y-110730000D02*
X142870000Y-110730000D01*
X134100000Y-114400000D02*
X134350000Y-114650000D01*
X134000000Y-114400000D02*
X134100000Y-114400000D01*
X139550000Y-113900000D02*
X139550000Y-112600000D01*
X138800000Y-114650000D02*
X139550000Y-113900000D01*
X138800000Y-114650000D02*
X134350000Y-114650000D01*
X133930000Y-113490000D02*
X133930000Y-113466218D01*
X133930000Y-113466218D02*
X131986485Y-111522703D01*
X136490000Y-113490000D02*
X133930000Y-113490000D01*
X136670000Y-113310000D02*
X136490000Y-113490000D01*
X136670000Y-113080000D02*
X136670000Y-113310000D01*
X137700000Y-112050000D02*
X136670000Y-113080000D01*
X137700000Y-111900000D02*
X137700000Y-112050000D01*
X139400000Y-111900000D02*
X137700000Y-111900000D01*
X107000000Y-113905000D02*
X105005000Y-113905000D01*
X105005000Y-113905000D02*
X105000000Y-113900000D01*
X139400000Y-111500000D02*
X140170000Y-110730000D01*
X139400000Y-111900000D02*
X139400000Y-111500000D01*
X140170000Y-110730000D02*
X140800000Y-110730000D01*
X139300000Y-115200000D02*
X134072792Y-115200000D01*
X140800000Y-113700000D02*
X139300000Y-115200000D01*
X140800000Y-113270000D02*
X140800000Y-113700000D01*
X134072792Y-115200000D02*
X131668287Y-112795495D01*
X127400000Y-109800000D02*
X127200000Y-109800000D01*
X127400000Y-109800000D02*
X128168109Y-110568109D01*
X136800000Y-111900000D02*
X137970000Y-110730000D01*
X137970000Y-110730000D02*
X138260000Y-110730000D01*
X136800000Y-111900000D02*
X136800000Y-111690000D01*
X138260000Y-110730000D02*
X138260000Y-110840000D01*
X136100000Y-110250000D02*
X136250000Y-110250000D01*
X136250000Y-110250000D02*
X136900000Y-109600000D01*
X136900000Y-109600000D02*
X136900000Y-109400000D01*
X98965000Y-112635000D02*
X101600000Y-112635000D01*
X98500000Y-113900000D02*
X98500000Y-113100000D01*
X98500000Y-113100000D02*
X98965000Y-112635000D01*
X145900000Y-110500000D02*
X145900000Y-109300000D01*
X145400000Y-108800000D02*
X145900000Y-109300000D01*
X140400000Y-108800000D02*
X145400000Y-108800000D01*
X139700000Y-109500000D02*
X140400000Y-108800000D01*
X127363602Y-110399998D02*
X126899998Y-110399998D01*
X126899998Y-110399998D02*
X126400000Y-109900000D01*
X127363602Y-110399998D02*
X127849911Y-110886307D01*
X145900000Y-110500000D02*
X145900000Y-109850000D01*
X144400000Y-109500000D02*
X142050000Y-109500000D01*
X144550000Y-109650000D02*
X144400000Y-109500000D01*
X144550000Y-111550000D02*
X144550000Y-109650000D01*
X142050000Y-109500000D02*
X142000000Y-109450000D01*
X144550000Y-111550000D02*
X145000000Y-112000000D01*
X127531713Y-111204505D02*
X127127208Y-110800000D01*
X125600000Y-109900000D02*
X125650000Y-109900000D01*
X125600000Y-110600000D02*
X125600000Y-109900000D01*
X125800000Y-110800000D02*
X125600000Y-110600000D01*
X127127208Y-110800000D02*
X125800000Y-110800000D01*
X145900000Y-112000000D02*
X145000000Y-112000000D01*
X127650000Y-108750000D02*
X128804505Y-109904505D01*
X122700000Y-110750000D02*
X122700000Y-110300000D01*
X123500000Y-109950000D02*
X124100000Y-109950000D01*
X123050000Y-109950000D02*
X123500000Y-109950000D01*
X122700000Y-110300000D02*
X123050000Y-109950000D01*
X128804505Y-109931713D02*
X128804505Y-109904505D01*
X124100000Y-109950000D02*
X125300000Y-108750000D01*
X125300000Y-108750000D02*
X127650000Y-108750000D01*
X128486307Y-110236309D02*
X127400000Y-109150002D01*
X125499998Y-109150002D02*
X127400000Y-109150002D01*
X124850000Y-109800000D02*
X125499998Y-109150002D01*
X128486307Y-110249911D02*
X128486307Y-110236309D01*
X124100000Y-110950000D02*
X124400000Y-110950000D01*
X124400000Y-110950000D02*
X124850000Y-110500000D01*
X124850000Y-110500000D02*
X124850000Y-109800000D01*
X124100000Y-110950000D02*
X123750000Y-110950000D01*
X123450000Y-111250000D02*
X122700000Y-111250000D01*
X123750000Y-110950000D02*
X123450000Y-111250000D01*
X113350000Y-113500000D02*
X113350000Y-114750000D01*
X115700000Y-114700000D02*
X125200000Y-114700000D01*
X115700000Y-114700000D02*
X115350000Y-114350000D01*
X126790812Y-112900000D02*
X127213515Y-112477297D01*
X126000000Y-112900000D02*
X126790812Y-112900000D01*
X125800000Y-113100000D02*
X126000000Y-112900000D01*
X125800000Y-114100000D02*
X125800000Y-113100000D01*
X125200000Y-114700000D02*
X125800000Y-114100000D01*
X127213515Y-112477297D02*
X127213515Y-112486485D01*
X115200000Y-110900000D02*
X115200000Y-112800000D01*
X115200000Y-110900000D02*
X114800000Y-110500000D01*
X114800000Y-110500000D02*
X113350000Y-110500000D01*
X113400000Y-110500000D02*
X113350000Y-110500000D01*
X129063515Y-114386485D02*
X128300000Y-115150000D01*
X114350000Y-115150000D02*
X128300000Y-115150000D01*
X114100000Y-114900000D02*
X114350000Y-115150000D01*
X114100000Y-113400000D02*
X114100000Y-114900000D01*
X114400000Y-113100000D02*
X114100000Y-113400000D01*
X114900000Y-113100000D02*
X114400000Y-113100000D01*
X115200000Y-112800000D02*
X114900000Y-113100000D01*
X129122703Y-114386485D02*
X129063515Y-114386485D01*
X130850000Y-114900000D02*
X130950000Y-115000000D01*
X130600000Y-114900000D02*
X130850000Y-114900000D01*
X130086485Y-114386485D02*
X130600000Y-114900000D01*
X130077297Y-114386485D02*
X130086485Y-114386485D01*
X113900000Y-112000000D02*
X113350000Y-112000000D01*
X114350000Y-112450000D02*
X113900000Y-112000000D01*
X132500000Y-114350000D02*
X132450000Y-114400000D01*
X131363693Y-113113693D02*
X132500000Y-114250000D01*
X132500000Y-114250000D02*
X132500000Y-114350000D01*
X105265000Y-112635000D02*
X105000000Y-112900000D01*
X105265000Y-112635000D02*
X107000000Y-112635000D01*
X131350089Y-113113693D02*
X131363693Y-113113693D01*
X120000000Y-112900000D02*
X119650000Y-113250000D01*
X118700000Y-113250000D02*
X119650000Y-113250000D01*
X126627297Y-111522703D02*
X125800000Y-112350000D01*
X127213515Y-111522703D02*
X126627297Y-111522703D01*
X125450000Y-112350000D02*
X125000000Y-112800000D01*
X125800000Y-112350000D02*
X125450000Y-112350000D01*
X135900000Y-112020000D02*
X136100000Y-111820000D01*
X136100000Y-111820000D02*
X136100000Y-111150000D01*
X135900000Y-112650000D02*
X135900000Y-112020000D01*
X136100000Y-111150000D02*
X136250000Y-111150000D01*
X136250000Y-111150000D02*
X137500000Y-109900000D01*
X132163604Y-108800000D02*
X130713693Y-110249911D01*
X137200000Y-108800000D02*
X132163604Y-108800000D01*
X137500000Y-109100000D02*
X137200000Y-108800000D01*
X137500000Y-109900000D02*
X137500000Y-109100000D01*
M02*
