G04 #@! TF.FileFunction,Paste,Top*
%FSLAX46Y46*%
G04 Gerber Fmt 4.6, Leading zero omitted, Abs format (unit mm)*
G04 Created by KiCad (PCBNEW (2016-02-18 BZR 6566)-product) date Sunday, 27 March 2016 20:39:01*
%MOMM*%
G01*
G04 APERTURE LIST*
%ADD10C,0.100000*%
%ADD11R,2.000000X1.000000*%
%ADD12R,0.350000X0.800000*%
%ADD13R,0.800000X0.350000*%
%ADD14R,1.550000X0.600000*%
%ADD15R,0.400000X0.600000*%
%ADD16R,0.600000X0.400000*%
%ADD17R,0.600000X0.500000*%
%ADD18R,1.100000X1.500000*%
%ADD19R,0.600000X0.700000*%
G04 APERTURE END LIST*
D10*
D11*
X145900000Y-113500000D03*
X145900000Y-110500000D03*
X145900000Y-112000000D03*
D12*
X121950000Y-110000000D03*
X121450000Y-110000000D03*
X120950000Y-110000000D03*
X120450000Y-110000000D03*
X119950000Y-110000000D03*
X119450000Y-110000000D03*
D13*
X118700000Y-110750000D03*
X118700000Y-111250000D03*
X118700000Y-111750000D03*
X118700000Y-112250000D03*
X118700000Y-112750000D03*
X118700000Y-113250000D03*
D12*
X119450000Y-114000000D03*
X119950000Y-114000000D03*
X120450000Y-114000000D03*
X120950000Y-114000000D03*
X121450000Y-114000000D03*
X121950000Y-114000000D03*
D13*
X122700000Y-113250000D03*
X122700000Y-112750000D03*
X122700000Y-112250000D03*
X122700000Y-111750000D03*
X122700000Y-111250000D03*
X122700000Y-110750000D03*
D14*
X101600000Y-110095000D03*
X101600000Y-111365000D03*
X101600000Y-112635000D03*
X101600000Y-113905000D03*
X107000000Y-113905000D03*
X107000000Y-112635000D03*
X107000000Y-111365000D03*
X107000000Y-110095000D03*
D10*
G36*
X127008454Y-112837921D02*
X126852891Y-112682358D01*
X127418576Y-112116673D01*
X127574139Y-112272236D01*
X127008454Y-112837921D01*
X127008454Y-112837921D01*
G37*
G36*
X127326652Y-113156119D02*
X127171089Y-113000556D01*
X127736774Y-112434871D01*
X127892337Y-112590434D01*
X127326652Y-113156119D01*
X127326652Y-113156119D01*
G37*
G36*
X127644850Y-113474317D02*
X127489287Y-113318754D01*
X128054972Y-112753069D01*
X128210535Y-112908632D01*
X127644850Y-113474317D01*
X127644850Y-113474317D01*
G37*
G36*
X127963048Y-113792515D02*
X127807485Y-113636952D01*
X128373170Y-113071267D01*
X128528733Y-113226830D01*
X127963048Y-113792515D01*
X127963048Y-113792515D01*
G37*
G36*
X128281246Y-114110713D02*
X128125683Y-113955150D01*
X128691368Y-113389465D01*
X128846931Y-113545028D01*
X128281246Y-114110713D01*
X128281246Y-114110713D01*
G37*
G36*
X128599444Y-114428911D02*
X128443881Y-114273348D01*
X129009566Y-113707663D01*
X129165129Y-113863226D01*
X128599444Y-114428911D01*
X128599444Y-114428911D01*
G37*
G36*
X128917642Y-114747109D02*
X128762079Y-114591546D01*
X129327764Y-114025861D01*
X129483327Y-114181424D01*
X128917642Y-114747109D01*
X128917642Y-114747109D01*
G37*
G36*
X130437921Y-114591546D02*
X130282358Y-114747109D01*
X129716673Y-114181424D01*
X129872236Y-114025861D01*
X130437921Y-114591546D01*
X130437921Y-114591546D01*
G37*
G36*
X130756119Y-114273348D02*
X130600556Y-114428911D01*
X130034871Y-113863226D01*
X130190434Y-113707663D01*
X130756119Y-114273348D01*
X130756119Y-114273348D01*
G37*
G36*
X131074317Y-113955150D02*
X130918754Y-114110713D01*
X130353069Y-113545028D01*
X130508632Y-113389465D01*
X131074317Y-113955150D01*
X131074317Y-113955150D01*
G37*
G36*
X131392515Y-113636952D02*
X131236952Y-113792515D01*
X130671267Y-113226830D01*
X130826830Y-113071267D01*
X131392515Y-113636952D01*
X131392515Y-113636952D01*
G37*
G36*
X131710713Y-113318754D02*
X131555150Y-113474317D01*
X130989465Y-112908632D01*
X131145028Y-112753069D01*
X131710713Y-113318754D01*
X131710713Y-113318754D01*
G37*
G36*
X132028911Y-113000556D02*
X131873348Y-113156119D01*
X131307663Y-112590434D01*
X131463226Y-112434871D01*
X132028911Y-113000556D01*
X132028911Y-113000556D01*
G37*
G36*
X132347109Y-112682358D02*
X132191546Y-112837921D01*
X131625861Y-112272236D01*
X131781424Y-112116673D01*
X132347109Y-112682358D01*
X132347109Y-112682358D01*
G37*
G36*
X131781424Y-111883327D02*
X131625861Y-111727764D01*
X132191546Y-111162079D01*
X132347109Y-111317642D01*
X131781424Y-111883327D01*
X131781424Y-111883327D01*
G37*
G36*
X131463226Y-111565129D02*
X131307663Y-111409566D01*
X131873348Y-110843881D01*
X132028911Y-110999444D01*
X131463226Y-111565129D01*
X131463226Y-111565129D01*
G37*
G36*
X131145028Y-111246931D02*
X130989465Y-111091368D01*
X131555150Y-110525683D01*
X131710713Y-110681246D01*
X131145028Y-111246931D01*
X131145028Y-111246931D01*
G37*
G36*
X130826830Y-110928733D02*
X130671267Y-110773170D01*
X131236952Y-110207485D01*
X131392515Y-110363048D01*
X130826830Y-110928733D01*
X130826830Y-110928733D01*
G37*
G36*
X130508632Y-110610535D02*
X130353069Y-110454972D01*
X130918754Y-109889287D01*
X131074317Y-110044850D01*
X130508632Y-110610535D01*
X130508632Y-110610535D01*
G37*
G36*
X130190434Y-110292337D02*
X130034871Y-110136774D01*
X130600556Y-109571089D01*
X130756119Y-109726652D01*
X130190434Y-110292337D01*
X130190434Y-110292337D01*
G37*
G36*
X129872236Y-109974139D02*
X129716673Y-109818576D01*
X130282358Y-109252891D01*
X130437921Y-109408454D01*
X129872236Y-109974139D01*
X129872236Y-109974139D01*
G37*
G36*
X129483327Y-109818576D02*
X129327764Y-109974139D01*
X128762079Y-109408454D01*
X128917642Y-109252891D01*
X129483327Y-109818576D01*
X129483327Y-109818576D01*
G37*
G36*
X129165129Y-110136774D02*
X129009566Y-110292337D01*
X128443881Y-109726652D01*
X128599444Y-109571089D01*
X129165129Y-110136774D01*
X129165129Y-110136774D01*
G37*
G36*
X128846931Y-110454972D02*
X128691368Y-110610535D01*
X128125683Y-110044850D01*
X128281246Y-109889287D01*
X128846931Y-110454972D01*
X128846931Y-110454972D01*
G37*
G36*
X128528733Y-110773170D02*
X128373170Y-110928733D01*
X127807485Y-110363048D01*
X127963048Y-110207485D01*
X128528733Y-110773170D01*
X128528733Y-110773170D01*
G37*
G36*
X128210535Y-111091368D02*
X128054972Y-111246931D01*
X127489287Y-110681246D01*
X127644850Y-110525683D01*
X128210535Y-111091368D01*
X128210535Y-111091368D01*
G37*
G36*
X127892337Y-111409566D02*
X127736774Y-111565129D01*
X127171089Y-110999444D01*
X127326652Y-110843881D01*
X127892337Y-111409566D01*
X127892337Y-111409566D01*
G37*
G36*
X127574139Y-111727764D02*
X127418576Y-111883327D01*
X126852891Y-111317642D01*
X127008454Y-111162079D01*
X127574139Y-111727764D01*
X127574139Y-111727764D01*
G37*
G36*
X130448528Y-112848528D02*
X129600000Y-112000000D01*
X130448528Y-111151472D01*
X131297056Y-112000000D01*
X130448528Y-112848528D01*
X130448528Y-112848528D01*
G37*
G36*
X129600000Y-112000000D02*
X128751472Y-111151472D01*
X129600000Y-110302944D01*
X130448528Y-111151472D01*
X129600000Y-112000000D01*
X129600000Y-112000000D01*
G37*
G36*
X129600000Y-113697056D02*
X128751472Y-112848528D01*
X129600000Y-112000000D01*
X130448528Y-112848528D01*
X129600000Y-113697056D01*
X129600000Y-113697056D01*
G37*
G36*
X128751472Y-112848528D02*
X127902944Y-112000000D01*
X128751472Y-111151472D01*
X129600000Y-112000000D01*
X128751472Y-112848528D01*
X128751472Y-112848528D01*
G37*
D15*
X113350000Y-112000000D03*
X112450000Y-112000000D03*
X113350000Y-110500000D03*
X112450000Y-110500000D03*
X113350000Y-113500000D03*
X112450000Y-113500000D03*
D16*
X124100000Y-111850000D03*
X124100000Y-110950000D03*
X124100000Y-109050000D03*
X124100000Y-109950000D03*
D17*
X125150000Y-113700000D03*
X124050000Y-113700000D03*
X116050000Y-111250000D03*
X117150000Y-111250000D03*
X116050000Y-112700000D03*
X117150000Y-112700000D03*
X116050000Y-109850000D03*
X117150000Y-109850000D03*
X133450000Y-109900000D03*
X134550000Y-109900000D03*
X133450000Y-111100000D03*
X134550000Y-111100000D03*
D18*
X109650000Y-113400000D03*
X109650000Y-110400000D03*
X111150000Y-110400000D03*
X111150000Y-113400000D03*
D16*
X136100000Y-110250000D03*
X136100000Y-111150000D03*
D19*
X134500000Y-112650000D03*
X135900000Y-112650000D03*
M02*
