G04 #@! TF.FileFunction,Soldermask,Top*
%FSLAX46Y46*%
G04 Gerber Fmt 4.6, Leading zero omitted, Abs format (unit mm)*
G04 Created by KiCad (PCBNEW (2016-02-18 BZR 6566)-product) date Sunday, 27 March 2016 20:39:01*
%MOMM*%
G01*
G04 APERTURE LIST*
%ADD10C,0.100000*%
%ADD11R,2.400000X1.400000*%
%ADD12R,0.750000X1.200000*%
%ADD13R,1.200000X0.750000*%
%ADD14R,1.950000X1.000000*%
%ADD15R,0.800000X1.000000*%
%ADD16R,1.000000X0.800000*%
%ADD17R,3.400000X1.600000*%
%ADD18R,1.000000X0.900000*%
%ADD19R,1.500000X1.900000*%
%ADD20R,1.924000X1.924000*%
%ADD21C,1.924000*%
%ADD22R,1.000000X1.100000*%
G04 APERTURE END LIST*
D10*
D11*
X145900000Y-113500000D03*
X145900000Y-110500000D03*
X145900000Y-112000000D03*
D12*
X121950000Y-110000000D03*
X121450000Y-110000000D03*
X120950000Y-110000000D03*
X120450000Y-110000000D03*
X119950000Y-110000000D03*
X119450000Y-110000000D03*
D13*
X118700000Y-110750000D03*
X118700000Y-111250000D03*
X118700000Y-111750000D03*
X118700000Y-112250000D03*
X118700000Y-112750000D03*
X118700000Y-113250000D03*
D12*
X119450000Y-114000000D03*
X119950000Y-114000000D03*
X120450000Y-114000000D03*
X120950000Y-114000000D03*
X121450000Y-114000000D03*
X121950000Y-114000000D03*
D13*
X122700000Y-113250000D03*
X122700000Y-112750000D03*
X122700000Y-112250000D03*
X122700000Y-111750000D03*
X122700000Y-111250000D03*
X122700000Y-110750000D03*
D14*
X101600000Y-110095000D03*
X101600000Y-111365000D03*
X101600000Y-112635000D03*
X101600000Y-113905000D03*
X107000000Y-113905000D03*
X107000000Y-112635000D03*
X107000000Y-111365000D03*
X107000000Y-110095000D03*
D10*
G36*
X127008454Y-113120764D02*
X126570048Y-112682358D01*
X127418576Y-111833830D01*
X127856982Y-112272236D01*
X127008454Y-113120764D01*
X127008454Y-113120764D01*
G37*
G36*
X127326652Y-113438962D02*
X126888246Y-113000556D01*
X127736774Y-112152028D01*
X128175180Y-112590434D01*
X127326652Y-113438962D01*
X127326652Y-113438962D01*
G37*
G36*
X127644850Y-113757160D02*
X127206444Y-113318754D01*
X128054972Y-112470226D01*
X128493378Y-112908632D01*
X127644850Y-113757160D01*
X127644850Y-113757160D01*
G37*
G36*
X127963048Y-114075358D02*
X127524642Y-113636952D01*
X128373170Y-112788424D01*
X128811576Y-113226830D01*
X127963048Y-114075358D01*
X127963048Y-114075358D01*
G37*
G36*
X128281246Y-114393556D02*
X127842840Y-113955150D01*
X128691368Y-113106622D01*
X129129774Y-113545028D01*
X128281246Y-114393556D01*
X128281246Y-114393556D01*
G37*
G36*
X128599444Y-114711754D02*
X128161038Y-114273348D01*
X129009566Y-113424820D01*
X129447972Y-113863226D01*
X128599444Y-114711754D01*
X128599444Y-114711754D01*
G37*
G36*
X128917642Y-115029952D02*
X128479236Y-114591546D01*
X129327764Y-113743018D01*
X129766170Y-114181424D01*
X128917642Y-115029952D01*
X128917642Y-115029952D01*
G37*
G36*
X130720764Y-114591546D02*
X130282358Y-115029952D01*
X129433830Y-114181424D01*
X129872236Y-113743018D01*
X130720764Y-114591546D01*
X130720764Y-114591546D01*
G37*
G36*
X131038962Y-114273348D02*
X130600556Y-114711754D01*
X129752028Y-113863226D01*
X130190434Y-113424820D01*
X131038962Y-114273348D01*
X131038962Y-114273348D01*
G37*
G36*
X131357160Y-113955150D02*
X130918754Y-114393556D01*
X130070226Y-113545028D01*
X130508632Y-113106622D01*
X131357160Y-113955150D01*
X131357160Y-113955150D01*
G37*
G36*
X131675358Y-113636952D02*
X131236952Y-114075358D01*
X130388424Y-113226830D01*
X130826830Y-112788424D01*
X131675358Y-113636952D01*
X131675358Y-113636952D01*
G37*
G36*
X131993556Y-113318754D02*
X131555150Y-113757160D01*
X130706622Y-112908632D01*
X131145028Y-112470226D01*
X131993556Y-113318754D01*
X131993556Y-113318754D01*
G37*
G36*
X132311754Y-113000556D02*
X131873348Y-113438962D01*
X131024820Y-112590434D01*
X131463226Y-112152028D01*
X132311754Y-113000556D01*
X132311754Y-113000556D01*
G37*
G36*
X132629952Y-112682358D02*
X132191546Y-113120764D01*
X131343018Y-112272236D01*
X131781424Y-111833830D01*
X132629952Y-112682358D01*
X132629952Y-112682358D01*
G37*
G36*
X131781424Y-112166170D02*
X131343018Y-111727764D01*
X132191546Y-110879236D01*
X132629952Y-111317642D01*
X131781424Y-112166170D01*
X131781424Y-112166170D01*
G37*
G36*
X131463226Y-111847972D02*
X131024820Y-111409566D01*
X131873348Y-110561038D01*
X132311754Y-110999444D01*
X131463226Y-111847972D01*
X131463226Y-111847972D01*
G37*
G36*
X131145028Y-111529774D02*
X130706622Y-111091368D01*
X131555150Y-110242840D01*
X131993556Y-110681246D01*
X131145028Y-111529774D01*
X131145028Y-111529774D01*
G37*
G36*
X130826830Y-111211576D02*
X130388424Y-110773170D01*
X131236952Y-109924642D01*
X131675358Y-110363048D01*
X130826830Y-111211576D01*
X130826830Y-111211576D01*
G37*
G36*
X130508632Y-110893378D02*
X130070226Y-110454972D01*
X130918754Y-109606444D01*
X131357160Y-110044850D01*
X130508632Y-110893378D01*
X130508632Y-110893378D01*
G37*
G36*
X130190434Y-110575180D02*
X129752028Y-110136774D01*
X130600556Y-109288246D01*
X131038962Y-109726652D01*
X130190434Y-110575180D01*
X130190434Y-110575180D01*
G37*
G36*
X129872236Y-110256982D02*
X129433830Y-109818576D01*
X130282358Y-108970048D01*
X130720764Y-109408454D01*
X129872236Y-110256982D01*
X129872236Y-110256982D01*
G37*
G36*
X129766170Y-109818576D02*
X129327764Y-110256982D01*
X128479236Y-109408454D01*
X128917642Y-108970048D01*
X129766170Y-109818576D01*
X129766170Y-109818576D01*
G37*
G36*
X129447972Y-110136774D02*
X129009566Y-110575180D01*
X128161038Y-109726652D01*
X128599444Y-109288246D01*
X129447972Y-110136774D01*
X129447972Y-110136774D01*
G37*
G36*
X129129774Y-110454972D02*
X128691368Y-110893378D01*
X127842840Y-110044850D01*
X128281246Y-109606444D01*
X129129774Y-110454972D01*
X129129774Y-110454972D01*
G37*
G36*
X128811576Y-110773170D02*
X128373170Y-111211576D01*
X127524642Y-110363048D01*
X127963048Y-109924642D01*
X128811576Y-110773170D01*
X128811576Y-110773170D01*
G37*
G36*
X128493378Y-111091368D02*
X128054972Y-111529774D01*
X127206444Y-110681246D01*
X127644850Y-110242840D01*
X128493378Y-111091368D01*
X128493378Y-111091368D01*
G37*
G36*
X128175180Y-111409566D02*
X127736774Y-111847972D01*
X126888246Y-110999444D01*
X127326652Y-110561038D01*
X128175180Y-111409566D01*
X128175180Y-111409566D01*
G37*
G36*
X127856982Y-111727764D02*
X127418576Y-112166170D01*
X126570048Y-111317642D01*
X127008454Y-110879236D01*
X127856982Y-111727764D01*
X127856982Y-111727764D01*
G37*
G36*
X130448528Y-113131371D02*
X129317157Y-112000000D01*
X130448528Y-110868629D01*
X131579899Y-112000000D01*
X130448528Y-113131371D01*
X130448528Y-113131371D01*
G37*
G36*
X129600000Y-112282843D02*
X128468629Y-111151472D01*
X129600000Y-110020101D01*
X130731371Y-111151472D01*
X129600000Y-112282843D01*
X129600000Y-112282843D01*
G37*
G36*
X129600000Y-113979899D02*
X128468629Y-112848528D01*
X129600000Y-111717157D01*
X130731371Y-112848528D01*
X129600000Y-113979899D01*
X129600000Y-113979899D01*
G37*
G36*
X128751472Y-113131371D02*
X127620101Y-112000000D01*
X128751472Y-110868629D01*
X129882843Y-112000000D01*
X128751472Y-113131371D01*
X128751472Y-113131371D01*
G37*
D15*
X113350000Y-112000000D03*
X112450000Y-112000000D03*
X113350000Y-110500000D03*
X112450000Y-110500000D03*
X113350000Y-113500000D03*
X112450000Y-113500000D03*
D16*
X124100000Y-111850000D03*
X124100000Y-110950000D03*
X124100000Y-109050000D03*
X124100000Y-109950000D03*
D17*
X98500000Y-110100000D03*
X98500000Y-113900000D03*
D18*
X125150000Y-113700000D03*
X124050000Y-113700000D03*
X116050000Y-111250000D03*
X117150000Y-111250000D03*
X116050000Y-112700000D03*
X117150000Y-112700000D03*
X116050000Y-109850000D03*
X117150000Y-109850000D03*
X133450000Y-109900000D03*
X134550000Y-109900000D03*
X133450000Y-111100000D03*
X134550000Y-111100000D03*
D19*
X109650000Y-113400000D03*
X109650000Y-110400000D03*
X111150000Y-110400000D03*
X111150000Y-113400000D03*
D20*
X143340000Y-110730000D03*
D21*
X143340000Y-113270000D03*
X140800000Y-110730000D03*
X140800000Y-113270000D03*
X138260000Y-110730000D03*
X138260000Y-113270000D03*
D16*
X136100000Y-110250000D03*
X136100000Y-111150000D03*
D22*
X134500000Y-112650000D03*
X135900000Y-112650000D03*
M02*
