G04 #@! TF.FileFunction,Copper,L3,Inr,Signal*
%FSLAX46Y46*%
G04 Gerber Fmt 4.6, Leading zero omitted, Abs format (unit mm)*
G04 Created by KiCad (PCBNEW (2016-02-18 BZR 6566)-product) date Sunday, 27 March 2016 20:39:01*
%MOMM*%
G01*
G04 APERTURE LIST*
%ADD10C,0.100000*%
%ADD11R,3.000000X1.200000*%
%ADD12C,0.600000*%
%ADD13C,0.250000*%
G04 APERTURE END LIST*
D10*
D11*
X98500000Y-110100000D03*
X98500000Y-113900000D03*
D12*
X142100000Y-115000000D03*
X133500000Y-112200000D03*
X120100000Y-111200000D03*
X114700000Y-113900000D03*
X124100000Y-112800000D03*
X110700000Y-114800000D03*
X126700000Y-113500000D03*
X136498857Y-114064952D03*
X103300000Y-111900000D03*
X135600000Y-109400000D03*
X121200000Y-112900000D03*
X103300000Y-113900000D03*
X144600000Y-115000000D03*
X145400000Y-115000000D03*
X146200000Y-115000000D03*
X103300000Y-112900000D03*
X127300000Y-114100000D03*
X114800000Y-109800000D03*
X134100000Y-114400000D03*
X105000000Y-111900000D03*
X105000000Y-113900000D03*
X139400000Y-111900000D03*
X136800000Y-111900000D03*
X127200000Y-109800000D03*
X136900000Y-109400000D03*
X139700000Y-109500000D03*
X126400000Y-109900000D03*
X142000000Y-109450000D03*
X125600000Y-109900000D03*
X113350000Y-114750000D03*
X115350000Y-114350000D03*
X130950000Y-115000000D03*
X114350000Y-112450000D03*
X132450000Y-114400000D03*
X105000000Y-112900000D03*
X120000000Y-112900000D03*
X125000000Y-112800000D03*
D13*
X115700000Y-110700000D02*
X106200000Y-110700000D01*
X134100000Y-114400000D02*
X133500000Y-114400000D01*
X118600000Y-113600000D02*
X125050000Y-113600000D01*
X118600000Y-113600000D02*
X115700000Y-110700000D01*
X126250000Y-112400000D02*
X131500000Y-112400000D01*
X125050000Y-113600000D02*
X126250000Y-112400000D01*
X133500000Y-114400000D02*
X131500000Y-112400000D01*
X106200000Y-110700000D02*
X105000000Y-111900000D01*
X139400000Y-111900000D02*
X139400000Y-114100000D01*
X107100000Y-111800000D02*
X105000000Y-113900000D01*
X130400000Y-114350000D02*
X131300000Y-114350000D01*
X132000000Y-115050000D02*
X131300000Y-114350000D01*
X130200000Y-114550000D02*
X130400000Y-114350000D01*
X130000000Y-114700000D02*
X118100000Y-114700000D01*
X130150000Y-114550000D02*
X130000000Y-114700000D01*
X118100000Y-114700000D02*
X115200000Y-111800000D01*
X130200000Y-114550000D02*
X130150000Y-114550000D01*
X113900000Y-111800000D02*
X115200000Y-111800000D01*
X113900000Y-111800000D02*
X107100000Y-111800000D01*
X138450000Y-115050000D02*
X132000000Y-115050000D01*
X139400000Y-114100000D02*
X138450000Y-115050000D01*
X125500000Y-111900000D02*
X132000000Y-111900000D01*
X136800000Y-111900000D02*
X135700000Y-113000000D01*
X133100000Y-113000000D02*
X132000000Y-111900000D01*
X133200000Y-113000000D02*
X133100000Y-113000000D01*
X135700000Y-113000000D02*
X133200000Y-113000000D01*
X124900000Y-111200000D02*
X124900000Y-111300000D01*
X124900000Y-111300000D02*
X125500000Y-111900000D01*
X127200000Y-109800000D02*
X126600000Y-109200000D01*
X125300000Y-109200000D02*
X124900000Y-109600000D01*
X126600000Y-109200000D02*
X125300000Y-109200000D01*
X124900000Y-109600000D02*
X124900000Y-111200000D01*
X126400000Y-109900000D02*
X126950000Y-110450000D01*
X138750000Y-110450000D02*
X139700000Y-109500000D01*
X126950000Y-110450000D02*
X138750000Y-110450000D01*
X125600000Y-109900000D02*
X125600000Y-110800000D01*
X140350000Y-111100000D02*
X142000000Y-109450000D01*
X139800000Y-111100000D02*
X140350000Y-111100000D01*
X125900000Y-111100000D02*
X139800000Y-111100000D01*
X125600000Y-110800000D02*
X125900000Y-111100000D01*
X114950000Y-114750000D02*
X113350000Y-114750000D01*
X115350000Y-114350000D02*
X114950000Y-114750000D01*
X130800000Y-115150000D02*
X117050000Y-115150000D01*
X130950000Y-115000000D02*
X130800000Y-115150000D01*
X117050000Y-115150000D02*
X114350000Y-112450000D01*
X112800000Y-111200000D02*
X106700000Y-111200000D01*
X112800000Y-111200000D02*
X115400000Y-111200000D01*
X130900000Y-112850000D02*
X132450000Y-114400000D01*
X126500000Y-112850000D02*
X130900000Y-112850000D01*
X125300000Y-114050000D02*
X126500000Y-112850000D01*
X118250000Y-114050000D02*
X125300000Y-114050000D01*
X118250000Y-114050000D02*
X115400000Y-111200000D01*
X106700000Y-111200000D02*
X105000000Y-112900000D01*
X120000000Y-112900000D02*
X120000000Y-112200000D01*
X125000000Y-112415688D02*
X125000000Y-112800000D01*
X124284312Y-111700000D02*
X125000000Y-112415688D01*
X120500000Y-111700000D02*
X124284312Y-111700000D01*
X120000000Y-112200000D02*
X120500000Y-111700000D01*
X125000000Y-112800000D02*
X125000000Y-112900000D01*
M02*
