G04 #@! TF.FileFunction,Copper,L4,Bot,Mixed*
%FSLAX46Y46*%
G04 Gerber Fmt 4.6, Leading zero omitted, Abs format (unit mm)*
G04 Created by KiCad (PCBNEW 4.0.1-stable) date 29/01/2016 19:20:18*
%MOMM*%
G01*
G04 APERTURE LIST*
%ADD10C,0.100000*%
%ADD11C,0.150000*%
%ADD12C,0.300000*%
%ADD13C,0.400000*%
%ADD14R,2.000000X2.000000*%
%ADD15R,3.000000X1.200000*%
%ADD16R,4.000000X2.200000*%
%ADD17C,0.600000*%
%ADD18C,0.500000*%
%ADD19C,0.250000*%
%ADD20C,0.254000*%
G04 APERTURE END LIST*
D10*
D11*
X177002200Y-166007200D02*
X177002200Y-198007200D01*
X285002200Y-198007200D01*
X285002200Y-166007200D01*
X177002200Y-166007200D01*
D10*
D11*
X10000000Y-10000000D02*
X10000000Y-200007200D01*
X287002200Y-200007200D01*
X287002200Y-10000000D01*
X10000000Y-10000000D01*
D10*
D11*
X12000000Y-12000000D02*
X12000000Y-198007200D01*
X285002200Y-198007200D01*
X285002200Y-12000000D01*
X12000000Y-12000000D01*
D10*
D11*
X60000000Y-12000000D02*
X60000000Y-10000000D01*
D10*
D11*
X110000000Y-12000000D02*
X110000000Y-10000000D01*
D10*
D11*
X160000000Y-12000000D02*
X160000000Y-10000000D01*
D10*
D11*
X210000000Y-12000000D02*
X210000000Y-10000000D01*
D10*
D11*
X260000000Y-12000000D02*
X260000000Y-10000000D01*
D10*
D11*
X35990476Y-11588095D02*
X35247619Y-11588095D01*
X35619048Y-11588095D02*
X35619048Y-10288095D01*
X35495238Y-10473810D01*
X35371429Y-10597619D01*
X35247619Y-10659524D01*
D10*
D11*
X85247619Y-10411905D02*
X85309524Y-10350000D01*
X85433333Y-10288095D01*
X85742857Y-10288095D01*
X85866667Y-10350000D01*
X85928571Y-10411905D01*
X85990476Y-10535714D01*
X85990476Y-10659524D01*
X85928571Y-10845238D01*
X85185714Y-11588095D01*
X85990476Y-11588095D01*
D10*
D11*
X135185714Y-10288095D02*
X135990476Y-10288095D01*
X135557143Y-10783333D01*
X135742857Y-10783333D01*
X135866667Y-10845238D01*
X135928571Y-10907143D01*
X135990476Y-11030952D01*
X135990476Y-11340476D01*
X135928571Y-11464286D01*
X135866667Y-11526190D01*
X135742857Y-11588095D01*
X135371429Y-11588095D01*
X135247619Y-11526190D01*
X135185714Y-11464286D01*
D10*
D11*
X185866667Y-10721429D02*
X185866667Y-11588095D01*
X185557143Y-10226190D02*
X185247619Y-11154762D01*
X186052381Y-11154762D01*
D10*
D11*
X235928571Y-10288095D02*
X235309524Y-10288095D01*
X235247619Y-10907143D01*
X235309524Y-10845238D01*
X235433333Y-10783333D01*
X235742857Y-10783333D01*
X235866667Y-10845238D01*
X235928571Y-10907143D01*
X235990476Y-11030952D01*
X235990476Y-11340476D01*
X235928571Y-11464286D01*
X235866667Y-11526190D01*
X235742857Y-11588095D01*
X235433333Y-11588095D01*
X235309524Y-11526190D01*
X235247619Y-11464286D01*
D10*
D11*
X285866667Y-10288095D02*
X285619048Y-10288095D01*
X285495238Y-10350000D01*
X285433333Y-10411905D01*
X285309524Y-10597619D01*
X285247619Y-10845238D01*
X285247619Y-11340476D01*
X285309524Y-11464286D01*
X285371429Y-11526190D01*
X285495238Y-11588095D01*
X285742857Y-11588095D01*
X285866667Y-11526190D01*
X285928571Y-11464286D01*
X285990476Y-11340476D01*
X285990476Y-11030952D01*
X285928571Y-10907143D01*
X285866667Y-10845238D01*
X285742857Y-10783333D01*
X285495238Y-10783333D01*
X285371429Y-10845238D01*
X285309524Y-10907143D01*
X285247619Y-11030952D01*
D10*
D11*
X60000000Y-198007200D02*
X60000000Y-200007200D01*
D10*
D11*
X110000000Y-198007200D02*
X110000000Y-200007200D01*
D10*
D11*
X160000000Y-198007200D02*
X160000000Y-200007200D01*
D10*
D11*
X210000000Y-198007200D02*
X210000000Y-200007200D01*
D10*
D11*
X260000000Y-198007200D02*
X260000000Y-200007200D01*
D10*
D11*
X35990476Y-199595295D02*
X35247619Y-199595295D01*
X35619048Y-199595295D02*
X35619048Y-198295295D01*
X35495238Y-198481010D01*
X35371429Y-198604819D01*
X35247619Y-198666724D01*
D10*
D11*
X85247619Y-198419105D02*
X85309524Y-198357200D01*
X85433333Y-198295295D01*
X85742857Y-198295295D01*
X85866667Y-198357200D01*
X85928571Y-198419105D01*
X85990476Y-198542914D01*
X85990476Y-198666724D01*
X85928571Y-198852438D01*
X85185714Y-199595295D01*
X85990476Y-199595295D01*
D10*
D11*
X135185714Y-198295295D02*
X135990476Y-198295295D01*
X135557143Y-198790533D01*
X135742857Y-198790533D01*
X135866667Y-198852438D01*
X135928571Y-198914343D01*
X135990476Y-199038152D01*
X135990476Y-199347676D01*
X135928571Y-199471486D01*
X135866667Y-199533390D01*
X135742857Y-199595295D01*
X135371429Y-199595295D01*
X135247619Y-199533390D01*
X135185714Y-199471486D01*
D10*
D11*
X185866667Y-198728629D02*
X185866667Y-199595295D01*
X185557143Y-198233390D02*
X185247619Y-199161962D01*
X186052381Y-199161962D01*
D10*
D11*
X235928571Y-198295295D02*
X235309524Y-198295295D01*
X235247619Y-198914343D01*
X235309524Y-198852438D01*
X235433333Y-198790533D01*
X235742857Y-198790533D01*
X235866667Y-198852438D01*
X235928571Y-198914343D01*
X235990476Y-199038152D01*
X235990476Y-199347676D01*
X235928571Y-199471486D01*
X235866667Y-199533390D01*
X235742857Y-199595295D01*
X235433333Y-199595295D01*
X235309524Y-199533390D01*
X235247619Y-199471486D01*
D10*
D11*
X285866667Y-198295295D02*
X285619048Y-198295295D01*
X285495238Y-198357200D01*
X285433333Y-198419105D01*
X285309524Y-198604819D01*
X285247619Y-198852438D01*
X285247619Y-199347676D01*
X285309524Y-199471486D01*
X285371429Y-199533390D01*
X285495238Y-199595295D01*
X285742857Y-199595295D01*
X285866667Y-199533390D01*
X285928571Y-199471486D01*
X285990476Y-199347676D01*
X285990476Y-199038152D01*
X285928571Y-198914343D01*
X285866667Y-198852438D01*
X285742857Y-198790533D01*
X285495238Y-198790533D01*
X285371429Y-198852438D01*
X285309524Y-198914343D01*
X285247619Y-199038152D01*
D10*
D11*
X10000000Y-60000000D02*
X12000000Y-60000000D01*
D10*
D11*
X10000000Y-110000000D02*
X12000000Y-110000000D01*
D10*
D11*
X10000000Y-160000000D02*
X12000000Y-160000000D01*
D10*
D11*
X10690476Y-35216667D02*
X11309524Y-35216667D01*
X10566667Y-35588095D02*
X11000000Y-34288095D01*
X11433333Y-35588095D01*
D10*
D11*
X11092857Y-84907143D02*
X11278571Y-84969048D01*
X11340476Y-85030952D01*
X11402381Y-85154762D01*
X11402381Y-85340476D01*
X11340476Y-85464286D01*
X11278571Y-85526190D01*
X11154762Y-85588095D01*
X10659524Y-85588095D01*
X10659524Y-84288095D01*
X11092857Y-84288095D01*
X11216667Y-84350000D01*
X11278571Y-84411905D01*
X11340476Y-84535714D01*
X11340476Y-84659524D01*
X11278571Y-84783333D01*
X11216667Y-84845238D01*
X11092857Y-84907143D01*
X10659524Y-84907143D01*
D10*
D11*
X11402381Y-135464286D02*
X11340476Y-135526190D01*
X11154762Y-135588095D01*
X11030952Y-135588095D01*
X10845238Y-135526190D01*
X10721429Y-135402381D01*
X10659524Y-135278571D01*
X10597619Y-135030952D01*
X10597619Y-134845238D01*
X10659524Y-134597619D01*
X10721429Y-134473810D01*
X10845238Y-134350000D01*
X11030952Y-134288095D01*
X11154762Y-134288095D01*
X11340476Y-134350000D01*
X11402381Y-134411905D01*
D10*
D11*
X10659524Y-185588095D02*
X10659524Y-184288095D01*
X10969048Y-184288095D01*
X11154762Y-184350000D01*
X11278571Y-184473810D01*
X11340476Y-184597619D01*
X11402381Y-184845238D01*
X11402381Y-185030952D01*
X11340476Y-185278571D01*
X11278571Y-185402381D01*
X11154762Y-185526190D01*
X10969048Y-185588095D01*
X10659524Y-185588095D01*
D10*
D11*
X287002200Y-60000000D02*
X285002200Y-60000000D01*
D10*
D11*
X287002200Y-110000000D02*
X285002200Y-110000000D01*
D10*
D11*
X287002200Y-160000000D02*
X285002200Y-160000000D01*
D10*
D11*
X285692676Y-35216667D02*
X286311724Y-35216667D01*
X285568867Y-35588095D02*
X286002200Y-34288095D01*
X286435533Y-35588095D01*
D10*
D11*
X286095057Y-84907143D02*
X286280771Y-84969048D01*
X286342676Y-85030952D01*
X286404581Y-85154762D01*
X286404581Y-85340476D01*
X286342676Y-85464286D01*
X286280771Y-85526190D01*
X286156962Y-85588095D01*
X285661724Y-85588095D01*
X285661724Y-84288095D01*
X286095057Y-84288095D01*
X286218867Y-84350000D01*
X286280771Y-84411905D01*
X286342676Y-84535714D01*
X286342676Y-84659524D01*
X286280771Y-84783333D01*
X286218867Y-84845238D01*
X286095057Y-84907143D01*
X285661724Y-84907143D01*
D10*
D11*
X286404581Y-135464286D02*
X286342676Y-135526190D01*
X286156962Y-135588095D01*
X286033152Y-135588095D01*
X285847438Y-135526190D01*
X285723629Y-135402381D01*
X285661724Y-135278571D01*
X285599819Y-135030952D01*
X285599819Y-134845238D01*
X285661724Y-134597619D01*
X285723629Y-134473810D01*
X285847438Y-134350000D01*
X286033152Y-134288095D01*
X286156962Y-134288095D01*
X286342676Y-134350000D01*
X286404581Y-134411905D01*
D10*
D11*
X285661724Y-185588095D02*
X285661724Y-184288095D01*
X285971248Y-184288095D01*
X286156962Y-184350000D01*
X286280771Y-184473810D01*
X286342676Y-184597619D01*
X286404581Y-184845238D01*
X286404581Y-185030952D01*
X286342676Y-185278571D01*
X286280771Y-185402381D01*
X286156962Y-185526190D01*
X285971248Y-185588095D01*
X285661724Y-185588095D01*
D10*
D11*
X200359343Y-193785771D02*
X200359343Y-192285771D01*
X200716486Y-192285771D01*
X200930771Y-192357200D01*
X201073629Y-192500057D01*
X201145057Y-192642914D01*
X201216486Y-192928629D01*
X201216486Y-193142914D01*
X201145057Y-193428629D01*
X201073629Y-193571486D01*
X200930771Y-193714343D01*
X200716486Y-193785771D01*
X200359343Y-193785771D01*
X202502200Y-193785771D02*
X202502200Y-193000057D01*
X202430771Y-192857200D01*
X202287914Y-192785771D01*
X202002200Y-192785771D01*
X201859343Y-192857200D01*
X202502200Y-193714343D02*
X202359343Y-193785771D01*
X202002200Y-193785771D01*
X201859343Y-193714343D01*
X201787914Y-193571486D01*
X201787914Y-193428629D01*
X201859343Y-193285771D01*
X202002200Y-193214343D01*
X202359343Y-193214343D01*
X202502200Y-193142914D01*
X203002200Y-192785771D02*
X203573629Y-192785771D01*
X203216486Y-192285771D02*
X203216486Y-193571486D01*
X203287914Y-193714343D01*
X203430772Y-193785771D01*
X203573629Y-193785771D01*
X204645057Y-193714343D02*
X204502200Y-193785771D01*
X204216486Y-193785771D01*
X204073629Y-193714343D01*
X204002200Y-193571486D01*
X204002200Y-193000057D01*
X204073629Y-192857200D01*
X204216486Y-192785771D01*
X204502200Y-192785771D01*
X204645057Y-192857200D01*
X204716486Y-193000057D01*
X204716486Y-193142914D01*
X204002200Y-193285771D01*
X205359343Y-193642914D02*
X205430771Y-193714343D01*
X205359343Y-193785771D01*
X205287914Y-193714343D01*
X205359343Y-193642914D01*
X205359343Y-193785771D01*
X205359343Y-192857200D02*
X205430771Y-192928629D01*
X205359343Y-193000057D01*
X205287914Y-192928629D01*
X205359343Y-192857200D01*
X205359343Y-193000057D01*
X207145057Y-192428629D02*
X207216486Y-192357200D01*
X207359343Y-192285771D01*
X207716486Y-192285771D01*
X207859343Y-192357200D01*
X207930772Y-192428629D01*
X208002200Y-192571486D01*
X208002200Y-192714343D01*
X207930772Y-192928629D01*
X207073629Y-193785771D01*
X208002200Y-193785771D01*
X208930771Y-192285771D02*
X209073628Y-192285771D01*
X209216485Y-192357200D01*
X209287914Y-192428629D01*
X209359343Y-192571486D01*
X209430771Y-192857200D01*
X209430771Y-193214343D01*
X209359343Y-193500057D01*
X209287914Y-193642914D01*
X209216485Y-193714343D01*
X209073628Y-193785771D01*
X208930771Y-193785771D01*
X208787914Y-193714343D01*
X208716485Y-193642914D01*
X208645057Y-193500057D01*
X208573628Y-193214343D01*
X208573628Y-192857200D01*
X208645057Y-192571486D01*
X208716485Y-192428629D01*
X208787914Y-192357200D01*
X208930771Y-192285771D01*
X210859342Y-193785771D02*
X210002199Y-193785771D01*
X210430771Y-193785771D02*
X210430771Y-192285771D01*
X210287914Y-192500057D01*
X210145056Y-192642914D01*
X210002199Y-192714343D01*
X212145056Y-192285771D02*
X211859342Y-192285771D01*
X211716485Y-192357200D01*
X211645056Y-192428629D01*
X211502199Y-192642914D01*
X211430770Y-192928629D01*
X211430770Y-193500057D01*
X211502199Y-193642914D01*
X211573627Y-193714343D01*
X211716485Y-193785771D01*
X212002199Y-193785771D01*
X212145056Y-193714343D01*
X212216485Y-193642914D01*
X212287913Y-193500057D01*
X212287913Y-193142914D01*
X212216485Y-193000057D01*
X212145056Y-192928629D01*
X212002199Y-192857200D01*
X211716485Y-192857200D01*
X211573627Y-192928629D01*
X211502199Y-193000057D01*
X211430770Y-193142914D01*
X212930770Y-193214343D02*
X214073627Y-193214343D01*
X215073627Y-192285771D02*
X215216484Y-192285771D01*
X215359341Y-192357200D01*
X215430770Y-192428629D01*
X215502199Y-192571486D01*
X215573627Y-192857200D01*
X215573627Y-193214343D01*
X215502199Y-193500057D01*
X215430770Y-193642914D01*
X215359341Y-193714343D01*
X215216484Y-193785771D01*
X215073627Y-193785771D01*
X214930770Y-193714343D01*
X214859341Y-193642914D01*
X214787913Y-193500057D01*
X214716484Y-193214343D01*
X214716484Y-192857200D01*
X214787913Y-192571486D01*
X214859341Y-192428629D01*
X214930770Y-192357200D01*
X215073627Y-192285771D01*
X217002198Y-193785771D02*
X216145055Y-193785771D01*
X216573627Y-193785771D02*
X216573627Y-192285771D01*
X216430770Y-192500057D01*
X216287912Y-192642914D01*
X216145055Y-192714343D01*
X217645055Y-193214343D02*
X218787912Y-193214343D01*
X219430769Y-192428629D02*
X219502198Y-192357200D01*
X219645055Y-192285771D01*
X220002198Y-192285771D01*
X220145055Y-192357200D01*
X220216484Y-192428629D01*
X220287912Y-192571486D01*
X220287912Y-192714343D01*
X220216484Y-192928629D01*
X219359341Y-193785771D01*
X220287912Y-193785771D01*
X221216483Y-192285771D02*
X221359340Y-192285771D01*
X221502197Y-192357200D01*
X221573626Y-192428629D01*
X221645055Y-192571486D01*
X221716483Y-192857200D01*
X221716483Y-193214343D01*
X221645055Y-193500057D01*
X221573626Y-193642914D01*
X221502197Y-193714343D01*
X221359340Y-193785771D01*
X221216483Y-193785771D01*
X221073626Y-193714343D01*
X221002197Y-193642914D01*
X220930769Y-193500057D01*
X220859340Y-193214343D01*
X220859340Y-192857200D01*
X220930769Y-192571486D01*
X221002197Y-192428629D01*
X221073626Y-192357200D01*
X221216483Y-192285771D01*
D10*
D11*
X177002200Y-194507200D02*
X285002200Y-194507200D01*
D10*
D11*
X178359343Y-196585771D02*
X178359343Y-195085771D01*
X179216486Y-196585771D02*
X178573629Y-195728629D01*
X179216486Y-195085771D02*
X178359343Y-195942914D01*
X179859343Y-196585771D02*
X179859343Y-195585771D01*
X179859343Y-195085771D02*
X179787914Y-195157200D01*
X179859343Y-195228629D01*
X179930771Y-195157200D01*
X179859343Y-195085771D01*
X179859343Y-195228629D01*
X181430772Y-196442914D02*
X181359343Y-196514343D01*
X181145057Y-196585771D01*
X181002200Y-196585771D01*
X180787915Y-196514343D01*
X180645057Y-196371486D01*
X180573629Y-196228629D01*
X180502200Y-195942914D01*
X180502200Y-195728629D01*
X180573629Y-195442914D01*
X180645057Y-195300057D01*
X180787915Y-195157200D01*
X181002200Y-195085771D01*
X181145057Y-195085771D01*
X181359343Y-195157200D01*
X181430772Y-195228629D01*
X182716486Y-196585771D02*
X182716486Y-195800057D01*
X182645057Y-195657200D01*
X182502200Y-195585771D01*
X182216486Y-195585771D01*
X182073629Y-195657200D01*
X182716486Y-196514343D02*
X182573629Y-196585771D01*
X182216486Y-196585771D01*
X182073629Y-196514343D01*
X182002200Y-196371486D01*
X182002200Y-196228629D01*
X182073629Y-196085771D01*
X182216486Y-196014343D01*
X182573629Y-196014343D01*
X182716486Y-195942914D01*
X184073629Y-196585771D02*
X184073629Y-195085771D01*
X184073629Y-196514343D02*
X183930772Y-196585771D01*
X183645058Y-196585771D01*
X183502200Y-196514343D01*
X183430772Y-196442914D01*
X183359343Y-196300057D01*
X183359343Y-195871486D01*
X183430772Y-195728629D01*
X183502200Y-195657200D01*
X183645058Y-195585771D01*
X183930772Y-195585771D01*
X184073629Y-195657200D01*
X185930772Y-195800057D02*
X186430772Y-195800057D01*
X186645058Y-196585771D02*
X185930772Y-196585771D01*
X185930772Y-195085771D01*
X186645058Y-195085771D01*
X187287915Y-196442914D02*
X187359343Y-196514343D01*
X187287915Y-196585771D01*
X187216486Y-196514343D01*
X187287915Y-196442914D01*
X187287915Y-196585771D01*
X188002201Y-196585771D02*
X188002201Y-195085771D01*
X188359344Y-195085771D01*
X188573629Y-195157200D01*
X188716487Y-195300057D01*
X188787915Y-195442914D01*
X188859344Y-195728629D01*
X188859344Y-195942914D01*
X188787915Y-196228629D01*
X188716487Y-196371486D01*
X188573629Y-196514343D01*
X188359344Y-196585771D01*
X188002201Y-196585771D01*
X189502201Y-196442914D02*
X189573629Y-196514343D01*
X189502201Y-196585771D01*
X189430772Y-196514343D01*
X189502201Y-196442914D01*
X189502201Y-196585771D01*
X190145058Y-196157200D02*
X190859344Y-196157200D01*
X190002201Y-196585771D02*
X190502201Y-195085771D01*
X191002201Y-196585771D01*
X191502201Y-196442914D02*
X191573629Y-196514343D01*
X191502201Y-196585771D01*
X191430772Y-196514343D01*
X191502201Y-196442914D01*
X191502201Y-196585771D01*
X194502201Y-196585771D02*
X194502201Y-195085771D01*
X194645058Y-196014343D02*
X195073629Y-196585771D01*
X195073629Y-195585771D02*
X194502201Y-196157200D01*
X195716487Y-196585771D02*
X195716487Y-195585771D01*
X195716487Y-195085771D02*
X195645058Y-195157200D01*
X195716487Y-195228629D01*
X195787915Y-195157200D01*
X195716487Y-195085771D01*
X195716487Y-195228629D01*
X197073630Y-196514343D02*
X196930773Y-196585771D01*
X196645059Y-196585771D01*
X196502201Y-196514343D01*
X196430773Y-196442914D01*
X196359344Y-196300057D01*
X196359344Y-195871486D01*
X196430773Y-195728629D01*
X196502201Y-195657200D01*
X196645059Y-195585771D01*
X196930773Y-195585771D01*
X197073630Y-195657200D01*
X198359344Y-196585771D02*
X198359344Y-195800057D01*
X198287915Y-195657200D01*
X198145058Y-195585771D01*
X197859344Y-195585771D01*
X197716487Y-195657200D01*
X198359344Y-196514343D02*
X198216487Y-196585771D01*
X197859344Y-196585771D01*
X197716487Y-196514343D01*
X197645058Y-196371486D01*
X197645058Y-196228629D01*
X197716487Y-196085771D01*
X197859344Y-196014343D01*
X198216487Y-196014343D01*
X198359344Y-195942914D01*
X199716487Y-196585771D02*
X199716487Y-195085771D01*
X199716487Y-196514343D02*
X199573630Y-196585771D01*
X199287916Y-196585771D01*
X199145058Y-196514343D01*
X199073630Y-196442914D01*
X199002201Y-196300057D01*
X199002201Y-195871486D01*
X199073630Y-195728629D01*
X199145058Y-195657200D01*
X199287916Y-195585771D01*
X199573630Y-195585771D01*
X199716487Y-195657200D01*
X202216487Y-195585771D02*
X202216487Y-196585771D01*
X201859344Y-195014343D02*
X201502201Y-196085771D01*
X202430773Y-196085771D01*
X203002201Y-196442914D02*
X203073629Y-196514343D01*
X203002201Y-196585771D01*
X202930772Y-196514343D01*
X203002201Y-196442914D01*
X203002201Y-196585771D01*
X204002201Y-195085771D02*
X204145058Y-195085771D01*
X204287915Y-195157200D01*
X204359344Y-195228629D01*
X204430773Y-195371486D01*
X204502201Y-195657200D01*
X204502201Y-196014343D01*
X204430773Y-196300057D01*
X204359344Y-196442914D01*
X204287915Y-196514343D01*
X204145058Y-196585771D01*
X204002201Y-196585771D01*
X203859344Y-196514343D01*
X203787915Y-196442914D01*
X203716487Y-196300057D01*
X203645058Y-196014343D01*
X203645058Y-195657200D01*
X203716487Y-195371486D01*
X203787915Y-195228629D01*
X203859344Y-195157200D01*
X204002201Y-195085771D01*
X205145058Y-196442914D02*
X205216486Y-196514343D01*
X205145058Y-196585771D01*
X205073629Y-196514343D01*
X205145058Y-196442914D01*
X205145058Y-196585771D01*
X206645058Y-196585771D02*
X205787915Y-196585771D01*
X206216487Y-196585771D02*
X206216487Y-195085771D01*
X206073630Y-195300057D01*
X205930772Y-195442914D01*
X205787915Y-195514343D01*
X207287915Y-196014343D02*
X208430772Y-196014343D01*
X209073629Y-196514343D02*
X209216486Y-196585771D01*
X209502201Y-196585771D01*
X209645058Y-196514343D01*
X209716486Y-196371486D01*
X209716486Y-196300057D01*
X209645058Y-196157200D01*
X209502201Y-196085771D01*
X209287915Y-196085771D01*
X209145058Y-196014343D01*
X209073629Y-195871486D01*
X209073629Y-195800057D01*
X209145058Y-195657200D01*
X209287915Y-195585771D01*
X209502201Y-195585771D01*
X209645058Y-195657200D01*
X210145058Y-195585771D02*
X210716487Y-195585771D01*
X210359344Y-195085771D02*
X210359344Y-196371486D01*
X210430772Y-196514343D01*
X210573630Y-196585771D01*
X210716487Y-196585771D01*
X211859344Y-196585771D02*
X211859344Y-195800057D01*
X211787915Y-195657200D01*
X211645058Y-195585771D01*
X211359344Y-195585771D01*
X211216487Y-195657200D01*
X211859344Y-196514343D02*
X211716487Y-196585771D01*
X211359344Y-196585771D01*
X211216487Y-196514343D01*
X211145058Y-196371486D01*
X211145058Y-196228629D01*
X211216487Y-196085771D01*
X211359344Y-196014343D01*
X211716487Y-196014343D01*
X211859344Y-195942914D01*
X212573630Y-196585771D02*
X212573630Y-195085771D01*
X212573630Y-195657200D02*
X212716487Y-195585771D01*
X213002201Y-195585771D01*
X213145058Y-195657200D01*
X213216487Y-195728629D01*
X213287916Y-195871486D01*
X213287916Y-196300057D01*
X213216487Y-196442914D01*
X213145058Y-196514343D01*
X213002201Y-196585771D01*
X212716487Y-196585771D01*
X212573630Y-196514343D01*
X214145059Y-196585771D02*
X214002201Y-196514343D01*
X213930773Y-196371486D01*
X213930773Y-195085771D01*
X215287915Y-196514343D02*
X215145058Y-196585771D01*
X214859344Y-196585771D01*
X214716487Y-196514343D01*
X214645058Y-196371486D01*
X214645058Y-195800057D01*
X214716487Y-195657200D01*
X214859344Y-195585771D01*
X215145058Y-195585771D01*
X215287915Y-195657200D01*
X215359344Y-195800057D01*
X215359344Y-195942914D01*
X214645058Y-196085771D01*
D10*
D11*
X177002200Y-191507200D02*
X285002200Y-191507200D01*
D10*
D12*
X264216486Y-193785771D02*
X263716486Y-193071486D01*
X263359343Y-193785771D02*
X263359343Y-192285771D01*
X263930771Y-192285771D01*
X264073629Y-192357200D01*
X264145057Y-192428629D01*
X264216486Y-192571486D01*
X264216486Y-192785771D01*
X264145057Y-192928629D01*
X264073629Y-193000057D01*
X263930771Y-193071486D01*
X263359343Y-193071486D01*
X265430771Y-193714343D02*
X265287914Y-193785771D01*
X265002200Y-193785771D01*
X264859343Y-193714343D01*
X264787914Y-193571486D01*
X264787914Y-193000057D01*
X264859343Y-192857200D01*
X265002200Y-192785771D01*
X265287914Y-192785771D01*
X265430771Y-192857200D01*
X265502200Y-193000057D01*
X265502200Y-193142914D01*
X264787914Y-193285771D01*
X266002200Y-192785771D02*
X266359343Y-193785771D01*
X266716485Y-192785771D01*
X267287914Y-193642914D02*
X267359342Y-193714343D01*
X267287914Y-193785771D01*
X267216485Y-193714343D01*
X267287914Y-193642914D01*
X267287914Y-193785771D01*
X267287914Y-192857200D02*
X267359342Y-192928629D01*
X267287914Y-193000057D01*
X267216485Y-192928629D01*
X267287914Y-192857200D01*
X267287914Y-193000057D01*
X269930771Y-193785771D02*
X269073628Y-193785771D01*
X269502200Y-193785771D02*
X269502200Y-192285771D01*
X269359343Y-192500057D01*
X269216485Y-192642914D01*
X269073628Y-192714343D01*
D10*
D11*
X178287914Y-193714343D02*
X178502200Y-193785771D01*
X178859343Y-193785771D01*
X179002200Y-193714343D01*
X179073629Y-193642914D01*
X179145057Y-193500057D01*
X179145057Y-193357200D01*
X179073629Y-193214343D01*
X179002200Y-193142914D01*
X178859343Y-193071486D01*
X178573629Y-193000057D01*
X178430771Y-192928629D01*
X178359343Y-192857200D01*
X178287914Y-192714343D01*
X178287914Y-192571486D01*
X178359343Y-192428629D01*
X178430771Y-192357200D01*
X178573629Y-192285771D01*
X178930771Y-192285771D01*
X179145057Y-192357200D01*
X179787914Y-193785771D02*
X179787914Y-192785771D01*
X179787914Y-192285771D02*
X179716485Y-192357200D01*
X179787914Y-192428629D01*
X179859342Y-192357200D01*
X179787914Y-192285771D01*
X179787914Y-192428629D01*
X180359343Y-192785771D02*
X181145057Y-192785771D01*
X180359343Y-193785771D01*
X181145057Y-193785771D01*
X182287914Y-193714343D02*
X182145057Y-193785771D01*
X181859343Y-193785771D01*
X181716486Y-193714343D01*
X181645057Y-193571486D01*
X181645057Y-193000057D01*
X181716486Y-192857200D01*
X181859343Y-192785771D01*
X182145057Y-192785771D01*
X182287914Y-192857200D01*
X182359343Y-193000057D01*
X182359343Y-193142914D01*
X181645057Y-193285771D01*
X183002200Y-193642914D02*
X183073628Y-193714343D01*
X183002200Y-193785771D01*
X182930771Y-193714343D01*
X183002200Y-193642914D01*
X183002200Y-193785771D01*
X183002200Y-192857200D02*
X183073628Y-192928629D01*
X183002200Y-193000057D01*
X182930771Y-192928629D01*
X183002200Y-192857200D01*
X183002200Y-193000057D01*
X184787914Y-193357200D02*
X185502200Y-193357200D01*
X184645057Y-193785771D02*
X185145057Y-192285771D01*
X185645057Y-193785771D01*
X186787914Y-192785771D02*
X186787914Y-193785771D01*
X186430771Y-192214343D02*
X186073628Y-193285771D01*
X187002200Y-193285771D01*
D10*
D11*
X263359343Y-196585771D02*
X263359343Y-195085771D01*
X264716486Y-196585771D02*
X264716486Y-195085771D01*
X264716486Y-196514343D02*
X264573629Y-196585771D01*
X264287915Y-196585771D01*
X264145057Y-196514343D01*
X264073629Y-196442914D01*
X264002200Y-196300057D01*
X264002200Y-195871486D01*
X264073629Y-195728629D01*
X264145057Y-195657200D01*
X264287915Y-195585771D01*
X264573629Y-195585771D01*
X264716486Y-195657200D01*
X265430772Y-196442914D02*
X265502200Y-196514343D01*
X265430772Y-196585771D01*
X265359343Y-196514343D01*
X265430772Y-196442914D01*
X265430772Y-196585771D01*
X265430772Y-195657200D02*
X265502200Y-195728629D01*
X265430772Y-195800057D01*
X265359343Y-195728629D01*
X265430772Y-195657200D01*
X265430772Y-195800057D01*
X268073629Y-196585771D02*
X267216486Y-196585771D01*
X267645058Y-196585771D02*
X267645058Y-195085771D01*
X267502201Y-195300057D01*
X267359343Y-195442914D01*
X267216486Y-195514343D01*
X269787914Y-195014343D02*
X268502200Y-196942914D01*
X271073629Y-196585771D02*
X270216486Y-196585771D01*
X270645058Y-196585771D02*
X270645058Y-195085771D01*
X270502201Y-195300057D01*
X270359343Y-195442914D01*
X270216486Y-195514343D01*
D10*
D11*
X177002200Y-187507200D02*
X285002200Y-187507200D01*
D10*
D13*
X178454581Y-188211962D02*
X179597438Y-188211962D01*
X178776010Y-190211962D02*
X179026010Y-188211962D01*
X180014105Y-190211962D02*
X180180771Y-188878629D01*
X180264105Y-188211962D02*
X180156962Y-188307200D01*
X180240295Y-188402438D01*
X180347439Y-188307200D01*
X180264105Y-188211962D01*
X180240295Y-188402438D01*
X180847438Y-188878629D02*
X181609343Y-188878629D01*
X181216486Y-188211962D02*
X181002200Y-189926248D01*
X181073630Y-190116724D01*
X181252201Y-190211962D01*
X181442677Y-190211962D01*
X182395058Y-190211962D02*
X182216487Y-190116724D01*
X182145057Y-189926248D01*
X182359343Y-188211962D01*
X183930772Y-190116724D02*
X183728391Y-190211962D01*
X183347439Y-190211962D01*
X183168867Y-190116724D01*
X183097438Y-189926248D01*
X183192676Y-189164343D01*
X183311724Y-188973867D01*
X183514105Y-188878629D01*
X183895057Y-188878629D01*
X184073629Y-188973867D01*
X184145057Y-189164343D01*
X184121248Y-189354819D01*
X183145057Y-189545295D01*
X184895057Y-190021486D02*
X184978392Y-190116724D01*
X184871248Y-190211962D01*
X184787915Y-190116724D01*
X184895057Y-190021486D01*
X184871248Y-190211962D01*
X185026010Y-188973867D02*
X185109344Y-189069105D01*
X185002200Y-189164343D01*
X184918867Y-189069105D01*
X185026010Y-188973867D01*
X185002200Y-189164343D01*
X187347439Y-190211962D02*
X187597439Y-188211962D01*
X187478391Y-189164343D02*
X188621249Y-189164343D01*
X188490297Y-190211962D02*
X188740297Y-188211962D01*
X189728392Y-190211962D02*
X189549821Y-190116724D01*
X189466486Y-190021486D01*
X189395058Y-189831010D01*
X189466486Y-189259581D01*
X189585534Y-189069105D01*
X189692678Y-188973867D01*
X189895058Y-188878629D01*
X190180772Y-188878629D01*
X190359344Y-188973867D01*
X190442677Y-189069105D01*
X190514105Y-189259581D01*
X190442677Y-189831010D01*
X190323629Y-190021486D01*
X190216487Y-190116724D01*
X190014106Y-190211962D01*
X189728392Y-190211962D01*
X191133153Y-188878629D02*
X191895058Y-188878629D01*
X191502201Y-188211962D02*
X191287915Y-189926248D01*
X191359345Y-190116724D01*
X191537916Y-190211962D01*
X191728392Y-190211962D01*
X192311725Y-190116724D02*
X192490297Y-190211962D01*
X192871249Y-190211962D01*
X193073630Y-190116724D01*
X193192677Y-189926248D01*
X193204582Y-189831010D01*
X193133153Y-189640533D01*
X192954582Y-189545295D01*
X192668868Y-189545295D01*
X192490296Y-189450057D01*
X192418867Y-189259581D01*
X192430772Y-189164343D01*
X192549820Y-188973867D01*
X192752201Y-188878629D01*
X193037915Y-188878629D01*
X193216487Y-188973867D01*
X193895058Y-188878629D02*
X194656963Y-188878629D01*
X194264106Y-188211962D02*
X194049820Y-189926248D01*
X194121250Y-190116724D01*
X194299821Y-190211962D01*
X194490297Y-190211962D01*
X195156963Y-190211962D02*
X195323629Y-188878629D01*
X195406963Y-188211962D02*
X195299820Y-188307200D01*
X195383153Y-188402438D01*
X195490297Y-188307200D01*
X195406963Y-188211962D01*
X195383153Y-188402438D01*
X196978392Y-190116724D02*
X196776011Y-190211962D01*
X196395059Y-190211962D01*
X196216488Y-190116724D01*
X196133153Y-190021486D01*
X196061725Y-189831010D01*
X196133153Y-189259581D01*
X196252201Y-189069105D01*
X196359345Y-188973867D01*
X196561725Y-188878629D01*
X196942677Y-188878629D01*
X197121249Y-188973867D01*
X197823630Y-190211962D02*
X198073630Y-188211962D01*
X198109345Y-189450057D02*
X198585535Y-190211962D01*
X198752201Y-188878629D02*
X197895058Y-189640533D01*
X201026012Y-188211962D02*
X201252203Y-190211962D01*
X201811726Y-188783390D01*
X202014108Y-190211962D01*
X202740298Y-188211962D01*
X204109345Y-190211962D02*
X204240297Y-189164343D01*
X204168869Y-188973867D01*
X203990297Y-188878629D01*
X203609345Y-188878629D01*
X203406964Y-188973867D01*
X204121250Y-190116724D02*
X203918869Y-190211962D01*
X203442679Y-190211962D01*
X203264107Y-190116724D01*
X203192678Y-189926248D01*
X203216488Y-189735771D01*
X203335535Y-189545295D01*
X203537917Y-189450057D01*
X204014107Y-189450057D01*
X204216488Y-189354819D01*
X205228392Y-188878629D02*
X205061726Y-190211962D01*
X205204583Y-189069105D02*
X205311727Y-188973867D01*
X205514107Y-188878629D01*
X205799821Y-188878629D01*
X205978393Y-188973867D01*
X206049821Y-189164343D01*
X205918869Y-190211962D01*
X207728393Y-190211962D02*
X207978393Y-188211962D01*
X207740298Y-190116724D02*
X207537917Y-190211962D01*
X207156965Y-190211962D01*
X206978394Y-190116724D01*
X206895059Y-190021486D01*
X206823631Y-189831010D01*
X206895059Y-189259581D01*
X207014107Y-189069105D01*
X207121251Y-188973867D01*
X207323631Y-188878629D01*
X207704583Y-188878629D01*
X207883155Y-188973867D01*
D10*
D11*
X178859343Y-185600057D02*
X178359343Y-185600057D01*
X178359343Y-186385771D02*
X178359343Y-184885771D01*
X179073629Y-184885771D01*
X179645057Y-186385771D02*
X179645057Y-185385771D01*
X179645057Y-184885771D02*
X179573628Y-184957200D01*
X179645057Y-185028629D01*
X179716485Y-184957200D01*
X179645057Y-184885771D01*
X179645057Y-185028629D01*
X180573629Y-186385771D02*
X180430771Y-186314343D01*
X180359343Y-186171486D01*
X180359343Y-184885771D01*
X181716485Y-186314343D02*
X181573628Y-186385771D01*
X181287914Y-186385771D01*
X181145057Y-186314343D01*
X181073628Y-186171486D01*
X181073628Y-185600057D01*
X181145057Y-185457200D01*
X181287914Y-185385771D01*
X181573628Y-185385771D01*
X181716485Y-185457200D01*
X181787914Y-185600057D01*
X181787914Y-185742914D01*
X181073628Y-185885771D01*
X182430771Y-186242914D02*
X182502199Y-186314343D01*
X182430771Y-186385771D01*
X182359342Y-186314343D01*
X182430771Y-186242914D01*
X182430771Y-186385771D01*
X182430771Y-185457200D02*
X182502199Y-185528629D01*
X182430771Y-185600057D01*
X182359342Y-185528629D01*
X182430771Y-185457200D01*
X182430771Y-185600057D01*
X184145057Y-184885771D02*
X184502200Y-186385771D01*
X184787914Y-185314343D01*
X185073628Y-186385771D01*
X185430771Y-184885771D01*
X186645057Y-186385771D02*
X186645057Y-185600057D01*
X186573628Y-185457200D01*
X186430771Y-185385771D01*
X186145057Y-185385771D01*
X186002200Y-185457200D01*
X186645057Y-186314343D02*
X186502200Y-186385771D01*
X186145057Y-186385771D01*
X186002200Y-186314343D01*
X185930771Y-186171486D01*
X185930771Y-186028629D01*
X186002200Y-185885771D01*
X186145057Y-185814343D01*
X186502200Y-185814343D01*
X186645057Y-185742914D01*
X187359343Y-185385771D02*
X187359343Y-186385771D01*
X187359343Y-185528629D02*
X187430771Y-185457200D01*
X187573629Y-185385771D01*
X187787914Y-185385771D01*
X187930771Y-185457200D01*
X188002200Y-185600057D01*
X188002200Y-186385771D01*
X189359343Y-186385771D02*
X189359343Y-184885771D01*
X189359343Y-186314343D02*
X189216486Y-186385771D01*
X188930772Y-186385771D01*
X188787914Y-186314343D01*
X188716486Y-186242914D01*
X188645057Y-186100057D01*
X188645057Y-185671486D01*
X188716486Y-185528629D01*
X188787914Y-185457200D01*
X188930772Y-185385771D01*
X189216486Y-185385771D01*
X189359343Y-185457200D01*
X190073629Y-186242914D02*
X190145057Y-186314343D01*
X190073629Y-186385771D01*
X190002200Y-186314343D01*
X190073629Y-186242914D01*
X190073629Y-186385771D01*
X190787915Y-186385771D02*
X190787915Y-184885771D01*
X190930772Y-185814343D02*
X191359343Y-186385771D01*
X191359343Y-185385771D02*
X190787915Y-185957200D01*
X192002201Y-186385771D02*
X192002201Y-185385771D01*
X192002201Y-184885771D02*
X191930772Y-184957200D01*
X192002201Y-185028629D01*
X192073629Y-184957200D01*
X192002201Y-184885771D01*
X192002201Y-185028629D01*
X193359344Y-186314343D02*
X193216487Y-186385771D01*
X192930773Y-186385771D01*
X192787915Y-186314343D01*
X192716487Y-186242914D01*
X192645058Y-186100057D01*
X192645058Y-185671486D01*
X192716487Y-185528629D01*
X192787915Y-185457200D01*
X192930773Y-185385771D01*
X193216487Y-185385771D01*
X193359344Y-185457200D01*
X194645058Y-186385771D02*
X194645058Y-185600057D01*
X194573629Y-185457200D01*
X194430772Y-185385771D01*
X194145058Y-185385771D01*
X194002201Y-185457200D01*
X194645058Y-186314343D02*
X194502201Y-186385771D01*
X194145058Y-186385771D01*
X194002201Y-186314343D01*
X193930772Y-186171486D01*
X193930772Y-186028629D01*
X194002201Y-185885771D01*
X194145058Y-185814343D01*
X194502201Y-185814343D01*
X194645058Y-185742914D01*
X196002201Y-186385771D02*
X196002201Y-184885771D01*
X196002201Y-186314343D02*
X195859344Y-186385771D01*
X195573630Y-186385771D01*
X195430772Y-186314343D01*
X195359344Y-186242914D01*
X195287915Y-186100057D01*
X195287915Y-185671486D01*
X195359344Y-185528629D01*
X195430772Y-185457200D01*
X195573630Y-185385771D01*
X195859344Y-185385771D01*
X196002201Y-185457200D01*
X196359344Y-186528629D02*
X197502201Y-186528629D01*
X197859344Y-185385771D02*
X197859344Y-186885771D01*
X197859344Y-185457200D02*
X198002201Y-185385771D01*
X198287915Y-185385771D01*
X198430772Y-185457200D01*
X198502201Y-185528629D01*
X198573630Y-185671486D01*
X198573630Y-186100057D01*
X198502201Y-186242914D01*
X198430772Y-186314343D01*
X198287915Y-186385771D01*
X198002201Y-186385771D01*
X197859344Y-186314343D01*
X199859344Y-186314343D02*
X199716487Y-186385771D01*
X199430773Y-186385771D01*
X199287915Y-186314343D01*
X199216487Y-186242914D01*
X199145058Y-186100057D01*
X199145058Y-185671486D01*
X199216487Y-185528629D01*
X199287915Y-185457200D01*
X199430773Y-185385771D01*
X199716487Y-185385771D01*
X199859344Y-185457200D01*
X200502201Y-186385771D02*
X200502201Y-184885771D01*
X200502201Y-185457200D02*
X200645058Y-185385771D01*
X200930772Y-185385771D01*
X201073629Y-185457200D01*
X201145058Y-185528629D01*
X201216487Y-185671486D01*
X201216487Y-186100057D01*
X201145058Y-186242914D01*
X201073629Y-186314343D01*
X200930772Y-186385771D01*
X200645058Y-186385771D01*
X200502201Y-186314343D01*
D10*
D11*
X177002200Y-181507200D02*
X285002200Y-181507200D01*
D10*
D11*
X178287914Y-183614343D02*
X178502200Y-183685771D01*
X178859343Y-183685771D01*
X179002200Y-183614343D01*
X179073629Y-183542914D01*
X179145057Y-183400057D01*
X179145057Y-183257200D01*
X179073629Y-183114343D01*
X179002200Y-183042914D01*
X178859343Y-182971486D01*
X178573629Y-182900057D01*
X178430771Y-182828629D01*
X178359343Y-182757200D01*
X178287914Y-182614343D01*
X178287914Y-182471486D01*
X178359343Y-182328629D01*
X178430771Y-182257200D01*
X178573629Y-182185771D01*
X178930771Y-182185771D01*
X179145057Y-182257200D01*
X179787914Y-183685771D02*
X179787914Y-182185771D01*
X180430771Y-183685771D02*
X180430771Y-182900057D01*
X180359342Y-182757200D01*
X180216485Y-182685771D01*
X180002200Y-182685771D01*
X179859342Y-182757200D01*
X179787914Y-182828629D01*
X181716485Y-183614343D02*
X181573628Y-183685771D01*
X181287914Y-183685771D01*
X181145057Y-183614343D01*
X181073628Y-183471486D01*
X181073628Y-182900057D01*
X181145057Y-182757200D01*
X181287914Y-182685771D01*
X181573628Y-182685771D01*
X181716485Y-182757200D01*
X181787914Y-182900057D01*
X181787914Y-183042914D01*
X181073628Y-183185771D01*
X183002199Y-183614343D02*
X182859342Y-183685771D01*
X182573628Y-183685771D01*
X182430771Y-183614343D01*
X182359342Y-183471486D01*
X182359342Y-182900057D01*
X182430771Y-182757200D01*
X182573628Y-182685771D01*
X182859342Y-182685771D01*
X183002199Y-182757200D01*
X183073628Y-182900057D01*
X183073628Y-183042914D01*
X182359342Y-183185771D01*
X183502199Y-182685771D02*
X184073628Y-182685771D01*
X183716485Y-182185771D02*
X183716485Y-183471486D01*
X183787913Y-183614343D01*
X183930771Y-183685771D01*
X184073628Y-183685771D01*
X184573628Y-183542914D02*
X184645056Y-183614343D01*
X184573628Y-183685771D01*
X184502199Y-183614343D01*
X184573628Y-183542914D01*
X184573628Y-183685771D01*
X184573628Y-182757200D02*
X184645056Y-182828629D01*
X184573628Y-182900057D01*
X184502199Y-182828629D01*
X184573628Y-182757200D01*
X184573628Y-182900057D01*
D10*
D12*
X178359343Y-180685771D02*
X178359343Y-179685771D01*
X178359343Y-179971486D02*
X178430771Y-179828629D01*
X178502200Y-179757200D01*
X178645057Y-179685771D01*
X178787914Y-179685771D01*
X180002200Y-180685771D02*
X179287914Y-180685771D01*
X179287914Y-179185771D01*
X181145057Y-180685771D02*
X181145057Y-179900057D01*
X181073628Y-179757200D01*
X180930771Y-179685771D01*
X180645057Y-179685771D01*
X180502200Y-179757200D01*
X181145057Y-180614343D02*
X181002200Y-180685771D01*
X180645057Y-180685771D01*
X180502200Y-180614343D01*
X180430771Y-180471486D01*
X180430771Y-180328629D01*
X180502200Y-180185771D01*
X180645057Y-180114343D01*
X181002200Y-180114343D01*
X181145057Y-180042914D01*
X181859343Y-180685771D02*
X181859343Y-179185771D01*
X181859343Y-179757200D02*
X182002200Y-179685771D01*
X182287914Y-179685771D01*
X182430771Y-179757200D01*
X182502200Y-179828629D01*
X182573629Y-179971486D01*
X182573629Y-180400057D01*
X182502200Y-180542914D01*
X182430771Y-180614343D01*
X182287914Y-180685771D01*
X182002200Y-180685771D01*
X181859343Y-180614343D01*
X184287914Y-179114343D02*
X183002200Y-181042914D01*
X185645058Y-180685771D02*
X185145058Y-179971486D01*
X184787915Y-180685771D02*
X184787915Y-179185771D01*
X185359343Y-179185771D01*
X185502201Y-179257200D01*
X185573629Y-179328629D01*
X185645058Y-179471486D01*
X185645058Y-179685771D01*
X185573629Y-179828629D01*
X185502201Y-179900057D01*
X185359343Y-179971486D01*
X184787915Y-179971486D01*
X186859343Y-180614343D02*
X186716486Y-180685771D01*
X186430772Y-180685771D01*
X186287915Y-180614343D01*
X186216486Y-180471486D01*
X186216486Y-179900057D01*
X186287915Y-179757200D01*
X186430772Y-179685771D01*
X186716486Y-179685771D01*
X186859343Y-179757200D01*
X186930772Y-179900057D01*
X186930772Y-180042914D01*
X186216486Y-180185771D01*
X188216486Y-180685771D02*
X188216486Y-179900057D01*
X188145057Y-179757200D01*
X188002200Y-179685771D01*
X187716486Y-179685771D01*
X187573629Y-179757200D01*
X188216486Y-180614343D02*
X188073629Y-180685771D01*
X187716486Y-180685771D01*
X187573629Y-180614343D01*
X187502200Y-180471486D01*
X187502200Y-180328629D01*
X187573629Y-180185771D01*
X187716486Y-180114343D01*
X188073629Y-180114343D01*
X188216486Y-180042914D01*
X189573629Y-180685771D02*
X189573629Y-179185771D01*
X189573629Y-180614343D02*
X189430772Y-180685771D01*
X189145058Y-180685771D01*
X189002200Y-180614343D01*
X188930772Y-180542914D01*
X188859343Y-180400057D01*
X188859343Y-179971486D01*
X188930772Y-179828629D01*
X189002200Y-179757200D01*
X189145058Y-179685771D01*
X189430772Y-179685771D01*
X189573629Y-179757200D01*
X190287915Y-180685771D02*
X190287915Y-179685771D01*
X190287915Y-179185771D02*
X190216486Y-179257200D01*
X190287915Y-179328629D01*
X190359343Y-179257200D01*
X190287915Y-179185771D01*
X190287915Y-179328629D01*
X191002201Y-179685771D02*
X191002201Y-180685771D01*
X191002201Y-179828629D02*
X191073629Y-179757200D01*
X191216487Y-179685771D01*
X191430772Y-179685771D01*
X191573629Y-179757200D01*
X191645058Y-179900057D01*
X191645058Y-180685771D01*
X193002201Y-179685771D02*
X193002201Y-180900057D01*
X192930772Y-181042914D01*
X192859344Y-181114343D01*
X192716487Y-181185771D01*
X192502201Y-181185771D01*
X192359344Y-181114343D01*
X193002201Y-180614343D02*
X192859344Y-180685771D01*
X192573630Y-180685771D01*
X192430772Y-180614343D01*
X192359344Y-180542914D01*
X192287915Y-180400057D01*
X192287915Y-179971486D01*
X192359344Y-179828629D01*
X192430772Y-179757200D01*
X192573630Y-179685771D01*
X192859344Y-179685771D01*
X193002201Y-179757200D01*
X194859344Y-180685771D02*
X194859344Y-179185771D01*
X194859344Y-179900057D02*
X195716487Y-179900057D01*
X195716487Y-180685771D02*
X195716487Y-179185771D01*
X197073630Y-180685771D02*
X197073630Y-179900057D01*
X197002201Y-179757200D01*
X196859344Y-179685771D01*
X196573630Y-179685771D01*
X196430773Y-179757200D01*
X197073630Y-180614343D02*
X196930773Y-180685771D01*
X196573630Y-180685771D01*
X196430773Y-180614343D01*
X196359344Y-180471486D01*
X196359344Y-180328629D01*
X196430773Y-180185771D01*
X196573630Y-180114343D01*
X196930773Y-180114343D01*
X197073630Y-180042914D01*
X198430773Y-180614343D02*
X198287916Y-180685771D01*
X198002202Y-180685771D01*
X197859344Y-180614343D01*
X197787916Y-180542914D01*
X197716487Y-180400057D01*
X197716487Y-179971486D01*
X197787916Y-179828629D01*
X197859344Y-179757200D01*
X198002202Y-179685771D01*
X198287916Y-179685771D01*
X198430773Y-179757200D01*
X199073630Y-180685771D02*
X199073630Y-179185771D01*
X199216487Y-180114343D02*
X199645058Y-180685771D01*
X199645058Y-179685771D02*
X199073630Y-180257200D01*
X200216487Y-180614343D02*
X200359344Y-180685771D01*
X200645059Y-180685771D01*
X200787916Y-180614343D01*
X200859344Y-180471486D01*
X200859344Y-180400057D01*
X200787916Y-180257200D01*
X200645059Y-180185771D01*
X200430773Y-180185771D01*
X200287916Y-180114343D01*
X200216487Y-179971486D01*
X200216487Y-179900057D01*
X200287916Y-179757200D01*
X200430773Y-179685771D01*
X200645059Y-179685771D01*
X200787916Y-179757200D01*
X201502202Y-179685771D02*
X201502202Y-181185771D01*
X201502202Y-179757200D02*
X201645059Y-179685771D01*
X201930773Y-179685771D01*
X202073630Y-179757200D01*
X202145059Y-179828629D01*
X202216488Y-179971486D01*
X202216488Y-180400057D01*
X202145059Y-180542914D01*
X202073630Y-180614343D01*
X201930773Y-180685771D01*
X201645059Y-180685771D01*
X201502202Y-180614343D01*
X203502202Y-180685771D02*
X203502202Y-179900057D01*
X203430773Y-179757200D01*
X203287916Y-179685771D01*
X203002202Y-179685771D01*
X202859345Y-179757200D01*
X203502202Y-180614343D02*
X203359345Y-180685771D01*
X203002202Y-180685771D01*
X202859345Y-180614343D01*
X202787916Y-180471486D01*
X202787916Y-180328629D01*
X202859345Y-180185771D01*
X203002202Y-180114343D01*
X203359345Y-180114343D01*
X203502202Y-180042914D01*
X204859345Y-180614343D02*
X204716488Y-180685771D01*
X204430774Y-180685771D01*
X204287916Y-180614343D01*
X204216488Y-180542914D01*
X204145059Y-180400057D01*
X204145059Y-179971486D01*
X204216488Y-179828629D01*
X204287916Y-179757200D01*
X204430774Y-179685771D01*
X204716488Y-179685771D01*
X204859345Y-179757200D01*
X206073630Y-180614343D02*
X205930773Y-180685771D01*
X205645059Y-180685771D01*
X205502202Y-180614343D01*
X205430773Y-180471486D01*
X205430773Y-179900057D01*
X205502202Y-179757200D01*
X205645059Y-179685771D01*
X205930773Y-179685771D01*
X206073630Y-179757200D01*
X206145059Y-179900057D01*
X206145059Y-180042914D01*
X205430773Y-180185771D01*
D10*
D11*
X197002200Y-191507200D02*
X197002200Y-194507200D01*
D10*
D11*
X261002200Y-191507200D02*
X261002200Y-198007200D01*
D14*
X145900000Y-110500000D03*
X145900000Y-113500000D03*
D15*
X98500000Y-110100000D03*
X98500000Y-113900000D03*
D16*
X99000000Y-112000000D03*
D17*
X142100000Y-115000000D03*
X133500000Y-112200000D03*
X120100000Y-111200000D03*
X114700000Y-113900000D03*
X124100000Y-112800000D03*
X110700000Y-114800000D03*
X126700000Y-113500000D03*
X103300000Y-111900000D03*
X135600000Y-109400000D03*
X136500000Y-114000000D03*
X121200000Y-112900000D03*
X103300000Y-113900000D03*
X144600000Y-115000000D03*
X145400000Y-115000000D03*
X146200000Y-115000000D03*
X103300000Y-112900000D03*
X127300000Y-114100000D03*
X114800000Y-109800000D03*
X134100000Y-114400000D03*
X105000000Y-111900000D03*
X105000000Y-113900000D03*
X139400000Y-111900000D03*
X136800000Y-111900000D03*
X127200000Y-109800000D03*
X136900000Y-109400000D03*
X139700000Y-109500000D03*
X126400000Y-109900000D03*
X142000000Y-109450000D03*
X125600000Y-109900000D03*
X113350000Y-114750000D03*
X115350000Y-114350000D03*
X130950000Y-115000000D03*
X114350000Y-112450000D03*
X132450000Y-114400000D03*
X105000000Y-112900000D03*
X120000000Y-112900000D03*
X125000000Y-112800000D03*
D18*
X124100000Y-112800000D02*
X124100000Y-113500000D01*
X124100000Y-113500000D02*
X123800000Y-113800000D01*
X119700000Y-113800000D02*
X118800000Y-112900000D01*
X123800000Y-113800000D02*
X119700000Y-113800000D01*
X136400000Y-115000000D02*
X133600000Y-112200000D01*
X136400000Y-115000000D02*
X142100000Y-115000000D01*
X133600000Y-112200000D02*
X133500000Y-112200000D01*
X126700000Y-113500000D02*
X126900000Y-113300000D01*
X126900000Y-113300000D02*
X132400000Y-113300000D01*
X132400000Y-113300000D02*
X133500000Y-112200000D01*
X120100000Y-111200000D02*
X120100000Y-111600000D01*
X115700000Y-112900000D02*
X114700000Y-113900000D01*
X118800000Y-112900000D02*
X115700000Y-112900000D01*
X120100000Y-111600000D02*
X118800000Y-112900000D01*
X126700000Y-113500000D02*
X125600000Y-113500000D01*
X124400000Y-113800000D02*
X124100000Y-113500000D01*
X125300000Y-113800000D02*
X124400000Y-113800000D01*
X125600000Y-113500000D02*
X125300000Y-113800000D01*
X111600000Y-113900000D02*
X110700000Y-114800000D01*
X111600000Y-113900000D02*
X114700000Y-113900000D01*
D19*
X99000000Y-112000000D02*
X99100000Y-111900000D01*
X99100000Y-111900000D02*
X103300000Y-111900000D01*
X103300000Y-113900000D02*
X103300000Y-112900000D01*
X145400000Y-115000000D02*
X144600000Y-115000000D01*
X145900000Y-114700000D02*
X146200000Y-115000000D01*
X145900000Y-114700000D02*
X145900000Y-113500000D01*
X131200000Y-109000000D02*
X131200000Y-109900000D01*
X103600000Y-109000000D02*
X131200000Y-109000000D01*
X102300000Y-110100000D02*
X103600000Y-109000000D01*
X98500000Y-110100000D02*
X102300000Y-110100000D01*
X135200000Y-111100000D02*
X136900000Y-109400000D01*
X132400000Y-111100000D02*
X135200000Y-111100000D01*
X131200000Y-109900000D02*
X132400000Y-111100000D01*
X136900000Y-109400000D02*
X138000000Y-110500000D01*
X138000000Y-110500000D02*
X139500000Y-110500000D01*
X139500000Y-110500000D02*
X145900000Y-110500000D01*
D20*
G36*
X103973000Y-111452606D02*
X103973000Y-114047394D01*
X103647394Y-114373000D01*
X102952606Y-114373000D01*
X102627000Y-114047394D01*
X102627000Y-113400000D01*
X102616994Y-113350590D01*
X102589803Y-113310197D01*
X102289803Y-113010197D01*
X102247789Y-112982334D01*
X102200000Y-112973000D01*
X100031633Y-112973000D01*
X100000000Y-112966594D01*
X99927000Y-112966594D01*
X99927000Y-111033406D01*
X100000000Y-111033406D01*
X100034046Y-111027000D01*
X103547394Y-111027000D01*
X103973000Y-111452606D01*
X103973000Y-111452606D01*
G37*
X103973000Y-111452606D02*
X103973000Y-114047394D01*
X103647394Y-114373000D01*
X102952606Y-114373000D01*
X102627000Y-114047394D01*
X102627000Y-113400000D01*
X102616994Y-113350590D01*
X102589803Y-113310197D01*
X102289803Y-113010197D01*
X102247789Y-112982334D01*
X102200000Y-112973000D01*
X100031633Y-112973000D01*
X100000000Y-112966594D01*
X99927000Y-112966594D01*
X99927000Y-111033406D01*
X100000000Y-111033406D01*
X100034046Y-111027000D01*
X103547394Y-111027000D01*
X103973000Y-111452606D01*
G36*
X146698000Y-115198000D02*
X143927000Y-115198000D01*
X143927000Y-113269716D01*
X144936982Y-112627000D01*
X146698000Y-112627000D01*
X146698000Y-115198000D01*
X146698000Y-115198000D01*
G37*
X146698000Y-115198000D02*
X143927000Y-115198000D01*
X143927000Y-113269716D01*
X144936982Y-112627000D01*
X146698000Y-112627000D01*
X146698000Y-115198000D01*
G36*
X135068765Y-109044369D02*
X134973109Y-109274735D01*
X134972891Y-109524171D01*
X135068145Y-109754703D01*
X135244369Y-109931235D01*
X135474735Y-110026891D01*
X135724171Y-110027109D01*
X135954703Y-109931855D01*
X136131235Y-109755631D01*
X136226891Y-109525265D01*
X136227109Y-109275829D01*
X136131855Y-109045297D01*
X135988808Y-108902000D01*
X139505380Y-108902000D01*
X139345297Y-108968145D01*
X139168765Y-109144369D01*
X139073109Y-109374735D01*
X139072891Y-109624171D01*
X139168145Y-109854703D01*
X139344369Y-110031235D01*
X139574735Y-110126891D01*
X139824171Y-110127109D01*
X140054703Y-110031855D01*
X140231235Y-109855631D01*
X140326891Y-109625265D01*
X140327109Y-109375829D01*
X140231855Y-109145297D01*
X140055631Y-108968765D01*
X139894842Y-108902000D01*
X141684371Y-108902000D01*
X141645297Y-108918145D01*
X141468765Y-109094369D01*
X141373109Y-109324735D01*
X141372891Y-109574171D01*
X141468145Y-109804703D01*
X141644369Y-109981235D01*
X141874735Y-110076891D01*
X142124171Y-110077109D01*
X142354703Y-109981855D01*
X142531235Y-109805631D01*
X142626891Y-109575265D01*
X142627109Y-109325829D01*
X142531855Y-109095297D01*
X142355631Y-108918765D01*
X142315256Y-108902000D01*
X146598000Y-108902000D01*
X146598000Y-111373000D01*
X144900000Y-111373000D01*
X144829553Y-111394330D01*
X143361548Y-112373000D01*
X139813661Y-112373000D01*
X139931235Y-112255631D01*
X140026891Y-112025265D01*
X140027109Y-111775829D01*
X139931855Y-111545297D01*
X139755631Y-111368765D01*
X139525265Y-111273109D01*
X139275829Y-111272891D01*
X139045297Y-111368145D01*
X138868765Y-111544369D01*
X138773109Y-111774735D01*
X138772891Y-112024171D01*
X138868145Y-112254703D01*
X138986236Y-112373000D01*
X137213661Y-112373000D01*
X137331235Y-112255631D01*
X137426891Y-112025265D01*
X137427109Y-111775829D01*
X137331855Y-111545297D01*
X137155631Y-111368765D01*
X136925265Y-111273109D01*
X136675829Y-111272891D01*
X136445297Y-111368145D01*
X136268765Y-111544369D01*
X136173109Y-111774735D01*
X136172891Y-112024171D01*
X136268145Y-112254703D01*
X136386236Y-112373000D01*
X134589002Y-112373000D01*
X134008001Y-111791999D01*
X133919858Y-111733105D01*
X133855631Y-111668765D01*
X133625265Y-111573109D01*
X133375829Y-111572891D01*
X133145297Y-111668145D01*
X132968765Y-111844369D01*
X132918445Y-111965553D01*
X132510998Y-112373000D01*
X125459684Y-112373000D01*
X125355631Y-112268765D01*
X125125265Y-112173109D01*
X124875829Y-112172891D01*
X124645297Y-112268145D01*
X124549988Y-112363287D01*
X124455631Y-112268765D01*
X124225265Y-112173109D01*
X123975829Y-112172891D01*
X123745297Y-112268145D01*
X123640259Y-112373000D01*
X121559859Y-112373000D01*
X121555631Y-112368765D01*
X121325265Y-112273109D01*
X121075829Y-112272891D01*
X120845297Y-112368145D01*
X120840434Y-112373000D01*
X120359859Y-112373000D01*
X120355631Y-112368765D01*
X120208380Y-112307621D01*
X120507998Y-112008003D01*
X120508001Y-112008001D01*
X120633078Y-111820808D01*
X120650772Y-111731855D01*
X120677001Y-111600000D01*
X120677000Y-111599995D01*
X120677000Y-111445416D01*
X120726891Y-111325265D01*
X120727109Y-111075829D01*
X120631855Y-110845297D01*
X120455631Y-110668765D01*
X120225265Y-110573109D01*
X119975829Y-110572891D01*
X119745297Y-110668145D01*
X119568765Y-110844369D01*
X119473109Y-111074735D01*
X119472891Y-111324171D01*
X119498310Y-111385689D01*
X118560998Y-112323000D01*
X115700005Y-112323000D01*
X115700000Y-112322999D01*
X115479192Y-112366922D01*
X115470096Y-112373000D01*
X114977068Y-112373000D01*
X114977109Y-112325829D01*
X114881855Y-112095297D01*
X114705631Y-111918765D01*
X114475265Y-111823109D01*
X114225829Y-111822891D01*
X113995297Y-111918145D01*
X113818765Y-112094369D01*
X113723109Y-112324735D01*
X113723067Y-112373000D01*
X105413661Y-112373000D01*
X105531235Y-112255631D01*
X105626891Y-112025265D01*
X105627109Y-111775829D01*
X105531855Y-111545297D01*
X105355631Y-111368765D01*
X105125265Y-111273109D01*
X104875829Y-111272891D01*
X104645297Y-111368145D01*
X104468765Y-111544369D01*
X104427000Y-111644951D01*
X104427000Y-111300000D01*
X104416994Y-111250590D01*
X104389803Y-111210197D01*
X103789803Y-110610197D01*
X103747789Y-110582334D01*
X103700000Y-110573000D01*
X101031633Y-110573000D01*
X101000000Y-110566594D01*
X97402000Y-110566594D01*
X97402000Y-109924171D01*
X114172891Y-109924171D01*
X114268145Y-110154703D01*
X114444369Y-110331235D01*
X114674735Y-110426891D01*
X114924171Y-110427109D01*
X115154703Y-110331855D01*
X115331235Y-110155631D01*
X115385821Y-110024171D01*
X124972891Y-110024171D01*
X125068145Y-110254703D01*
X125244369Y-110431235D01*
X125474735Y-110526891D01*
X125724171Y-110527109D01*
X125954703Y-110431855D01*
X125999924Y-110386713D01*
X126044369Y-110431235D01*
X126274735Y-110526891D01*
X126524171Y-110527109D01*
X126754703Y-110431855D01*
X126852229Y-110334499D01*
X127074735Y-110426891D01*
X127324171Y-110427109D01*
X127554703Y-110331855D01*
X127731235Y-110155631D01*
X127826891Y-109925265D01*
X127827109Y-109675829D01*
X127731855Y-109445297D01*
X127555631Y-109268765D01*
X127325265Y-109173109D01*
X127075829Y-109172891D01*
X126845297Y-109268145D01*
X126747771Y-109365501D01*
X126525265Y-109273109D01*
X126275829Y-109272891D01*
X126045297Y-109368145D01*
X126000076Y-109413287D01*
X125955631Y-109368765D01*
X125725265Y-109273109D01*
X125475829Y-109272891D01*
X125245297Y-109368145D01*
X125068765Y-109544369D01*
X124973109Y-109774735D01*
X124972891Y-110024171D01*
X115385821Y-110024171D01*
X115426891Y-109925265D01*
X115427109Y-109675829D01*
X115331855Y-109445297D01*
X115155631Y-109268765D01*
X114925265Y-109173109D01*
X114675829Y-109172891D01*
X114445297Y-109268145D01*
X114268765Y-109444369D01*
X114173109Y-109674735D01*
X114172891Y-109924171D01*
X97402000Y-109924171D01*
X97402000Y-109902000D01*
X100100000Y-109902000D01*
X100253839Y-109871400D01*
X100384257Y-109784257D01*
X101266514Y-108902000D01*
X135211383Y-108902000D01*
X135068765Y-109044369D01*
X135068765Y-109044369D01*
G37*
X135068765Y-109044369D02*
X134973109Y-109274735D01*
X134972891Y-109524171D01*
X135068145Y-109754703D01*
X135244369Y-109931235D01*
X135474735Y-110026891D01*
X135724171Y-110027109D01*
X135954703Y-109931855D01*
X136131235Y-109755631D01*
X136226891Y-109525265D01*
X136227109Y-109275829D01*
X136131855Y-109045297D01*
X135988808Y-108902000D01*
X139505380Y-108902000D01*
X139345297Y-108968145D01*
X139168765Y-109144369D01*
X139073109Y-109374735D01*
X139072891Y-109624171D01*
X139168145Y-109854703D01*
X139344369Y-110031235D01*
X139574735Y-110126891D01*
X139824171Y-110127109D01*
X140054703Y-110031855D01*
X140231235Y-109855631D01*
X140326891Y-109625265D01*
X140327109Y-109375829D01*
X140231855Y-109145297D01*
X140055631Y-108968765D01*
X139894842Y-108902000D01*
X141684371Y-108902000D01*
X141645297Y-108918145D01*
X141468765Y-109094369D01*
X141373109Y-109324735D01*
X141372891Y-109574171D01*
X141468145Y-109804703D01*
X141644369Y-109981235D01*
X141874735Y-110076891D01*
X142124171Y-110077109D01*
X142354703Y-109981855D01*
X142531235Y-109805631D01*
X142626891Y-109575265D01*
X142627109Y-109325829D01*
X142531855Y-109095297D01*
X142355631Y-108918765D01*
X142315256Y-108902000D01*
X146598000Y-108902000D01*
X146598000Y-111373000D01*
X144900000Y-111373000D01*
X144829553Y-111394330D01*
X143361548Y-112373000D01*
X139813661Y-112373000D01*
X139931235Y-112255631D01*
X140026891Y-112025265D01*
X140027109Y-111775829D01*
X139931855Y-111545297D01*
X139755631Y-111368765D01*
X139525265Y-111273109D01*
X139275829Y-111272891D01*
X139045297Y-111368145D01*
X138868765Y-111544369D01*
X138773109Y-111774735D01*
X138772891Y-112024171D01*
X138868145Y-112254703D01*
X138986236Y-112373000D01*
X137213661Y-112373000D01*
X137331235Y-112255631D01*
X137426891Y-112025265D01*
X137427109Y-111775829D01*
X137331855Y-111545297D01*
X137155631Y-111368765D01*
X136925265Y-111273109D01*
X136675829Y-111272891D01*
X136445297Y-111368145D01*
X136268765Y-111544369D01*
X136173109Y-111774735D01*
X136172891Y-112024171D01*
X136268145Y-112254703D01*
X136386236Y-112373000D01*
X134589002Y-112373000D01*
X134008001Y-111791999D01*
X133919858Y-111733105D01*
X133855631Y-111668765D01*
X133625265Y-111573109D01*
X133375829Y-111572891D01*
X133145297Y-111668145D01*
X132968765Y-111844369D01*
X132918445Y-111965553D01*
X132510998Y-112373000D01*
X125459684Y-112373000D01*
X125355631Y-112268765D01*
X125125265Y-112173109D01*
X124875829Y-112172891D01*
X124645297Y-112268145D01*
X124549988Y-112363287D01*
X124455631Y-112268765D01*
X124225265Y-112173109D01*
X123975829Y-112172891D01*
X123745297Y-112268145D01*
X123640259Y-112373000D01*
X121559859Y-112373000D01*
X121555631Y-112368765D01*
X121325265Y-112273109D01*
X121075829Y-112272891D01*
X120845297Y-112368145D01*
X120840434Y-112373000D01*
X120359859Y-112373000D01*
X120355631Y-112368765D01*
X120208380Y-112307621D01*
X120507998Y-112008003D01*
X120508001Y-112008001D01*
X120633078Y-111820808D01*
X120650772Y-111731855D01*
X120677001Y-111600000D01*
X120677000Y-111599995D01*
X120677000Y-111445416D01*
X120726891Y-111325265D01*
X120727109Y-111075829D01*
X120631855Y-110845297D01*
X120455631Y-110668765D01*
X120225265Y-110573109D01*
X119975829Y-110572891D01*
X119745297Y-110668145D01*
X119568765Y-110844369D01*
X119473109Y-111074735D01*
X119472891Y-111324171D01*
X119498310Y-111385689D01*
X118560998Y-112323000D01*
X115700005Y-112323000D01*
X115700000Y-112322999D01*
X115479192Y-112366922D01*
X115470096Y-112373000D01*
X114977068Y-112373000D01*
X114977109Y-112325829D01*
X114881855Y-112095297D01*
X114705631Y-111918765D01*
X114475265Y-111823109D01*
X114225829Y-111822891D01*
X113995297Y-111918145D01*
X113818765Y-112094369D01*
X113723109Y-112324735D01*
X113723067Y-112373000D01*
X105413661Y-112373000D01*
X105531235Y-112255631D01*
X105626891Y-112025265D01*
X105627109Y-111775829D01*
X105531855Y-111545297D01*
X105355631Y-111368765D01*
X105125265Y-111273109D01*
X104875829Y-111272891D01*
X104645297Y-111368145D01*
X104468765Y-111544369D01*
X104427000Y-111644951D01*
X104427000Y-111300000D01*
X104416994Y-111250590D01*
X104389803Y-111210197D01*
X103789803Y-110610197D01*
X103747789Y-110582334D01*
X103700000Y-110573000D01*
X101031633Y-110573000D01*
X101000000Y-110566594D01*
X97402000Y-110566594D01*
X97402000Y-109924171D01*
X114172891Y-109924171D01*
X114268145Y-110154703D01*
X114444369Y-110331235D01*
X114674735Y-110426891D01*
X114924171Y-110427109D01*
X115154703Y-110331855D01*
X115331235Y-110155631D01*
X115385821Y-110024171D01*
X124972891Y-110024171D01*
X125068145Y-110254703D01*
X125244369Y-110431235D01*
X125474735Y-110526891D01*
X125724171Y-110527109D01*
X125954703Y-110431855D01*
X125999924Y-110386713D01*
X126044369Y-110431235D01*
X126274735Y-110526891D01*
X126524171Y-110527109D01*
X126754703Y-110431855D01*
X126852229Y-110334499D01*
X127074735Y-110426891D01*
X127324171Y-110427109D01*
X127554703Y-110331855D01*
X127731235Y-110155631D01*
X127826891Y-109925265D01*
X127827109Y-109675829D01*
X127731855Y-109445297D01*
X127555631Y-109268765D01*
X127325265Y-109173109D01*
X127075829Y-109172891D01*
X126845297Y-109268145D01*
X126747771Y-109365501D01*
X126525265Y-109273109D01*
X126275829Y-109272891D01*
X126045297Y-109368145D01*
X126000076Y-109413287D01*
X125955631Y-109368765D01*
X125725265Y-109273109D01*
X125475829Y-109272891D01*
X125245297Y-109368145D01*
X125068765Y-109544369D01*
X124973109Y-109774735D01*
X124972891Y-110024171D01*
X115385821Y-110024171D01*
X115426891Y-109925265D01*
X115427109Y-109675829D01*
X115331855Y-109445297D01*
X115155631Y-109268765D01*
X114925265Y-109173109D01*
X114675829Y-109172891D01*
X114445297Y-109268145D01*
X114268765Y-109444369D01*
X114173109Y-109674735D01*
X114172891Y-109924171D01*
X97402000Y-109924171D01*
X97402000Y-109902000D01*
X100100000Y-109902000D01*
X100253839Y-109871400D01*
X100384257Y-109784257D01*
X101266514Y-108902000D01*
X135211383Y-108902000D01*
X135068765Y-109044369D01*
M02*
