G04 #@! TF.FileFunction,Soldermask,Top*
%FSLAX46Y46*%
G04 Gerber Fmt 4.6, Leading zero omitted, Abs format (unit mm)*
G04 Created by KiCad (PCBNEW 4.0.1-stable) date 29/01/2016 19:20:18*
%MOMM*%
G01*
G04 APERTURE LIST*
%ADD10C,0.100000*%
%ADD11C,0.150000*%
%ADD12C,0.300000*%
%ADD13C,0.400000*%
%ADD14R,2.400000X1.400000*%
%ADD15R,0.750000X1.200000*%
%ADD16R,1.200000X0.750000*%
%ADD17R,1.950000X1.000000*%
%ADD18R,0.800000X1.000000*%
%ADD19R,1.000000X0.800000*%
%ADD20R,3.400000X1.600000*%
%ADD21R,1.000000X0.900000*%
%ADD22R,1.500000X1.900000*%
%ADD23R,1.924000X1.924000*%
%ADD24C,1.924000*%
G04 APERTURE END LIST*
D10*
D11*
X177002200Y-166007200D02*
X177002200Y-198007200D01*
X285002200Y-198007200D01*
X285002200Y-166007200D01*
X177002200Y-166007200D01*
D10*
D11*
X10000000Y-10000000D02*
X10000000Y-200007200D01*
X287002200Y-200007200D01*
X287002200Y-10000000D01*
X10000000Y-10000000D01*
D10*
D11*
X12000000Y-12000000D02*
X12000000Y-198007200D01*
X285002200Y-198007200D01*
X285002200Y-12000000D01*
X12000000Y-12000000D01*
D10*
D11*
X60000000Y-12000000D02*
X60000000Y-10000000D01*
D10*
D11*
X110000000Y-12000000D02*
X110000000Y-10000000D01*
D10*
D11*
X160000000Y-12000000D02*
X160000000Y-10000000D01*
D10*
D11*
X210000000Y-12000000D02*
X210000000Y-10000000D01*
D10*
D11*
X260000000Y-12000000D02*
X260000000Y-10000000D01*
D10*
D11*
X35990476Y-11588095D02*
X35247619Y-11588095D01*
X35619048Y-11588095D02*
X35619048Y-10288095D01*
X35495238Y-10473810D01*
X35371429Y-10597619D01*
X35247619Y-10659524D01*
D10*
D11*
X85247619Y-10411905D02*
X85309524Y-10350000D01*
X85433333Y-10288095D01*
X85742857Y-10288095D01*
X85866667Y-10350000D01*
X85928571Y-10411905D01*
X85990476Y-10535714D01*
X85990476Y-10659524D01*
X85928571Y-10845238D01*
X85185714Y-11588095D01*
X85990476Y-11588095D01*
D10*
D11*
X135185714Y-10288095D02*
X135990476Y-10288095D01*
X135557143Y-10783333D01*
X135742857Y-10783333D01*
X135866667Y-10845238D01*
X135928571Y-10907143D01*
X135990476Y-11030952D01*
X135990476Y-11340476D01*
X135928571Y-11464286D01*
X135866667Y-11526190D01*
X135742857Y-11588095D01*
X135371429Y-11588095D01*
X135247619Y-11526190D01*
X135185714Y-11464286D01*
D10*
D11*
X185866667Y-10721429D02*
X185866667Y-11588095D01*
X185557143Y-10226190D02*
X185247619Y-11154762D01*
X186052381Y-11154762D01*
D10*
D11*
X235928571Y-10288095D02*
X235309524Y-10288095D01*
X235247619Y-10907143D01*
X235309524Y-10845238D01*
X235433333Y-10783333D01*
X235742857Y-10783333D01*
X235866667Y-10845238D01*
X235928571Y-10907143D01*
X235990476Y-11030952D01*
X235990476Y-11340476D01*
X235928571Y-11464286D01*
X235866667Y-11526190D01*
X235742857Y-11588095D01*
X235433333Y-11588095D01*
X235309524Y-11526190D01*
X235247619Y-11464286D01*
D10*
D11*
X285866667Y-10288095D02*
X285619048Y-10288095D01*
X285495238Y-10350000D01*
X285433333Y-10411905D01*
X285309524Y-10597619D01*
X285247619Y-10845238D01*
X285247619Y-11340476D01*
X285309524Y-11464286D01*
X285371429Y-11526190D01*
X285495238Y-11588095D01*
X285742857Y-11588095D01*
X285866667Y-11526190D01*
X285928571Y-11464286D01*
X285990476Y-11340476D01*
X285990476Y-11030952D01*
X285928571Y-10907143D01*
X285866667Y-10845238D01*
X285742857Y-10783333D01*
X285495238Y-10783333D01*
X285371429Y-10845238D01*
X285309524Y-10907143D01*
X285247619Y-11030952D01*
D10*
D11*
X60000000Y-198007200D02*
X60000000Y-200007200D01*
D10*
D11*
X110000000Y-198007200D02*
X110000000Y-200007200D01*
D10*
D11*
X160000000Y-198007200D02*
X160000000Y-200007200D01*
D10*
D11*
X210000000Y-198007200D02*
X210000000Y-200007200D01*
D10*
D11*
X260000000Y-198007200D02*
X260000000Y-200007200D01*
D10*
D11*
X35990476Y-199595295D02*
X35247619Y-199595295D01*
X35619048Y-199595295D02*
X35619048Y-198295295D01*
X35495238Y-198481010D01*
X35371429Y-198604819D01*
X35247619Y-198666724D01*
D10*
D11*
X85247619Y-198419105D02*
X85309524Y-198357200D01*
X85433333Y-198295295D01*
X85742857Y-198295295D01*
X85866667Y-198357200D01*
X85928571Y-198419105D01*
X85990476Y-198542914D01*
X85990476Y-198666724D01*
X85928571Y-198852438D01*
X85185714Y-199595295D01*
X85990476Y-199595295D01*
D10*
D11*
X135185714Y-198295295D02*
X135990476Y-198295295D01*
X135557143Y-198790533D01*
X135742857Y-198790533D01*
X135866667Y-198852438D01*
X135928571Y-198914343D01*
X135990476Y-199038152D01*
X135990476Y-199347676D01*
X135928571Y-199471486D01*
X135866667Y-199533390D01*
X135742857Y-199595295D01*
X135371429Y-199595295D01*
X135247619Y-199533390D01*
X135185714Y-199471486D01*
D10*
D11*
X185866667Y-198728629D02*
X185866667Y-199595295D01*
X185557143Y-198233390D02*
X185247619Y-199161962D01*
X186052381Y-199161962D01*
D10*
D11*
X235928571Y-198295295D02*
X235309524Y-198295295D01*
X235247619Y-198914343D01*
X235309524Y-198852438D01*
X235433333Y-198790533D01*
X235742857Y-198790533D01*
X235866667Y-198852438D01*
X235928571Y-198914343D01*
X235990476Y-199038152D01*
X235990476Y-199347676D01*
X235928571Y-199471486D01*
X235866667Y-199533390D01*
X235742857Y-199595295D01*
X235433333Y-199595295D01*
X235309524Y-199533390D01*
X235247619Y-199471486D01*
D10*
D11*
X285866667Y-198295295D02*
X285619048Y-198295295D01*
X285495238Y-198357200D01*
X285433333Y-198419105D01*
X285309524Y-198604819D01*
X285247619Y-198852438D01*
X285247619Y-199347676D01*
X285309524Y-199471486D01*
X285371429Y-199533390D01*
X285495238Y-199595295D01*
X285742857Y-199595295D01*
X285866667Y-199533390D01*
X285928571Y-199471486D01*
X285990476Y-199347676D01*
X285990476Y-199038152D01*
X285928571Y-198914343D01*
X285866667Y-198852438D01*
X285742857Y-198790533D01*
X285495238Y-198790533D01*
X285371429Y-198852438D01*
X285309524Y-198914343D01*
X285247619Y-199038152D01*
D10*
D11*
X10000000Y-60000000D02*
X12000000Y-60000000D01*
D10*
D11*
X10000000Y-110000000D02*
X12000000Y-110000000D01*
D10*
D11*
X10000000Y-160000000D02*
X12000000Y-160000000D01*
D10*
D11*
X10690476Y-35216667D02*
X11309524Y-35216667D01*
X10566667Y-35588095D02*
X11000000Y-34288095D01*
X11433333Y-35588095D01*
D10*
D11*
X11092857Y-84907143D02*
X11278571Y-84969048D01*
X11340476Y-85030952D01*
X11402381Y-85154762D01*
X11402381Y-85340476D01*
X11340476Y-85464286D01*
X11278571Y-85526190D01*
X11154762Y-85588095D01*
X10659524Y-85588095D01*
X10659524Y-84288095D01*
X11092857Y-84288095D01*
X11216667Y-84350000D01*
X11278571Y-84411905D01*
X11340476Y-84535714D01*
X11340476Y-84659524D01*
X11278571Y-84783333D01*
X11216667Y-84845238D01*
X11092857Y-84907143D01*
X10659524Y-84907143D01*
D10*
D11*
X11402381Y-135464286D02*
X11340476Y-135526190D01*
X11154762Y-135588095D01*
X11030952Y-135588095D01*
X10845238Y-135526190D01*
X10721429Y-135402381D01*
X10659524Y-135278571D01*
X10597619Y-135030952D01*
X10597619Y-134845238D01*
X10659524Y-134597619D01*
X10721429Y-134473810D01*
X10845238Y-134350000D01*
X11030952Y-134288095D01*
X11154762Y-134288095D01*
X11340476Y-134350000D01*
X11402381Y-134411905D01*
D10*
D11*
X10659524Y-185588095D02*
X10659524Y-184288095D01*
X10969048Y-184288095D01*
X11154762Y-184350000D01*
X11278571Y-184473810D01*
X11340476Y-184597619D01*
X11402381Y-184845238D01*
X11402381Y-185030952D01*
X11340476Y-185278571D01*
X11278571Y-185402381D01*
X11154762Y-185526190D01*
X10969048Y-185588095D01*
X10659524Y-185588095D01*
D10*
D11*
X287002200Y-60000000D02*
X285002200Y-60000000D01*
D10*
D11*
X287002200Y-110000000D02*
X285002200Y-110000000D01*
D10*
D11*
X287002200Y-160000000D02*
X285002200Y-160000000D01*
D10*
D11*
X285692676Y-35216667D02*
X286311724Y-35216667D01*
X285568867Y-35588095D02*
X286002200Y-34288095D01*
X286435533Y-35588095D01*
D10*
D11*
X286095057Y-84907143D02*
X286280771Y-84969048D01*
X286342676Y-85030952D01*
X286404581Y-85154762D01*
X286404581Y-85340476D01*
X286342676Y-85464286D01*
X286280771Y-85526190D01*
X286156962Y-85588095D01*
X285661724Y-85588095D01*
X285661724Y-84288095D01*
X286095057Y-84288095D01*
X286218867Y-84350000D01*
X286280771Y-84411905D01*
X286342676Y-84535714D01*
X286342676Y-84659524D01*
X286280771Y-84783333D01*
X286218867Y-84845238D01*
X286095057Y-84907143D01*
X285661724Y-84907143D01*
D10*
D11*
X286404581Y-135464286D02*
X286342676Y-135526190D01*
X286156962Y-135588095D01*
X286033152Y-135588095D01*
X285847438Y-135526190D01*
X285723629Y-135402381D01*
X285661724Y-135278571D01*
X285599819Y-135030952D01*
X285599819Y-134845238D01*
X285661724Y-134597619D01*
X285723629Y-134473810D01*
X285847438Y-134350000D01*
X286033152Y-134288095D01*
X286156962Y-134288095D01*
X286342676Y-134350000D01*
X286404581Y-134411905D01*
D10*
D11*
X285661724Y-185588095D02*
X285661724Y-184288095D01*
X285971248Y-184288095D01*
X286156962Y-184350000D01*
X286280771Y-184473810D01*
X286342676Y-184597619D01*
X286404581Y-184845238D01*
X286404581Y-185030952D01*
X286342676Y-185278571D01*
X286280771Y-185402381D01*
X286156962Y-185526190D01*
X285971248Y-185588095D01*
X285661724Y-185588095D01*
D10*
D11*
X200359343Y-193785771D02*
X200359343Y-192285771D01*
X200716486Y-192285771D01*
X200930771Y-192357200D01*
X201073629Y-192500057D01*
X201145057Y-192642914D01*
X201216486Y-192928629D01*
X201216486Y-193142914D01*
X201145057Y-193428629D01*
X201073629Y-193571486D01*
X200930771Y-193714343D01*
X200716486Y-193785771D01*
X200359343Y-193785771D01*
X202502200Y-193785771D02*
X202502200Y-193000057D01*
X202430771Y-192857200D01*
X202287914Y-192785771D01*
X202002200Y-192785771D01*
X201859343Y-192857200D01*
X202502200Y-193714343D02*
X202359343Y-193785771D01*
X202002200Y-193785771D01*
X201859343Y-193714343D01*
X201787914Y-193571486D01*
X201787914Y-193428629D01*
X201859343Y-193285771D01*
X202002200Y-193214343D01*
X202359343Y-193214343D01*
X202502200Y-193142914D01*
X203002200Y-192785771D02*
X203573629Y-192785771D01*
X203216486Y-192285771D02*
X203216486Y-193571486D01*
X203287914Y-193714343D01*
X203430772Y-193785771D01*
X203573629Y-193785771D01*
X204645057Y-193714343D02*
X204502200Y-193785771D01*
X204216486Y-193785771D01*
X204073629Y-193714343D01*
X204002200Y-193571486D01*
X204002200Y-193000057D01*
X204073629Y-192857200D01*
X204216486Y-192785771D01*
X204502200Y-192785771D01*
X204645057Y-192857200D01*
X204716486Y-193000057D01*
X204716486Y-193142914D01*
X204002200Y-193285771D01*
X205359343Y-193642914D02*
X205430771Y-193714343D01*
X205359343Y-193785771D01*
X205287914Y-193714343D01*
X205359343Y-193642914D01*
X205359343Y-193785771D01*
X205359343Y-192857200D02*
X205430771Y-192928629D01*
X205359343Y-193000057D01*
X205287914Y-192928629D01*
X205359343Y-192857200D01*
X205359343Y-193000057D01*
X207145057Y-192428629D02*
X207216486Y-192357200D01*
X207359343Y-192285771D01*
X207716486Y-192285771D01*
X207859343Y-192357200D01*
X207930772Y-192428629D01*
X208002200Y-192571486D01*
X208002200Y-192714343D01*
X207930772Y-192928629D01*
X207073629Y-193785771D01*
X208002200Y-193785771D01*
X208930771Y-192285771D02*
X209073628Y-192285771D01*
X209216485Y-192357200D01*
X209287914Y-192428629D01*
X209359343Y-192571486D01*
X209430771Y-192857200D01*
X209430771Y-193214343D01*
X209359343Y-193500057D01*
X209287914Y-193642914D01*
X209216485Y-193714343D01*
X209073628Y-193785771D01*
X208930771Y-193785771D01*
X208787914Y-193714343D01*
X208716485Y-193642914D01*
X208645057Y-193500057D01*
X208573628Y-193214343D01*
X208573628Y-192857200D01*
X208645057Y-192571486D01*
X208716485Y-192428629D01*
X208787914Y-192357200D01*
X208930771Y-192285771D01*
X210859342Y-193785771D02*
X210002199Y-193785771D01*
X210430771Y-193785771D02*
X210430771Y-192285771D01*
X210287914Y-192500057D01*
X210145056Y-192642914D01*
X210002199Y-192714343D01*
X212145056Y-192285771D02*
X211859342Y-192285771D01*
X211716485Y-192357200D01*
X211645056Y-192428629D01*
X211502199Y-192642914D01*
X211430770Y-192928629D01*
X211430770Y-193500057D01*
X211502199Y-193642914D01*
X211573627Y-193714343D01*
X211716485Y-193785771D01*
X212002199Y-193785771D01*
X212145056Y-193714343D01*
X212216485Y-193642914D01*
X212287913Y-193500057D01*
X212287913Y-193142914D01*
X212216485Y-193000057D01*
X212145056Y-192928629D01*
X212002199Y-192857200D01*
X211716485Y-192857200D01*
X211573627Y-192928629D01*
X211502199Y-193000057D01*
X211430770Y-193142914D01*
X212930770Y-193214343D02*
X214073627Y-193214343D01*
X215073627Y-192285771D02*
X215216484Y-192285771D01*
X215359341Y-192357200D01*
X215430770Y-192428629D01*
X215502199Y-192571486D01*
X215573627Y-192857200D01*
X215573627Y-193214343D01*
X215502199Y-193500057D01*
X215430770Y-193642914D01*
X215359341Y-193714343D01*
X215216484Y-193785771D01*
X215073627Y-193785771D01*
X214930770Y-193714343D01*
X214859341Y-193642914D01*
X214787913Y-193500057D01*
X214716484Y-193214343D01*
X214716484Y-192857200D01*
X214787913Y-192571486D01*
X214859341Y-192428629D01*
X214930770Y-192357200D01*
X215073627Y-192285771D01*
X217002198Y-193785771D02*
X216145055Y-193785771D01*
X216573627Y-193785771D02*
X216573627Y-192285771D01*
X216430770Y-192500057D01*
X216287912Y-192642914D01*
X216145055Y-192714343D01*
X217645055Y-193214343D02*
X218787912Y-193214343D01*
X219430769Y-192428629D02*
X219502198Y-192357200D01*
X219645055Y-192285771D01*
X220002198Y-192285771D01*
X220145055Y-192357200D01*
X220216484Y-192428629D01*
X220287912Y-192571486D01*
X220287912Y-192714343D01*
X220216484Y-192928629D01*
X219359341Y-193785771D01*
X220287912Y-193785771D01*
X221216483Y-192285771D02*
X221359340Y-192285771D01*
X221502197Y-192357200D01*
X221573626Y-192428629D01*
X221645055Y-192571486D01*
X221716483Y-192857200D01*
X221716483Y-193214343D01*
X221645055Y-193500057D01*
X221573626Y-193642914D01*
X221502197Y-193714343D01*
X221359340Y-193785771D01*
X221216483Y-193785771D01*
X221073626Y-193714343D01*
X221002197Y-193642914D01*
X220930769Y-193500057D01*
X220859340Y-193214343D01*
X220859340Y-192857200D01*
X220930769Y-192571486D01*
X221002197Y-192428629D01*
X221073626Y-192357200D01*
X221216483Y-192285771D01*
D10*
D11*
X177002200Y-194507200D02*
X285002200Y-194507200D01*
D10*
D11*
X178359343Y-196585771D02*
X178359343Y-195085771D01*
X179216486Y-196585771D02*
X178573629Y-195728629D01*
X179216486Y-195085771D02*
X178359343Y-195942914D01*
X179859343Y-196585771D02*
X179859343Y-195585771D01*
X179859343Y-195085771D02*
X179787914Y-195157200D01*
X179859343Y-195228629D01*
X179930771Y-195157200D01*
X179859343Y-195085771D01*
X179859343Y-195228629D01*
X181430772Y-196442914D02*
X181359343Y-196514343D01*
X181145057Y-196585771D01*
X181002200Y-196585771D01*
X180787915Y-196514343D01*
X180645057Y-196371486D01*
X180573629Y-196228629D01*
X180502200Y-195942914D01*
X180502200Y-195728629D01*
X180573629Y-195442914D01*
X180645057Y-195300057D01*
X180787915Y-195157200D01*
X181002200Y-195085771D01*
X181145057Y-195085771D01*
X181359343Y-195157200D01*
X181430772Y-195228629D01*
X182716486Y-196585771D02*
X182716486Y-195800057D01*
X182645057Y-195657200D01*
X182502200Y-195585771D01*
X182216486Y-195585771D01*
X182073629Y-195657200D01*
X182716486Y-196514343D02*
X182573629Y-196585771D01*
X182216486Y-196585771D01*
X182073629Y-196514343D01*
X182002200Y-196371486D01*
X182002200Y-196228629D01*
X182073629Y-196085771D01*
X182216486Y-196014343D01*
X182573629Y-196014343D01*
X182716486Y-195942914D01*
X184073629Y-196585771D02*
X184073629Y-195085771D01*
X184073629Y-196514343D02*
X183930772Y-196585771D01*
X183645058Y-196585771D01*
X183502200Y-196514343D01*
X183430772Y-196442914D01*
X183359343Y-196300057D01*
X183359343Y-195871486D01*
X183430772Y-195728629D01*
X183502200Y-195657200D01*
X183645058Y-195585771D01*
X183930772Y-195585771D01*
X184073629Y-195657200D01*
X185930772Y-195800057D02*
X186430772Y-195800057D01*
X186645058Y-196585771D02*
X185930772Y-196585771D01*
X185930772Y-195085771D01*
X186645058Y-195085771D01*
X187287915Y-196442914D02*
X187359343Y-196514343D01*
X187287915Y-196585771D01*
X187216486Y-196514343D01*
X187287915Y-196442914D01*
X187287915Y-196585771D01*
X188002201Y-196585771D02*
X188002201Y-195085771D01*
X188359344Y-195085771D01*
X188573629Y-195157200D01*
X188716487Y-195300057D01*
X188787915Y-195442914D01*
X188859344Y-195728629D01*
X188859344Y-195942914D01*
X188787915Y-196228629D01*
X188716487Y-196371486D01*
X188573629Y-196514343D01*
X188359344Y-196585771D01*
X188002201Y-196585771D01*
X189502201Y-196442914D02*
X189573629Y-196514343D01*
X189502201Y-196585771D01*
X189430772Y-196514343D01*
X189502201Y-196442914D01*
X189502201Y-196585771D01*
X190145058Y-196157200D02*
X190859344Y-196157200D01*
X190002201Y-196585771D02*
X190502201Y-195085771D01*
X191002201Y-196585771D01*
X191502201Y-196442914D02*
X191573629Y-196514343D01*
X191502201Y-196585771D01*
X191430772Y-196514343D01*
X191502201Y-196442914D01*
X191502201Y-196585771D01*
X194502201Y-196585771D02*
X194502201Y-195085771D01*
X194645058Y-196014343D02*
X195073629Y-196585771D01*
X195073629Y-195585771D02*
X194502201Y-196157200D01*
X195716487Y-196585771D02*
X195716487Y-195585771D01*
X195716487Y-195085771D02*
X195645058Y-195157200D01*
X195716487Y-195228629D01*
X195787915Y-195157200D01*
X195716487Y-195085771D01*
X195716487Y-195228629D01*
X197073630Y-196514343D02*
X196930773Y-196585771D01*
X196645059Y-196585771D01*
X196502201Y-196514343D01*
X196430773Y-196442914D01*
X196359344Y-196300057D01*
X196359344Y-195871486D01*
X196430773Y-195728629D01*
X196502201Y-195657200D01*
X196645059Y-195585771D01*
X196930773Y-195585771D01*
X197073630Y-195657200D01*
X198359344Y-196585771D02*
X198359344Y-195800057D01*
X198287915Y-195657200D01*
X198145058Y-195585771D01*
X197859344Y-195585771D01*
X197716487Y-195657200D01*
X198359344Y-196514343D02*
X198216487Y-196585771D01*
X197859344Y-196585771D01*
X197716487Y-196514343D01*
X197645058Y-196371486D01*
X197645058Y-196228629D01*
X197716487Y-196085771D01*
X197859344Y-196014343D01*
X198216487Y-196014343D01*
X198359344Y-195942914D01*
X199716487Y-196585771D02*
X199716487Y-195085771D01*
X199716487Y-196514343D02*
X199573630Y-196585771D01*
X199287916Y-196585771D01*
X199145058Y-196514343D01*
X199073630Y-196442914D01*
X199002201Y-196300057D01*
X199002201Y-195871486D01*
X199073630Y-195728629D01*
X199145058Y-195657200D01*
X199287916Y-195585771D01*
X199573630Y-195585771D01*
X199716487Y-195657200D01*
X202216487Y-195585771D02*
X202216487Y-196585771D01*
X201859344Y-195014343D02*
X201502201Y-196085771D01*
X202430773Y-196085771D01*
X203002201Y-196442914D02*
X203073629Y-196514343D01*
X203002201Y-196585771D01*
X202930772Y-196514343D01*
X203002201Y-196442914D01*
X203002201Y-196585771D01*
X204002201Y-195085771D02*
X204145058Y-195085771D01*
X204287915Y-195157200D01*
X204359344Y-195228629D01*
X204430773Y-195371486D01*
X204502201Y-195657200D01*
X204502201Y-196014343D01*
X204430773Y-196300057D01*
X204359344Y-196442914D01*
X204287915Y-196514343D01*
X204145058Y-196585771D01*
X204002201Y-196585771D01*
X203859344Y-196514343D01*
X203787915Y-196442914D01*
X203716487Y-196300057D01*
X203645058Y-196014343D01*
X203645058Y-195657200D01*
X203716487Y-195371486D01*
X203787915Y-195228629D01*
X203859344Y-195157200D01*
X204002201Y-195085771D01*
X205145058Y-196442914D02*
X205216486Y-196514343D01*
X205145058Y-196585771D01*
X205073629Y-196514343D01*
X205145058Y-196442914D01*
X205145058Y-196585771D01*
X206645058Y-196585771D02*
X205787915Y-196585771D01*
X206216487Y-196585771D02*
X206216487Y-195085771D01*
X206073630Y-195300057D01*
X205930772Y-195442914D01*
X205787915Y-195514343D01*
X207287915Y-196014343D02*
X208430772Y-196014343D01*
X209073629Y-196514343D02*
X209216486Y-196585771D01*
X209502201Y-196585771D01*
X209645058Y-196514343D01*
X209716486Y-196371486D01*
X209716486Y-196300057D01*
X209645058Y-196157200D01*
X209502201Y-196085771D01*
X209287915Y-196085771D01*
X209145058Y-196014343D01*
X209073629Y-195871486D01*
X209073629Y-195800057D01*
X209145058Y-195657200D01*
X209287915Y-195585771D01*
X209502201Y-195585771D01*
X209645058Y-195657200D01*
X210145058Y-195585771D02*
X210716487Y-195585771D01*
X210359344Y-195085771D02*
X210359344Y-196371486D01*
X210430772Y-196514343D01*
X210573630Y-196585771D01*
X210716487Y-196585771D01*
X211859344Y-196585771D02*
X211859344Y-195800057D01*
X211787915Y-195657200D01*
X211645058Y-195585771D01*
X211359344Y-195585771D01*
X211216487Y-195657200D01*
X211859344Y-196514343D02*
X211716487Y-196585771D01*
X211359344Y-196585771D01*
X211216487Y-196514343D01*
X211145058Y-196371486D01*
X211145058Y-196228629D01*
X211216487Y-196085771D01*
X211359344Y-196014343D01*
X211716487Y-196014343D01*
X211859344Y-195942914D01*
X212573630Y-196585771D02*
X212573630Y-195085771D01*
X212573630Y-195657200D02*
X212716487Y-195585771D01*
X213002201Y-195585771D01*
X213145058Y-195657200D01*
X213216487Y-195728629D01*
X213287916Y-195871486D01*
X213287916Y-196300057D01*
X213216487Y-196442914D01*
X213145058Y-196514343D01*
X213002201Y-196585771D01*
X212716487Y-196585771D01*
X212573630Y-196514343D01*
X214145059Y-196585771D02*
X214002201Y-196514343D01*
X213930773Y-196371486D01*
X213930773Y-195085771D01*
X215287915Y-196514343D02*
X215145058Y-196585771D01*
X214859344Y-196585771D01*
X214716487Y-196514343D01*
X214645058Y-196371486D01*
X214645058Y-195800057D01*
X214716487Y-195657200D01*
X214859344Y-195585771D01*
X215145058Y-195585771D01*
X215287915Y-195657200D01*
X215359344Y-195800057D01*
X215359344Y-195942914D01*
X214645058Y-196085771D01*
D10*
D11*
X177002200Y-191507200D02*
X285002200Y-191507200D01*
D10*
D12*
X264216486Y-193785771D02*
X263716486Y-193071486D01*
X263359343Y-193785771D02*
X263359343Y-192285771D01*
X263930771Y-192285771D01*
X264073629Y-192357200D01*
X264145057Y-192428629D01*
X264216486Y-192571486D01*
X264216486Y-192785771D01*
X264145057Y-192928629D01*
X264073629Y-193000057D01*
X263930771Y-193071486D01*
X263359343Y-193071486D01*
X265430771Y-193714343D02*
X265287914Y-193785771D01*
X265002200Y-193785771D01*
X264859343Y-193714343D01*
X264787914Y-193571486D01*
X264787914Y-193000057D01*
X264859343Y-192857200D01*
X265002200Y-192785771D01*
X265287914Y-192785771D01*
X265430771Y-192857200D01*
X265502200Y-193000057D01*
X265502200Y-193142914D01*
X264787914Y-193285771D01*
X266002200Y-192785771D02*
X266359343Y-193785771D01*
X266716485Y-192785771D01*
X267287914Y-193642914D02*
X267359342Y-193714343D01*
X267287914Y-193785771D01*
X267216485Y-193714343D01*
X267287914Y-193642914D01*
X267287914Y-193785771D01*
X267287914Y-192857200D02*
X267359342Y-192928629D01*
X267287914Y-193000057D01*
X267216485Y-192928629D01*
X267287914Y-192857200D01*
X267287914Y-193000057D01*
X269930771Y-193785771D02*
X269073628Y-193785771D01*
X269502200Y-193785771D02*
X269502200Y-192285771D01*
X269359343Y-192500057D01*
X269216485Y-192642914D01*
X269073628Y-192714343D01*
D10*
D11*
X178287914Y-193714343D02*
X178502200Y-193785771D01*
X178859343Y-193785771D01*
X179002200Y-193714343D01*
X179073629Y-193642914D01*
X179145057Y-193500057D01*
X179145057Y-193357200D01*
X179073629Y-193214343D01*
X179002200Y-193142914D01*
X178859343Y-193071486D01*
X178573629Y-193000057D01*
X178430771Y-192928629D01*
X178359343Y-192857200D01*
X178287914Y-192714343D01*
X178287914Y-192571486D01*
X178359343Y-192428629D01*
X178430771Y-192357200D01*
X178573629Y-192285771D01*
X178930771Y-192285771D01*
X179145057Y-192357200D01*
X179787914Y-193785771D02*
X179787914Y-192785771D01*
X179787914Y-192285771D02*
X179716485Y-192357200D01*
X179787914Y-192428629D01*
X179859342Y-192357200D01*
X179787914Y-192285771D01*
X179787914Y-192428629D01*
X180359343Y-192785771D02*
X181145057Y-192785771D01*
X180359343Y-193785771D01*
X181145057Y-193785771D01*
X182287914Y-193714343D02*
X182145057Y-193785771D01*
X181859343Y-193785771D01*
X181716486Y-193714343D01*
X181645057Y-193571486D01*
X181645057Y-193000057D01*
X181716486Y-192857200D01*
X181859343Y-192785771D01*
X182145057Y-192785771D01*
X182287914Y-192857200D01*
X182359343Y-193000057D01*
X182359343Y-193142914D01*
X181645057Y-193285771D01*
X183002200Y-193642914D02*
X183073628Y-193714343D01*
X183002200Y-193785771D01*
X182930771Y-193714343D01*
X183002200Y-193642914D01*
X183002200Y-193785771D01*
X183002200Y-192857200D02*
X183073628Y-192928629D01*
X183002200Y-193000057D01*
X182930771Y-192928629D01*
X183002200Y-192857200D01*
X183002200Y-193000057D01*
X184787914Y-193357200D02*
X185502200Y-193357200D01*
X184645057Y-193785771D02*
X185145057Y-192285771D01*
X185645057Y-193785771D01*
X186787914Y-192785771D02*
X186787914Y-193785771D01*
X186430771Y-192214343D02*
X186073628Y-193285771D01*
X187002200Y-193285771D01*
D10*
D11*
X263359343Y-196585771D02*
X263359343Y-195085771D01*
X264716486Y-196585771D02*
X264716486Y-195085771D01*
X264716486Y-196514343D02*
X264573629Y-196585771D01*
X264287915Y-196585771D01*
X264145057Y-196514343D01*
X264073629Y-196442914D01*
X264002200Y-196300057D01*
X264002200Y-195871486D01*
X264073629Y-195728629D01*
X264145057Y-195657200D01*
X264287915Y-195585771D01*
X264573629Y-195585771D01*
X264716486Y-195657200D01*
X265430772Y-196442914D02*
X265502200Y-196514343D01*
X265430772Y-196585771D01*
X265359343Y-196514343D01*
X265430772Y-196442914D01*
X265430772Y-196585771D01*
X265430772Y-195657200D02*
X265502200Y-195728629D01*
X265430772Y-195800057D01*
X265359343Y-195728629D01*
X265430772Y-195657200D01*
X265430772Y-195800057D01*
X268073629Y-196585771D02*
X267216486Y-196585771D01*
X267645058Y-196585771D02*
X267645058Y-195085771D01*
X267502201Y-195300057D01*
X267359343Y-195442914D01*
X267216486Y-195514343D01*
X269787914Y-195014343D02*
X268502200Y-196942914D01*
X271073629Y-196585771D02*
X270216486Y-196585771D01*
X270645058Y-196585771D02*
X270645058Y-195085771D01*
X270502201Y-195300057D01*
X270359343Y-195442914D01*
X270216486Y-195514343D01*
D10*
D11*
X177002200Y-187507200D02*
X285002200Y-187507200D01*
D10*
D13*
X178454581Y-188211962D02*
X179597438Y-188211962D01*
X178776010Y-190211962D02*
X179026010Y-188211962D01*
X180014105Y-190211962D02*
X180180771Y-188878629D01*
X180264105Y-188211962D02*
X180156962Y-188307200D01*
X180240295Y-188402438D01*
X180347439Y-188307200D01*
X180264105Y-188211962D01*
X180240295Y-188402438D01*
X180847438Y-188878629D02*
X181609343Y-188878629D01*
X181216486Y-188211962D02*
X181002200Y-189926248D01*
X181073630Y-190116724D01*
X181252201Y-190211962D01*
X181442677Y-190211962D01*
X182395058Y-190211962D02*
X182216487Y-190116724D01*
X182145057Y-189926248D01*
X182359343Y-188211962D01*
X183930772Y-190116724D02*
X183728391Y-190211962D01*
X183347439Y-190211962D01*
X183168867Y-190116724D01*
X183097438Y-189926248D01*
X183192676Y-189164343D01*
X183311724Y-188973867D01*
X183514105Y-188878629D01*
X183895057Y-188878629D01*
X184073629Y-188973867D01*
X184145057Y-189164343D01*
X184121248Y-189354819D01*
X183145057Y-189545295D01*
X184895057Y-190021486D02*
X184978392Y-190116724D01*
X184871248Y-190211962D01*
X184787915Y-190116724D01*
X184895057Y-190021486D01*
X184871248Y-190211962D01*
X185026010Y-188973867D02*
X185109344Y-189069105D01*
X185002200Y-189164343D01*
X184918867Y-189069105D01*
X185026010Y-188973867D01*
X185002200Y-189164343D01*
X187347439Y-190211962D02*
X187597439Y-188211962D01*
X187478391Y-189164343D02*
X188621249Y-189164343D01*
X188490297Y-190211962D02*
X188740297Y-188211962D01*
X189728392Y-190211962D02*
X189549821Y-190116724D01*
X189466486Y-190021486D01*
X189395058Y-189831010D01*
X189466486Y-189259581D01*
X189585534Y-189069105D01*
X189692678Y-188973867D01*
X189895058Y-188878629D01*
X190180772Y-188878629D01*
X190359344Y-188973867D01*
X190442677Y-189069105D01*
X190514105Y-189259581D01*
X190442677Y-189831010D01*
X190323629Y-190021486D01*
X190216487Y-190116724D01*
X190014106Y-190211962D01*
X189728392Y-190211962D01*
X191133153Y-188878629D02*
X191895058Y-188878629D01*
X191502201Y-188211962D02*
X191287915Y-189926248D01*
X191359345Y-190116724D01*
X191537916Y-190211962D01*
X191728392Y-190211962D01*
X192311725Y-190116724D02*
X192490297Y-190211962D01*
X192871249Y-190211962D01*
X193073630Y-190116724D01*
X193192677Y-189926248D01*
X193204582Y-189831010D01*
X193133153Y-189640533D01*
X192954582Y-189545295D01*
X192668868Y-189545295D01*
X192490296Y-189450057D01*
X192418867Y-189259581D01*
X192430772Y-189164343D01*
X192549820Y-188973867D01*
X192752201Y-188878629D01*
X193037915Y-188878629D01*
X193216487Y-188973867D01*
X193895058Y-188878629D02*
X194656963Y-188878629D01*
X194264106Y-188211962D02*
X194049820Y-189926248D01*
X194121250Y-190116724D01*
X194299821Y-190211962D01*
X194490297Y-190211962D01*
X195156963Y-190211962D02*
X195323629Y-188878629D01*
X195406963Y-188211962D02*
X195299820Y-188307200D01*
X195383153Y-188402438D01*
X195490297Y-188307200D01*
X195406963Y-188211962D01*
X195383153Y-188402438D01*
X196978392Y-190116724D02*
X196776011Y-190211962D01*
X196395059Y-190211962D01*
X196216488Y-190116724D01*
X196133153Y-190021486D01*
X196061725Y-189831010D01*
X196133153Y-189259581D01*
X196252201Y-189069105D01*
X196359345Y-188973867D01*
X196561725Y-188878629D01*
X196942677Y-188878629D01*
X197121249Y-188973867D01*
X197823630Y-190211962D02*
X198073630Y-188211962D01*
X198109345Y-189450057D02*
X198585535Y-190211962D01*
X198752201Y-188878629D02*
X197895058Y-189640533D01*
X201026012Y-188211962D02*
X201252203Y-190211962D01*
X201811726Y-188783390D01*
X202014108Y-190211962D01*
X202740298Y-188211962D01*
X204109345Y-190211962D02*
X204240297Y-189164343D01*
X204168869Y-188973867D01*
X203990297Y-188878629D01*
X203609345Y-188878629D01*
X203406964Y-188973867D01*
X204121250Y-190116724D02*
X203918869Y-190211962D01*
X203442679Y-190211962D01*
X203264107Y-190116724D01*
X203192678Y-189926248D01*
X203216488Y-189735771D01*
X203335535Y-189545295D01*
X203537917Y-189450057D01*
X204014107Y-189450057D01*
X204216488Y-189354819D01*
X205228392Y-188878629D02*
X205061726Y-190211962D01*
X205204583Y-189069105D02*
X205311727Y-188973867D01*
X205514107Y-188878629D01*
X205799821Y-188878629D01*
X205978393Y-188973867D01*
X206049821Y-189164343D01*
X205918869Y-190211962D01*
X207728393Y-190211962D02*
X207978393Y-188211962D01*
X207740298Y-190116724D02*
X207537917Y-190211962D01*
X207156965Y-190211962D01*
X206978394Y-190116724D01*
X206895059Y-190021486D01*
X206823631Y-189831010D01*
X206895059Y-189259581D01*
X207014107Y-189069105D01*
X207121251Y-188973867D01*
X207323631Y-188878629D01*
X207704583Y-188878629D01*
X207883155Y-188973867D01*
D10*
D11*
X178859343Y-185600057D02*
X178359343Y-185600057D01*
X178359343Y-186385771D02*
X178359343Y-184885771D01*
X179073629Y-184885771D01*
X179645057Y-186385771D02*
X179645057Y-185385771D01*
X179645057Y-184885771D02*
X179573628Y-184957200D01*
X179645057Y-185028629D01*
X179716485Y-184957200D01*
X179645057Y-184885771D01*
X179645057Y-185028629D01*
X180573629Y-186385771D02*
X180430771Y-186314343D01*
X180359343Y-186171486D01*
X180359343Y-184885771D01*
X181716485Y-186314343D02*
X181573628Y-186385771D01*
X181287914Y-186385771D01*
X181145057Y-186314343D01*
X181073628Y-186171486D01*
X181073628Y-185600057D01*
X181145057Y-185457200D01*
X181287914Y-185385771D01*
X181573628Y-185385771D01*
X181716485Y-185457200D01*
X181787914Y-185600057D01*
X181787914Y-185742914D01*
X181073628Y-185885771D01*
X182430771Y-186242914D02*
X182502199Y-186314343D01*
X182430771Y-186385771D01*
X182359342Y-186314343D01*
X182430771Y-186242914D01*
X182430771Y-186385771D01*
X182430771Y-185457200D02*
X182502199Y-185528629D01*
X182430771Y-185600057D01*
X182359342Y-185528629D01*
X182430771Y-185457200D01*
X182430771Y-185600057D01*
X184145057Y-184885771D02*
X184502200Y-186385771D01*
X184787914Y-185314343D01*
X185073628Y-186385771D01*
X185430771Y-184885771D01*
X186645057Y-186385771D02*
X186645057Y-185600057D01*
X186573628Y-185457200D01*
X186430771Y-185385771D01*
X186145057Y-185385771D01*
X186002200Y-185457200D01*
X186645057Y-186314343D02*
X186502200Y-186385771D01*
X186145057Y-186385771D01*
X186002200Y-186314343D01*
X185930771Y-186171486D01*
X185930771Y-186028629D01*
X186002200Y-185885771D01*
X186145057Y-185814343D01*
X186502200Y-185814343D01*
X186645057Y-185742914D01*
X187359343Y-185385771D02*
X187359343Y-186385771D01*
X187359343Y-185528629D02*
X187430771Y-185457200D01*
X187573629Y-185385771D01*
X187787914Y-185385771D01*
X187930771Y-185457200D01*
X188002200Y-185600057D01*
X188002200Y-186385771D01*
X189359343Y-186385771D02*
X189359343Y-184885771D01*
X189359343Y-186314343D02*
X189216486Y-186385771D01*
X188930772Y-186385771D01*
X188787914Y-186314343D01*
X188716486Y-186242914D01*
X188645057Y-186100057D01*
X188645057Y-185671486D01*
X188716486Y-185528629D01*
X188787914Y-185457200D01*
X188930772Y-185385771D01*
X189216486Y-185385771D01*
X189359343Y-185457200D01*
X190073629Y-186242914D02*
X190145057Y-186314343D01*
X190073629Y-186385771D01*
X190002200Y-186314343D01*
X190073629Y-186242914D01*
X190073629Y-186385771D01*
X190787915Y-186385771D02*
X190787915Y-184885771D01*
X190930772Y-185814343D02*
X191359343Y-186385771D01*
X191359343Y-185385771D02*
X190787915Y-185957200D01*
X192002201Y-186385771D02*
X192002201Y-185385771D01*
X192002201Y-184885771D02*
X191930772Y-184957200D01*
X192002201Y-185028629D01*
X192073629Y-184957200D01*
X192002201Y-184885771D01*
X192002201Y-185028629D01*
X193359344Y-186314343D02*
X193216487Y-186385771D01*
X192930773Y-186385771D01*
X192787915Y-186314343D01*
X192716487Y-186242914D01*
X192645058Y-186100057D01*
X192645058Y-185671486D01*
X192716487Y-185528629D01*
X192787915Y-185457200D01*
X192930773Y-185385771D01*
X193216487Y-185385771D01*
X193359344Y-185457200D01*
X194645058Y-186385771D02*
X194645058Y-185600057D01*
X194573629Y-185457200D01*
X194430772Y-185385771D01*
X194145058Y-185385771D01*
X194002201Y-185457200D01*
X194645058Y-186314343D02*
X194502201Y-186385771D01*
X194145058Y-186385771D01*
X194002201Y-186314343D01*
X193930772Y-186171486D01*
X193930772Y-186028629D01*
X194002201Y-185885771D01*
X194145058Y-185814343D01*
X194502201Y-185814343D01*
X194645058Y-185742914D01*
X196002201Y-186385771D02*
X196002201Y-184885771D01*
X196002201Y-186314343D02*
X195859344Y-186385771D01*
X195573630Y-186385771D01*
X195430772Y-186314343D01*
X195359344Y-186242914D01*
X195287915Y-186100057D01*
X195287915Y-185671486D01*
X195359344Y-185528629D01*
X195430772Y-185457200D01*
X195573630Y-185385771D01*
X195859344Y-185385771D01*
X196002201Y-185457200D01*
X196359344Y-186528629D02*
X197502201Y-186528629D01*
X197859344Y-185385771D02*
X197859344Y-186885771D01*
X197859344Y-185457200D02*
X198002201Y-185385771D01*
X198287915Y-185385771D01*
X198430772Y-185457200D01*
X198502201Y-185528629D01*
X198573630Y-185671486D01*
X198573630Y-186100057D01*
X198502201Y-186242914D01*
X198430772Y-186314343D01*
X198287915Y-186385771D01*
X198002201Y-186385771D01*
X197859344Y-186314343D01*
X199859344Y-186314343D02*
X199716487Y-186385771D01*
X199430773Y-186385771D01*
X199287915Y-186314343D01*
X199216487Y-186242914D01*
X199145058Y-186100057D01*
X199145058Y-185671486D01*
X199216487Y-185528629D01*
X199287915Y-185457200D01*
X199430773Y-185385771D01*
X199716487Y-185385771D01*
X199859344Y-185457200D01*
X200502201Y-186385771D02*
X200502201Y-184885771D01*
X200502201Y-185457200D02*
X200645058Y-185385771D01*
X200930772Y-185385771D01*
X201073629Y-185457200D01*
X201145058Y-185528629D01*
X201216487Y-185671486D01*
X201216487Y-186100057D01*
X201145058Y-186242914D01*
X201073629Y-186314343D01*
X200930772Y-186385771D01*
X200645058Y-186385771D01*
X200502201Y-186314343D01*
D10*
D11*
X177002200Y-181507200D02*
X285002200Y-181507200D01*
D10*
D11*
X178287914Y-183614343D02*
X178502200Y-183685771D01*
X178859343Y-183685771D01*
X179002200Y-183614343D01*
X179073629Y-183542914D01*
X179145057Y-183400057D01*
X179145057Y-183257200D01*
X179073629Y-183114343D01*
X179002200Y-183042914D01*
X178859343Y-182971486D01*
X178573629Y-182900057D01*
X178430771Y-182828629D01*
X178359343Y-182757200D01*
X178287914Y-182614343D01*
X178287914Y-182471486D01*
X178359343Y-182328629D01*
X178430771Y-182257200D01*
X178573629Y-182185771D01*
X178930771Y-182185771D01*
X179145057Y-182257200D01*
X179787914Y-183685771D02*
X179787914Y-182185771D01*
X180430771Y-183685771D02*
X180430771Y-182900057D01*
X180359342Y-182757200D01*
X180216485Y-182685771D01*
X180002200Y-182685771D01*
X179859342Y-182757200D01*
X179787914Y-182828629D01*
X181716485Y-183614343D02*
X181573628Y-183685771D01*
X181287914Y-183685771D01*
X181145057Y-183614343D01*
X181073628Y-183471486D01*
X181073628Y-182900057D01*
X181145057Y-182757200D01*
X181287914Y-182685771D01*
X181573628Y-182685771D01*
X181716485Y-182757200D01*
X181787914Y-182900057D01*
X181787914Y-183042914D01*
X181073628Y-183185771D01*
X183002199Y-183614343D02*
X182859342Y-183685771D01*
X182573628Y-183685771D01*
X182430771Y-183614343D01*
X182359342Y-183471486D01*
X182359342Y-182900057D01*
X182430771Y-182757200D01*
X182573628Y-182685771D01*
X182859342Y-182685771D01*
X183002199Y-182757200D01*
X183073628Y-182900057D01*
X183073628Y-183042914D01*
X182359342Y-183185771D01*
X183502199Y-182685771D02*
X184073628Y-182685771D01*
X183716485Y-182185771D02*
X183716485Y-183471486D01*
X183787913Y-183614343D01*
X183930771Y-183685771D01*
X184073628Y-183685771D01*
X184573628Y-183542914D02*
X184645056Y-183614343D01*
X184573628Y-183685771D01*
X184502199Y-183614343D01*
X184573628Y-183542914D01*
X184573628Y-183685771D01*
X184573628Y-182757200D02*
X184645056Y-182828629D01*
X184573628Y-182900057D01*
X184502199Y-182828629D01*
X184573628Y-182757200D01*
X184573628Y-182900057D01*
D10*
D12*
X178359343Y-180685771D02*
X178359343Y-179685771D01*
X178359343Y-179971486D02*
X178430771Y-179828629D01*
X178502200Y-179757200D01*
X178645057Y-179685771D01*
X178787914Y-179685771D01*
X180002200Y-180685771D02*
X179287914Y-180685771D01*
X179287914Y-179185771D01*
X181145057Y-180685771D02*
X181145057Y-179900057D01*
X181073628Y-179757200D01*
X180930771Y-179685771D01*
X180645057Y-179685771D01*
X180502200Y-179757200D01*
X181145057Y-180614343D02*
X181002200Y-180685771D01*
X180645057Y-180685771D01*
X180502200Y-180614343D01*
X180430771Y-180471486D01*
X180430771Y-180328629D01*
X180502200Y-180185771D01*
X180645057Y-180114343D01*
X181002200Y-180114343D01*
X181145057Y-180042914D01*
X181859343Y-180685771D02*
X181859343Y-179185771D01*
X181859343Y-179757200D02*
X182002200Y-179685771D01*
X182287914Y-179685771D01*
X182430771Y-179757200D01*
X182502200Y-179828629D01*
X182573629Y-179971486D01*
X182573629Y-180400057D01*
X182502200Y-180542914D01*
X182430771Y-180614343D01*
X182287914Y-180685771D01*
X182002200Y-180685771D01*
X181859343Y-180614343D01*
X184287914Y-179114343D02*
X183002200Y-181042914D01*
X185645058Y-180685771D02*
X185145058Y-179971486D01*
X184787915Y-180685771D02*
X184787915Y-179185771D01*
X185359343Y-179185771D01*
X185502201Y-179257200D01*
X185573629Y-179328629D01*
X185645058Y-179471486D01*
X185645058Y-179685771D01*
X185573629Y-179828629D01*
X185502201Y-179900057D01*
X185359343Y-179971486D01*
X184787915Y-179971486D01*
X186859343Y-180614343D02*
X186716486Y-180685771D01*
X186430772Y-180685771D01*
X186287915Y-180614343D01*
X186216486Y-180471486D01*
X186216486Y-179900057D01*
X186287915Y-179757200D01*
X186430772Y-179685771D01*
X186716486Y-179685771D01*
X186859343Y-179757200D01*
X186930772Y-179900057D01*
X186930772Y-180042914D01*
X186216486Y-180185771D01*
X188216486Y-180685771D02*
X188216486Y-179900057D01*
X188145057Y-179757200D01*
X188002200Y-179685771D01*
X187716486Y-179685771D01*
X187573629Y-179757200D01*
X188216486Y-180614343D02*
X188073629Y-180685771D01*
X187716486Y-180685771D01*
X187573629Y-180614343D01*
X187502200Y-180471486D01*
X187502200Y-180328629D01*
X187573629Y-180185771D01*
X187716486Y-180114343D01*
X188073629Y-180114343D01*
X188216486Y-180042914D01*
X189573629Y-180685771D02*
X189573629Y-179185771D01*
X189573629Y-180614343D02*
X189430772Y-180685771D01*
X189145058Y-180685771D01*
X189002200Y-180614343D01*
X188930772Y-180542914D01*
X188859343Y-180400057D01*
X188859343Y-179971486D01*
X188930772Y-179828629D01*
X189002200Y-179757200D01*
X189145058Y-179685771D01*
X189430772Y-179685771D01*
X189573629Y-179757200D01*
X190287915Y-180685771D02*
X190287915Y-179685771D01*
X190287915Y-179185771D02*
X190216486Y-179257200D01*
X190287915Y-179328629D01*
X190359343Y-179257200D01*
X190287915Y-179185771D01*
X190287915Y-179328629D01*
X191002201Y-179685771D02*
X191002201Y-180685771D01*
X191002201Y-179828629D02*
X191073629Y-179757200D01*
X191216487Y-179685771D01*
X191430772Y-179685771D01*
X191573629Y-179757200D01*
X191645058Y-179900057D01*
X191645058Y-180685771D01*
X193002201Y-179685771D02*
X193002201Y-180900057D01*
X192930772Y-181042914D01*
X192859344Y-181114343D01*
X192716487Y-181185771D01*
X192502201Y-181185771D01*
X192359344Y-181114343D01*
X193002201Y-180614343D02*
X192859344Y-180685771D01*
X192573630Y-180685771D01*
X192430772Y-180614343D01*
X192359344Y-180542914D01*
X192287915Y-180400057D01*
X192287915Y-179971486D01*
X192359344Y-179828629D01*
X192430772Y-179757200D01*
X192573630Y-179685771D01*
X192859344Y-179685771D01*
X193002201Y-179757200D01*
X194859344Y-180685771D02*
X194859344Y-179185771D01*
X194859344Y-179900057D02*
X195716487Y-179900057D01*
X195716487Y-180685771D02*
X195716487Y-179185771D01*
X197073630Y-180685771D02*
X197073630Y-179900057D01*
X197002201Y-179757200D01*
X196859344Y-179685771D01*
X196573630Y-179685771D01*
X196430773Y-179757200D01*
X197073630Y-180614343D02*
X196930773Y-180685771D01*
X196573630Y-180685771D01*
X196430773Y-180614343D01*
X196359344Y-180471486D01*
X196359344Y-180328629D01*
X196430773Y-180185771D01*
X196573630Y-180114343D01*
X196930773Y-180114343D01*
X197073630Y-180042914D01*
X198430773Y-180614343D02*
X198287916Y-180685771D01*
X198002202Y-180685771D01*
X197859344Y-180614343D01*
X197787916Y-180542914D01*
X197716487Y-180400057D01*
X197716487Y-179971486D01*
X197787916Y-179828629D01*
X197859344Y-179757200D01*
X198002202Y-179685771D01*
X198287916Y-179685771D01*
X198430773Y-179757200D01*
X199073630Y-180685771D02*
X199073630Y-179185771D01*
X199216487Y-180114343D02*
X199645058Y-180685771D01*
X199645058Y-179685771D02*
X199073630Y-180257200D01*
X200216487Y-180614343D02*
X200359344Y-180685771D01*
X200645059Y-180685771D01*
X200787916Y-180614343D01*
X200859344Y-180471486D01*
X200859344Y-180400057D01*
X200787916Y-180257200D01*
X200645059Y-180185771D01*
X200430773Y-180185771D01*
X200287916Y-180114343D01*
X200216487Y-179971486D01*
X200216487Y-179900057D01*
X200287916Y-179757200D01*
X200430773Y-179685771D01*
X200645059Y-179685771D01*
X200787916Y-179757200D01*
X201502202Y-179685771D02*
X201502202Y-181185771D01*
X201502202Y-179757200D02*
X201645059Y-179685771D01*
X201930773Y-179685771D01*
X202073630Y-179757200D01*
X202145059Y-179828629D01*
X202216488Y-179971486D01*
X202216488Y-180400057D01*
X202145059Y-180542914D01*
X202073630Y-180614343D01*
X201930773Y-180685771D01*
X201645059Y-180685771D01*
X201502202Y-180614343D01*
X203502202Y-180685771D02*
X203502202Y-179900057D01*
X203430773Y-179757200D01*
X203287916Y-179685771D01*
X203002202Y-179685771D01*
X202859345Y-179757200D01*
X203502202Y-180614343D02*
X203359345Y-180685771D01*
X203002202Y-180685771D01*
X202859345Y-180614343D01*
X202787916Y-180471486D01*
X202787916Y-180328629D01*
X202859345Y-180185771D01*
X203002202Y-180114343D01*
X203359345Y-180114343D01*
X203502202Y-180042914D01*
X204859345Y-180614343D02*
X204716488Y-180685771D01*
X204430774Y-180685771D01*
X204287916Y-180614343D01*
X204216488Y-180542914D01*
X204145059Y-180400057D01*
X204145059Y-179971486D01*
X204216488Y-179828629D01*
X204287916Y-179757200D01*
X204430774Y-179685771D01*
X204716488Y-179685771D01*
X204859345Y-179757200D01*
X206073630Y-180614343D02*
X205930773Y-180685771D01*
X205645059Y-180685771D01*
X205502202Y-180614343D01*
X205430773Y-180471486D01*
X205430773Y-179900057D01*
X205502202Y-179757200D01*
X205645059Y-179685771D01*
X205930773Y-179685771D01*
X206073630Y-179757200D01*
X206145059Y-179900057D01*
X206145059Y-180042914D01*
X205430773Y-180185771D01*
D10*
D11*
X197002200Y-191507200D02*
X197002200Y-194507200D01*
D10*
D11*
X261002200Y-191507200D02*
X261002200Y-198007200D01*
D14*
X145900000Y-113500000D03*
X145900000Y-110500000D03*
X145900000Y-112000000D03*
D15*
X121950000Y-110000000D03*
X121450000Y-110000000D03*
X120950000Y-110000000D03*
X120450000Y-110000000D03*
X119950000Y-110000000D03*
X119450000Y-110000000D03*
D16*
X118700000Y-110750000D03*
X118700000Y-111250000D03*
X118700000Y-111750000D03*
X118700000Y-112250000D03*
X118700000Y-112750000D03*
X118700000Y-113250000D03*
D15*
X119450000Y-114000000D03*
X119950000Y-114000000D03*
X120450000Y-114000000D03*
X120950000Y-114000000D03*
X121450000Y-114000000D03*
X121950000Y-114000000D03*
D16*
X122700000Y-113250000D03*
X122700000Y-112750000D03*
X122700000Y-112250000D03*
X122700000Y-111750000D03*
X122700000Y-111250000D03*
X122700000Y-110750000D03*
D17*
X101600000Y-110095000D03*
X101600000Y-111365000D03*
X101600000Y-112635000D03*
X101600000Y-113905000D03*
X107000000Y-113905000D03*
X107000000Y-112635000D03*
X107000000Y-111365000D03*
X107000000Y-110095000D03*
D10*
G36*
X127008454Y-113120764D02*
X126570048Y-112682358D01*
X127418576Y-111833830D01*
X127856982Y-112272236D01*
X127008454Y-113120764D01*
X127008454Y-113120764D01*
G37*
G36*
X127326652Y-113438962D02*
X126888246Y-113000556D01*
X127736774Y-112152028D01*
X128175180Y-112590434D01*
X127326652Y-113438962D01*
X127326652Y-113438962D01*
G37*
G36*
X127644850Y-113757160D02*
X127206444Y-113318754D01*
X128054972Y-112470226D01*
X128493378Y-112908632D01*
X127644850Y-113757160D01*
X127644850Y-113757160D01*
G37*
G36*
X127963048Y-114075358D02*
X127524642Y-113636952D01*
X128373170Y-112788424D01*
X128811576Y-113226830D01*
X127963048Y-114075358D01*
X127963048Y-114075358D01*
G37*
G36*
X128281246Y-114393556D02*
X127842840Y-113955150D01*
X128691368Y-113106622D01*
X129129774Y-113545028D01*
X128281246Y-114393556D01*
X128281246Y-114393556D01*
G37*
G36*
X128599444Y-114711754D02*
X128161038Y-114273348D01*
X129009566Y-113424820D01*
X129447972Y-113863226D01*
X128599444Y-114711754D01*
X128599444Y-114711754D01*
G37*
G36*
X128917642Y-115029952D02*
X128479236Y-114591546D01*
X129327764Y-113743018D01*
X129766170Y-114181424D01*
X128917642Y-115029952D01*
X128917642Y-115029952D01*
G37*
G36*
X130720764Y-114591546D02*
X130282358Y-115029952D01*
X129433830Y-114181424D01*
X129872236Y-113743018D01*
X130720764Y-114591546D01*
X130720764Y-114591546D01*
G37*
G36*
X131038962Y-114273348D02*
X130600556Y-114711754D01*
X129752028Y-113863226D01*
X130190434Y-113424820D01*
X131038962Y-114273348D01*
X131038962Y-114273348D01*
G37*
G36*
X131357160Y-113955150D02*
X130918754Y-114393556D01*
X130070226Y-113545028D01*
X130508632Y-113106622D01*
X131357160Y-113955150D01*
X131357160Y-113955150D01*
G37*
G36*
X131675358Y-113636952D02*
X131236952Y-114075358D01*
X130388424Y-113226830D01*
X130826830Y-112788424D01*
X131675358Y-113636952D01*
X131675358Y-113636952D01*
G37*
G36*
X131993556Y-113318754D02*
X131555150Y-113757160D01*
X130706622Y-112908632D01*
X131145028Y-112470226D01*
X131993556Y-113318754D01*
X131993556Y-113318754D01*
G37*
G36*
X132311754Y-113000556D02*
X131873348Y-113438962D01*
X131024820Y-112590434D01*
X131463226Y-112152028D01*
X132311754Y-113000556D01*
X132311754Y-113000556D01*
G37*
G36*
X132629952Y-112682358D02*
X132191546Y-113120764D01*
X131343018Y-112272236D01*
X131781424Y-111833830D01*
X132629952Y-112682358D01*
X132629952Y-112682358D01*
G37*
G36*
X131781424Y-112166170D02*
X131343018Y-111727764D01*
X132191546Y-110879236D01*
X132629952Y-111317642D01*
X131781424Y-112166170D01*
X131781424Y-112166170D01*
G37*
G36*
X131463226Y-111847972D02*
X131024820Y-111409566D01*
X131873348Y-110561038D01*
X132311754Y-110999444D01*
X131463226Y-111847972D01*
X131463226Y-111847972D01*
G37*
G36*
X131145028Y-111529774D02*
X130706622Y-111091368D01*
X131555150Y-110242840D01*
X131993556Y-110681246D01*
X131145028Y-111529774D01*
X131145028Y-111529774D01*
G37*
G36*
X130826830Y-111211576D02*
X130388424Y-110773170D01*
X131236952Y-109924642D01*
X131675358Y-110363048D01*
X130826830Y-111211576D01*
X130826830Y-111211576D01*
G37*
G36*
X130508632Y-110893378D02*
X130070226Y-110454972D01*
X130918754Y-109606444D01*
X131357160Y-110044850D01*
X130508632Y-110893378D01*
X130508632Y-110893378D01*
G37*
G36*
X130190434Y-110575180D02*
X129752028Y-110136774D01*
X130600556Y-109288246D01*
X131038962Y-109726652D01*
X130190434Y-110575180D01*
X130190434Y-110575180D01*
G37*
G36*
X129872236Y-110256982D02*
X129433830Y-109818576D01*
X130282358Y-108970048D01*
X130720764Y-109408454D01*
X129872236Y-110256982D01*
X129872236Y-110256982D01*
G37*
G36*
X129766170Y-109818576D02*
X129327764Y-110256982D01*
X128479236Y-109408454D01*
X128917642Y-108970048D01*
X129766170Y-109818576D01*
X129766170Y-109818576D01*
G37*
G36*
X129447972Y-110136774D02*
X129009566Y-110575180D01*
X128161038Y-109726652D01*
X128599444Y-109288246D01*
X129447972Y-110136774D01*
X129447972Y-110136774D01*
G37*
G36*
X129129774Y-110454972D02*
X128691368Y-110893378D01*
X127842840Y-110044850D01*
X128281246Y-109606444D01*
X129129774Y-110454972D01*
X129129774Y-110454972D01*
G37*
G36*
X128811576Y-110773170D02*
X128373170Y-111211576D01*
X127524642Y-110363048D01*
X127963048Y-109924642D01*
X128811576Y-110773170D01*
X128811576Y-110773170D01*
G37*
G36*
X128493378Y-111091368D02*
X128054972Y-111529774D01*
X127206444Y-110681246D01*
X127644850Y-110242840D01*
X128493378Y-111091368D01*
X128493378Y-111091368D01*
G37*
G36*
X128175180Y-111409566D02*
X127736774Y-111847972D01*
X126888246Y-110999444D01*
X127326652Y-110561038D01*
X128175180Y-111409566D01*
X128175180Y-111409566D01*
G37*
G36*
X127856982Y-111727764D02*
X127418576Y-112166170D01*
X126570048Y-111317642D01*
X127008454Y-110879236D01*
X127856982Y-111727764D01*
X127856982Y-111727764D01*
G37*
G36*
X130448528Y-113131371D02*
X129317157Y-112000000D01*
X130448528Y-110868629D01*
X131579899Y-112000000D01*
X130448528Y-113131371D01*
X130448528Y-113131371D01*
G37*
G36*
X129600000Y-112282843D02*
X128468629Y-111151472D01*
X129600000Y-110020101D01*
X130731371Y-111151472D01*
X129600000Y-112282843D01*
X129600000Y-112282843D01*
G37*
G36*
X129600000Y-113979899D02*
X128468629Y-112848528D01*
X129600000Y-111717157D01*
X130731371Y-112848528D01*
X129600000Y-113979899D01*
X129600000Y-113979899D01*
G37*
G36*
X128751472Y-113131371D02*
X127620101Y-112000000D01*
X128751472Y-110868629D01*
X129882843Y-112000000D01*
X128751472Y-113131371D01*
X128751472Y-113131371D01*
G37*
D18*
X113350000Y-112000000D03*
X112450000Y-112000000D03*
X113350000Y-110500000D03*
X112450000Y-110500000D03*
X113350000Y-113500000D03*
X112450000Y-113500000D03*
D19*
X124100000Y-111850000D03*
X124100000Y-110950000D03*
X124100000Y-109050000D03*
X124100000Y-109950000D03*
D20*
X98500000Y-110100000D03*
X98500000Y-113900000D03*
D21*
X125150000Y-113700000D03*
X124050000Y-113700000D03*
X116050000Y-111250000D03*
X117150000Y-111250000D03*
X116050000Y-112700000D03*
X117150000Y-112700000D03*
X116050000Y-109850000D03*
X117150000Y-109850000D03*
X133450000Y-109900000D03*
X134550000Y-109900000D03*
X133450000Y-111100000D03*
X134550000Y-111100000D03*
D22*
X109650000Y-113400000D03*
X109650000Y-110400000D03*
X111150000Y-110400000D03*
X111150000Y-113400000D03*
D23*
X143340000Y-110730000D03*
D24*
X143340000Y-113270000D03*
X140800000Y-110730000D03*
X140800000Y-113270000D03*
X138260000Y-110730000D03*
X138260000Y-113270000D03*
D18*
X135450000Y-112400000D03*
X134550000Y-112400000D03*
D19*
X136100000Y-110250000D03*
X136100000Y-111150000D03*
M02*
