M48
;DRILL file {KiCad 4.0.1-stable} date 29/01/2016 19:20:43
;FORMAT={-:-/ absolute / metric / decimal}
FMAT,2
METRIC,TZ
T1C0.300
T2C0.762
%
G90
G05
M71
T1
X103.3Y-111.9
X103.3Y-112.9
X103.3Y-113.9
X105.Y-111.9
X105.Y-112.9
X105.Y-113.9
X110.7Y-114.8
X113.35Y-114.75
X114.35Y-112.45
X114.7Y-113.9
X114.8Y-109.8
X115.35Y-114.35
X120.Y-112.9
X120.1Y-111.2
X121.2Y-112.9
X124.1Y-112.8
X125.Y-112.8
X125.6Y-109.9
X126.4Y-109.9
X126.7Y-113.5
X127.2Y-109.8
X127.3Y-114.1
X130.95Y-115.
X132.45Y-114.4
X133.5Y-112.2
X134.1Y-114.4
X135.6Y-109.4
X136.5Y-114.
X136.8Y-111.9
X136.9Y-109.4
X139.4Y-111.9
X139.7Y-109.5
X142.Y-109.45
X142.1Y-115.
X144.6Y-115.
X145.4Y-115.
X146.2Y-115.
T2
X98.5Y-110.1
X98.5Y-113.9
T0
M30
